M48
; DRILL file {KiCad 8.0.3} date 2024-12-13T14:43:34+0900
; FORMAT={-:-/ absolute / metric / decimal}
; #@! TF.CreationDate,2024-12-13T14:43:34+09:00
; #@! TF.GenerationSoftware,Kicad,Pcbnew,8.0.3
; #@! TF.FileFunction,Plated,1,2,PTH
FMAT,2
METRIC
; #@! TA.AperFunction,Plated,PTH,ViaDrill
T1C0.300
; #@! TA.AperFunction,Plated,PTH,ComponentDrill
T2C0.762
; #@! TA.AperFunction,Plated,PTH,ComponentDrill
T3C0.800
; #@! TA.AperFunction,Plated,PTH,ComponentDrill
T4C0.950
; #@! TA.AperFunction,Plated,PTH,ComponentDrill
T5C1.000
%
G90
G05
T1
X56.642Y-81.94
X59.08Y-78.207
X59.207Y-59.461
X59.309Y-65.303
X61.036Y-75.844
X62.001Y-74.778
X62.763Y-81.915
X68.605Y-75.565
X73.558Y-63.83
X76.835Y-84.607
X76.835Y-85.75
X76.835Y-86.944
X80.67Y-64.11
X80.721Y-84.734
X80.747Y-83.642
X86.868Y-86.335
X89.611Y-93.167
X89.713Y-64.922
X92.151Y-93.193
X94.971Y-64.872
X98.908Y-59.817
T2
X62.509Y-87.071
X62.509Y-89.611
X62.509Y-92.151
X70.231Y-89.967
X70.231Y-92.507
X70.231Y-95.047
X70.231Y-97.587
X70.231Y-100.127
X70.231Y-102.667
X70.231Y-105.207
X70.231Y-107.747
X74.041Y-52.756
X74.041Y-60.376
X76.581Y-52.756
X76.581Y-60.376
X79.121Y-52.756
X79.121Y-60.376
X81.661Y-52.756
X81.661Y-60.376
X85.471Y-89.967
X85.471Y-92.507
X85.471Y-95.047
X85.471Y-97.587
X85.471Y-100.127
X85.471Y-102.667
X85.471Y-105.207
X85.471Y-107.747
X96.926Y-88.951
X96.926Y-91.491
X96.926Y-94.031
X96.926Y-96.571
X96.926Y-99.111
X96.926Y-101.651
T3
X52.603Y-65.43
X52.603Y-67.97
X52.603Y-70.51
X52.603Y-73.05
X52.603Y-75.59
X52.603Y-78.13
X52.603Y-80.67
X65.42Y-69.25
X65.42Y-71.79
X65.42Y-74.33
X65.42Y-76.87
X73.04Y-69.25
X73.04Y-71.79
X73.04Y-74.33
X73.04Y-76.87
T4
X91.618Y-71.298
X94.118Y-71.298
X96.618Y-71.298
X99.118Y-71.298
X101.618Y-71.298
T5
X54.478Y-86.949
X56.978Y-86.949
M30
