%TF.GenerationSoftware,KiCad,Pcbnew,8.0.3*%
%TF.CreationDate,2024-12-13T14:42:35+09:00*%
%TF.ProjectId,LoRaGPS,4c6f5261-4750-4532-9e6b-696361645f70,rev?*%
%TF.SameCoordinates,Original*%
%TF.FileFunction,Legend,Top*%
%TF.FilePolarity,Positive*%
%FSLAX46Y46*%
G04 Gerber Fmt 4.6, Leading zero omitted, Abs format (unit mm)*
G04 Created by KiCad (PCBNEW 8.0.3) date 2024-12-13 14:42:35*
%MOMM*%
%LPD*%
G01*
G04 APERTURE LIST*
%ADD10C,0.100000*%
%ADD11C,0.150000*%
%ADD12C,0.120000*%
G04 APERTURE END LIST*
D10*
X53488303Y-97865619D02*
X53678779Y-97865619D01*
X53678779Y-97865619D02*
X53774017Y-97818000D01*
X53774017Y-97818000D02*
X53821636Y-97770380D01*
X53821636Y-97770380D02*
X53916874Y-97627523D01*
X53916874Y-97627523D02*
X53964493Y-97437047D01*
X53964493Y-97437047D02*
X53964493Y-97056095D01*
X53964493Y-97056095D02*
X53916874Y-96960857D01*
X53916874Y-96960857D02*
X53869255Y-96913238D01*
X53869255Y-96913238D02*
X53774017Y-96865619D01*
X53774017Y-96865619D02*
X53583541Y-96865619D01*
X53583541Y-96865619D02*
X53488303Y-96913238D01*
X53488303Y-96913238D02*
X53440684Y-96960857D01*
X53440684Y-96960857D02*
X53393065Y-97056095D01*
X53393065Y-97056095D02*
X53393065Y-97294190D01*
X53393065Y-97294190D02*
X53440684Y-97389428D01*
X53440684Y-97389428D02*
X53488303Y-97437047D01*
X53488303Y-97437047D02*
X53583541Y-97484666D01*
X53583541Y-97484666D02*
X53774017Y-97484666D01*
X53774017Y-97484666D02*
X53869255Y-97437047D01*
X53869255Y-97437047D02*
X53916874Y-97389428D01*
X53916874Y-97389428D02*
X53964493Y-97294190D01*
X54250208Y-96865619D02*
X54583541Y-97865619D01*
X54583541Y-97865619D02*
X54916874Y-96865619D01*
X56535922Y-96913238D02*
X56440684Y-96865619D01*
X56440684Y-96865619D02*
X56297827Y-96865619D01*
X56297827Y-96865619D02*
X56154970Y-96913238D01*
X56154970Y-96913238D02*
X56059732Y-97008476D01*
X56059732Y-97008476D02*
X56012113Y-97103714D01*
X56012113Y-97103714D02*
X55964494Y-97294190D01*
X55964494Y-97294190D02*
X55964494Y-97437047D01*
X55964494Y-97437047D02*
X56012113Y-97627523D01*
X56012113Y-97627523D02*
X56059732Y-97722761D01*
X56059732Y-97722761D02*
X56154970Y-97818000D01*
X56154970Y-97818000D02*
X56297827Y-97865619D01*
X56297827Y-97865619D02*
X56393065Y-97865619D01*
X56393065Y-97865619D02*
X56535922Y-97818000D01*
X56535922Y-97818000D02*
X56583541Y-97770380D01*
X56583541Y-97770380D02*
X56583541Y-97437047D01*
X56583541Y-97437047D02*
X56393065Y-97437047D01*
X57012113Y-97865619D02*
X57012113Y-96865619D01*
X57012113Y-96865619D02*
X57583541Y-97865619D01*
X57583541Y-97865619D02*
X57583541Y-96865619D01*
X58059732Y-97865619D02*
X58059732Y-96865619D01*
X58059732Y-96865619D02*
X58297827Y-96865619D01*
X58297827Y-96865619D02*
X58440684Y-96913238D01*
X58440684Y-96913238D02*
X58535922Y-97008476D01*
X58535922Y-97008476D02*
X58583541Y-97103714D01*
X58583541Y-97103714D02*
X58631160Y-97294190D01*
X58631160Y-97294190D02*
X58631160Y-97437047D01*
X58631160Y-97437047D02*
X58583541Y-97627523D01*
X58583541Y-97627523D02*
X58535922Y-97722761D01*
X58535922Y-97722761D02*
X58440684Y-97818000D01*
X58440684Y-97818000D02*
X58297827Y-97865619D01*
X58297827Y-97865619D02*
X58059732Y-97865619D01*
X61568684Y-80577809D02*
X61902017Y-80577809D01*
X62044874Y-81101619D02*
X61568684Y-81101619D01*
X61568684Y-81101619D02*
X61568684Y-80101619D01*
X61568684Y-80101619D02*
X62044874Y-80101619D01*
X62425827Y-80196857D02*
X62473446Y-80149238D01*
X62473446Y-80149238D02*
X62568684Y-80101619D01*
X62568684Y-80101619D02*
X62806779Y-80101619D01*
X62806779Y-80101619D02*
X62902017Y-80149238D01*
X62902017Y-80149238D02*
X62949636Y-80196857D01*
X62949636Y-80196857D02*
X62997255Y-80292095D01*
X62997255Y-80292095D02*
X62997255Y-80387333D01*
X62997255Y-80387333D02*
X62949636Y-80530190D01*
X62949636Y-80530190D02*
X62378208Y-81101619D01*
X62378208Y-81101619D02*
X62997255Y-81101619D01*
X63378208Y-80196857D02*
X63425827Y-80149238D01*
X63425827Y-80149238D02*
X63521065Y-80101619D01*
X63521065Y-80101619D02*
X63759160Y-80101619D01*
X63759160Y-80101619D02*
X63854398Y-80149238D01*
X63854398Y-80149238D02*
X63902017Y-80196857D01*
X63902017Y-80196857D02*
X63949636Y-80292095D01*
X63949636Y-80292095D02*
X63949636Y-80387333D01*
X63949636Y-80387333D02*
X63902017Y-80530190D01*
X63902017Y-80530190D02*
X63330589Y-81101619D01*
X63330589Y-81101619D02*
X63949636Y-81101619D01*
X64568684Y-80101619D02*
X64663922Y-80101619D01*
X64663922Y-80101619D02*
X64759160Y-80149238D01*
X64759160Y-80149238D02*
X64806779Y-80196857D01*
X64806779Y-80196857D02*
X64854398Y-80292095D01*
X64854398Y-80292095D02*
X64902017Y-80482571D01*
X64902017Y-80482571D02*
X64902017Y-80720666D01*
X64902017Y-80720666D02*
X64854398Y-80911142D01*
X64854398Y-80911142D02*
X64806779Y-81006380D01*
X64806779Y-81006380D02*
X64759160Y-81054000D01*
X64759160Y-81054000D02*
X64663922Y-81101619D01*
X64663922Y-81101619D02*
X64568684Y-81101619D01*
X64568684Y-81101619D02*
X64473446Y-81054000D01*
X64473446Y-81054000D02*
X64425827Y-81006380D01*
X64425827Y-81006380D02*
X64378208Y-80911142D01*
X64378208Y-80911142D02*
X64330589Y-80720666D01*
X64330589Y-80720666D02*
X64330589Y-80482571D01*
X64330589Y-80482571D02*
X64378208Y-80292095D01*
X64378208Y-80292095D02*
X64425827Y-80196857D01*
X64425827Y-80196857D02*
X64473446Y-80149238D01*
X64473446Y-80149238D02*
X64568684Y-80101619D01*
X65330589Y-80720666D02*
X66092494Y-80720666D01*
X66616303Y-81101619D02*
X66806779Y-81101619D01*
X66806779Y-81101619D02*
X66902017Y-81054000D01*
X66902017Y-81054000D02*
X66949636Y-81006380D01*
X66949636Y-81006380D02*
X67044874Y-80863523D01*
X67044874Y-80863523D02*
X67092493Y-80673047D01*
X67092493Y-80673047D02*
X67092493Y-80292095D01*
X67092493Y-80292095D02*
X67044874Y-80196857D01*
X67044874Y-80196857D02*
X66997255Y-80149238D01*
X66997255Y-80149238D02*
X66902017Y-80101619D01*
X66902017Y-80101619D02*
X66711541Y-80101619D01*
X66711541Y-80101619D02*
X66616303Y-80149238D01*
X66616303Y-80149238D02*
X66568684Y-80196857D01*
X66568684Y-80196857D02*
X66521065Y-80292095D01*
X66521065Y-80292095D02*
X66521065Y-80530190D01*
X66521065Y-80530190D02*
X66568684Y-80625428D01*
X66568684Y-80625428D02*
X66616303Y-80673047D01*
X66616303Y-80673047D02*
X66711541Y-80720666D01*
X66711541Y-80720666D02*
X66902017Y-80720666D01*
X66902017Y-80720666D02*
X66997255Y-80673047D01*
X66997255Y-80673047D02*
X67044874Y-80625428D01*
X67044874Y-80625428D02*
X67092493Y-80530190D01*
X67711541Y-80101619D02*
X67806779Y-80101619D01*
X67806779Y-80101619D02*
X67902017Y-80149238D01*
X67902017Y-80149238D02*
X67949636Y-80196857D01*
X67949636Y-80196857D02*
X67997255Y-80292095D01*
X67997255Y-80292095D02*
X68044874Y-80482571D01*
X68044874Y-80482571D02*
X68044874Y-80720666D01*
X68044874Y-80720666D02*
X67997255Y-80911142D01*
X67997255Y-80911142D02*
X67949636Y-81006380D01*
X67949636Y-81006380D02*
X67902017Y-81054000D01*
X67902017Y-81054000D02*
X67806779Y-81101619D01*
X67806779Y-81101619D02*
X67711541Y-81101619D01*
X67711541Y-81101619D02*
X67616303Y-81054000D01*
X67616303Y-81054000D02*
X67568684Y-81006380D01*
X67568684Y-81006380D02*
X67521065Y-80911142D01*
X67521065Y-80911142D02*
X67473446Y-80720666D01*
X67473446Y-80720666D02*
X67473446Y-80482571D01*
X67473446Y-80482571D02*
X67521065Y-80292095D01*
X67521065Y-80292095D02*
X67568684Y-80196857D01*
X67568684Y-80196857D02*
X67616303Y-80149238D01*
X67616303Y-80149238D02*
X67711541Y-80101619D01*
X68663922Y-80101619D02*
X68759160Y-80101619D01*
X68759160Y-80101619D02*
X68854398Y-80149238D01*
X68854398Y-80149238D02*
X68902017Y-80196857D01*
X68902017Y-80196857D02*
X68949636Y-80292095D01*
X68949636Y-80292095D02*
X68997255Y-80482571D01*
X68997255Y-80482571D02*
X68997255Y-80720666D01*
X68997255Y-80720666D02*
X68949636Y-80911142D01*
X68949636Y-80911142D02*
X68902017Y-81006380D01*
X68902017Y-81006380D02*
X68854398Y-81054000D01*
X68854398Y-81054000D02*
X68759160Y-81101619D01*
X68759160Y-81101619D02*
X68663922Y-81101619D01*
X68663922Y-81101619D02*
X68568684Y-81054000D01*
X68568684Y-81054000D02*
X68521065Y-81006380D01*
X68521065Y-81006380D02*
X68473446Y-80911142D01*
X68473446Y-80911142D02*
X68425827Y-80720666D01*
X68425827Y-80720666D02*
X68425827Y-80482571D01*
X68425827Y-80482571D02*
X68473446Y-80292095D01*
X68473446Y-80292095D02*
X68521065Y-80196857D01*
X68521065Y-80196857D02*
X68568684Y-80149238D01*
X68568684Y-80149238D02*
X68663922Y-80101619D01*
X69282970Y-80101619D02*
X69854398Y-80101619D01*
X69568684Y-81101619D02*
X69568684Y-80101619D01*
X70140113Y-80196857D02*
X70187732Y-80149238D01*
X70187732Y-80149238D02*
X70282970Y-80101619D01*
X70282970Y-80101619D02*
X70521065Y-80101619D01*
X70521065Y-80101619D02*
X70616303Y-80149238D01*
X70616303Y-80149238D02*
X70663922Y-80196857D01*
X70663922Y-80196857D02*
X70711541Y-80292095D01*
X70711541Y-80292095D02*
X70711541Y-80387333D01*
X70711541Y-80387333D02*
X70663922Y-80530190D01*
X70663922Y-80530190D02*
X70092494Y-81101619D01*
X70092494Y-81101619D02*
X70711541Y-81101619D01*
X71092494Y-80196857D02*
X71140113Y-80149238D01*
X71140113Y-80149238D02*
X71235351Y-80101619D01*
X71235351Y-80101619D02*
X71473446Y-80101619D01*
X71473446Y-80101619D02*
X71568684Y-80149238D01*
X71568684Y-80149238D02*
X71616303Y-80196857D01*
X71616303Y-80196857D02*
X71663922Y-80292095D01*
X71663922Y-80292095D02*
X71663922Y-80387333D01*
X71663922Y-80387333D02*
X71616303Y-80530190D01*
X71616303Y-80530190D02*
X71044875Y-81101619D01*
X71044875Y-81101619D02*
X71663922Y-81101619D01*
X72044875Y-81054000D02*
X72187732Y-81101619D01*
X72187732Y-81101619D02*
X72425827Y-81101619D01*
X72425827Y-81101619D02*
X72521065Y-81054000D01*
X72521065Y-81054000D02*
X72568684Y-81006380D01*
X72568684Y-81006380D02*
X72616303Y-80911142D01*
X72616303Y-80911142D02*
X72616303Y-80815904D01*
X72616303Y-80815904D02*
X72568684Y-80720666D01*
X72568684Y-80720666D02*
X72521065Y-80673047D01*
X72521065Y-80673047D02*
X72425827Y-80625428D01*
X72425827Y-80625428D02*
X72235351Y-80577809D01*
X72235351Y-80577809D02*
X72140113Y-80530190D01*
X72140113Y-80530190D02*
X72092494Y-80482571D01*
X72092494Y-80482571D02*
X72044875Y-80387333D01*
X72044875Y-80387333D02*
X72044875Y-80292095D01*
X72044875Y-80292095D02*
X72092494Y-80196857D01*
X72092494Y-80196857D02*
X72140113Y-80149238D01*
X72140113Y-80149238D02*
X72235351Y-80101619D01*
X72235351Y-80101619D02*
X72473446Y-80101619D01*
X72473446Y-80101619D02*
X72616303Y-80149238D01*
X73330589Y-81482571D02*
X73282970Y-81434952D01*
X73282970Y-81434952D02*
X73187732Y-81292095D01*
X73187732Y-81292095D02*
X73140113Y-81196857D01*
X73140113Y-81196857D02*
X73092494Y-81054000D01*
X73092494Y-81054000D02*
X73044875Y-80815904D01*
X73044875Y-80815904D02*
X73044875Y-80625428D01*
X73044875Y-80625428D02*
X73092494Y-80387333D01*
X73092494Y-80387333D02*
X73140113Y-80244476D01*
X73140113Y-80244476D02*
X73187732Y-80149238D01*
X73187732Y-80149238D02*
X73282970Y-80006380D01*
X73282970Y-80006380D02*
X73330589Y-79958761D01*
X73997256Y-80101619D02*
X73997256Y-80815904D01*
X73997256Y-80815904D02*
X73949637Y-80958761D01*
X73949637Y-80958761D02*
X73854399Y-81054000D01*
X73854399Y-81054000D02*
X73711542Y-81101619D01*
X73711542Y-81101619D02*
X73616304Y-81101619D01*
X74473447Y-81101619D02*
X74473447Y-80101619D01*
X74473447Y-80101619D02*
X74854399Y-80101619D01*
X74854399Y-80101619D02*
X74949637Y-80149238D01*
X74949637Y-80149238D02*
X74997256Y-80196857D01*
X74997256Y-80196857D02*
X75044875Y-80292095D01*
X75044875Y-80292095D02*
X75044875Y-80434952D01*
X75044875Y-80434952D02*
X74997256Y-80530190D01*
X74997256Y-80530190D02*
X74949637Y-80577809D01*
X74949637Y-80577809D02*
X74854399Y-80625428D01*
X74854399Y-80625428D02*
X74473447Y-80625428D01*
X75378209Y-81482571D02*
X75425828Y-81434952D01*
X75425828Y-81434952D02*
X75521066Y-81292095D01*
X75521066Y-81292095D02*
X75568685Y-81196857D01*
X75568685Y-81196857D02*
X75616304Y-81054000D01*
X75616304Y-81054000D02*
X75663923Y-80815904D01*
X75663923Y-80815904D02*
X75663923Y-80625428D01*
X75663923Y-80625428D02*
X75616304Y-80387333D01*
X75616304Y-80387333D02*
X75568685Y-80244476D01*
X75568685Y-80244476D02*
X75521066Y-80149238D01*
X75521066Y-80149238D02*
X75425828Y-80006380D01*
X75425828Y-80006380D02*
X75378209Y-79958761D01*
X76140114Y-80720666D02*
X76902019Y-80720666D01*
X77378209Y-80577809D02*
X77711542Y-80577809D01*
X77854399Y-81101619D02*
X77378209Y-81101619D01*
X77378209Y-81101619D02*
X77378209Y-80101619D01*
X77378209Y-80101619D02*
X77854399Y-80101619D01*
X78140114Y-80101619D02*
X78473447Y-81101619D01*
X78473447Y-81101619D02*
X78806780Y-80101619D01*
X79663923Y-81101619D02*
X79092495Y-81101619D01*
X79378209Y-81101619D02*
X79378209Y-80101619D01*
X79378209Y-80101619D02*
X79282971Y-80244476D01*
X79282971Y-80244476D02*
X79187733Y-80339714D01*
X79187733Y-80339714D02*
X79092495Y-80387333D01*
X72932027Y-57825819D02*
X73265360Y-58825819D01*
X73265360Y-58825819D02*
X73598693Y-57825819D01*
X74360598Y-58778200D02*
X74265360Y-58825819D01*
X74265360Y-58825819D02*
X74074884Y-58825819D01*
X74074884Y-58825819D02*
X73979646Y-58778200D01*
X73979646Y-58778200D02*
X73932027Y-58730580D01*
X73932027Y-58730580D02*
X73884408Y-58635342D01*
X73884408Y-58635342D02*
X73884408Y-58349628D01*
X73884408Y-58349628D02*
X73932027Y-58254390D01*
X73932027Y-58254390D02*
X73979646Y-58206771D01*
X73979646Y-58206771D02*
X74074884Y-58159152D01*
X74074884Y-58159152D02*
X74265360Y-58159152D01*
X74265360Y-58159152D02*
X74360598Y-58206771D01*
X75217741Y-58778200D02*
X75122503Y-58825819D01*
X75122503Y-58825819D02*
X74932027Y-58825819D01*
X74932027Y-58825819D02*
X74836789Y-58778200D01*
X74836789Y-58778200D02*
X74789170Y-58730580D01*
X74789170Y-58730580D02*
X74741551Y-58635342D01*
X74741551Y-58635342D02*
X74741551Y-58349628D01*
X74741551Y-58349628D02*
X74789170Y-58254390D01*
X74789170Y-58254390D02*
X74836789Y-58206771D01*
X74836789Y-58206771D02*
X74932027Y-58159152D01*
X74932027Y-58159152D02*
X75122503Y-58159152D01*
X75122503Y-58159152D02*
X75217741Y-58206771D01*
X74075027Y-99939019D02*
X74646455Y-99939019D01*
X74360741Y-100939019D02*
X74360741Y-99939019D01*
X74979789Y-100939019D02*
X74979789Y-100272352D01*
X74979789Y-99939019D02*
X74932170Y-99986638D01*
X74932170Y-99986638D02*
X74979789Y-100034257D01*
X74979789Y-100034257D02*
X75027408Y-99986638D01*
X75027408Y-99986638D02*
X74979789Y-99939019D01*
X74979789Y-99939019D02*
X74979789Y-100034257D01*
X75455979Y-100272352D02*
X75455979Y-100939019D01*
X75455979Y-100367590D02*
X75503598Y-100319971D01*
X75503598Y-100319971D02*
X75598836Y-100272352D01*
X75598836Y-100272352D02*
X75741693Y-100272352D01*
X75741693Y-100272352D02*
X75836931Y-100319971D01*
X75836931Y-100319971D02*
X75884550Y-100415209D01*
X75884550Y-100415209D02*
X75884550Y-100939019D01*
X76265503Y-100272352D02*
X76503598Y-100939019D01*
X76741693Y-100272352D02*
X76503598Y-100939019D01*
X76503598Y-100939019D02*
X76408360Y-101177114D01*
X76408360Y-101177114D02*
X76360741Y-101224733D01*
X76360741Y-101224733D02*
X76265503Y-101272352D01*
X77836932Y-100034257D02*
X77884551Y-99986638D01*
X77884551Y-99986638D02*
X77979789Y-99939019D01*
X77979789Y-99939019D02*
X78217884Y-99939019D01*
X78217884Y-99939019D02*
X78313122Y-99986638D01*
X78313122Y-99986638D02*
X78360741Y-100034257D01*
X78360741Y-100034257D02*
X78408360Y-100129495D01*
X78408360Y-100129495D02*
X78408360Y-100224733D01*
X78408360Y-100224733D02*
X78360741Y-100367590D01*
X78360741Y-100367590D02*
X77789313Y-100939019D01*
X77789313Y-100939019D02*
X78408360Y-100939019D01*
X78741694Y-99939019D02*
X79360741Y-99939019D01*
X79360741Y-99939019D02*
X79027408Y-100319971D01*
X79027408Y-100319971D02*
X79170265Y-100319971D01*
X79170265Y-100319971D02*
X79265503Y-100367590D01*
X79265503Y-100367590D02*
X79313122Y-100415209D01*
X79313122Y-100415209D02*
X79360741Y-100510447D01*
X79360741Y-100510447D02*
X79360741Y-100748542D01*
X79360741Y-100748542D02*
X79313122Y-100843780D01*
X79313122Y-100843780D02*
X79265503Y-100891400D01*
X79265503Y-100891400D02*
X79170265Y-100939019D01*
X79170265Y-100939019D02*
X78884551Y-100939019D01*
X78884551Y-100939019D02*
X78789313Y-100891400D01*
X78789313Y-100891400D02*
X78741694Y-100843780D01*
X80265503Y-99939019D02*
X79789313Y-99939019D01*
X79789313Y-99939019D02*
X79741694Y-100415209D01*
X79741694Y-100415209D02*
X79789313Y-100367590D01*
X79789313Y-100367590D02*
X79884551Y-100319971D01*
X79884551Y-100319971D02*
X80122646Y-100319971D01*
X80122646Y-100319971D02*
X80217884Y-100367590D01*
X80217884Y-100367590D02*
X80265503Y-100415209D01*
X80265503Y-100415209D02*
X80313122Y-100510447D01*
X80313122Y-100510447D02*
X80313122Y-100748542D01*
X80313122Y-100748542D02*
X80265503Y-100843780D01*
X80265503Y-100843780D02*
X80217884Y-100891400D01*
X80217884Y-100891400D02*
X80122646Y-100939019D01*
X80122646Y-100939019D02*
X79884551Y-100939019D01*
X79884551Y-100939019D02*
X79789313Y-100891400D01*
X79789313Y-100891400D02*
X79741694Y-100843780D01*
X80932170Y-99939019D02*
X81027408Y-99939019D01*
X81027408Y-99939019D02*
X81122646Y-99986638D01*
X81122646Y-99986638D02*
X81170265Y-100034257D01*
X81170265Y-100034257D02*
X81217884Y-100129495D01*
X81217884Y-100129495D02*
X81265503Y-100319971D01*
X81265503Y-100319971D02*
X81265503Y-100558066D01*
X81265503Y-100558066D02*
X81217884Y-100748542D01*
X81217884Y-100748542D02*
X81170265Y-100843780D01*
X81170265Y-100843780D02*
X81122646Y-100891400D01*
X81122646Y-100891400D02*
X81027408Y-100939019D01*
X81027408Y-100939019D02*
X80932170Y-100939019D01*
X80932170Y-100939019D02*
X80836932Y-100891400D01*
X80836932Y-100891400D02*
X80789313Y-100843780D01*
X80789313Y-100843780D02*
X80741694Y-100748542D01*
X80741694Y-100748542D02*
X80694075Y-100558066D01*
X80694075Y-100558066D02*
X80694075Y-100319971D01*
X80694075Y-100319971D02*
X80741694Y-100129495D01*
X80741694Y-100129495D02*
X80789313Y-100034257D01*
X80789313Y-100034257D02*
X80836932Y-99986638D01*
X80836932Y-99986638D02*
X80932170Y-99939019D01*
X92242293Y-107733638D02*
X92147055Y-107686019D01*
X92147055Y-107686019D02*
X92004198Y-107686019D01*
X92004198Y-107686019D02*
X91861341Y-107733638D01*
X91861341Y-107733638D02*
X91766103Y-107828876D01*
X91766103Y-107828876D02*
X91718484Y-107924114D01*
X91718484Y-107924114D02*
X91670865Y-108114590D01*
X91670865Y-108114590D02*
X91670865Y-108257447D01*
X91670865Y-108257447D02*
X91718484Y-108447923D01*
X91718484Y-108447923D02*
X91766103Y-108543161D01*
X91766103Y-108543161D02*
X91861341Y-108638400D01*
X91861341Y-108638400D02*
X92004198Y-108686019D01*
X92004198Y-108686019D02*
X92099436Y-108686019D01*
X92099436Y-108686019D02*
X92242293Y-108638400D01*
X92242293Y-108638400D02*
X92289912Y-108590780D01*
X92289912Y-108590780D02*
X92289912Y-108257447D01*
X92289912Y-108257447D02*
X92099436Y-108257447D01*
X92718484Y-108686019D02*
X92718484Y-107686019D01*
X92718484Y-107686019D02*
X93289912Y-108686019D01*
X93289912Y-108686019D02*
X93289912Y-107686019D01*
X93766103Y-108686019D02*
X93766103Y-107686019D01*
X93766103Y-107686019D02*
X94004198Y-107686019D01*
X94004198Y-107686019D02*
X94147055Y-107733638D01*
X94147055Y-107733638D02*
X94242293Y-107828876D01*
X94242293Y-107828876D02*
X94289912Y-107924114D01*
X94289912Y-107924114D02*
X94337531Y-108114590D01*
X94337531Y-108114590D02*
X94337531Y-108257447D01*
X94337531Y-108257447D02*
X94289912Y-108447923D01*
X94289912Y-108447923D02*
X94242293Y-108543161D01*
X94242293Y-108543161D02*
X94147055Y-108638400D01*
X94147055Y-108638400D02*
X94004198Y-108686019D01*
X94004198Y-108686019D02*
X93766103Y-108686019D01*
X95432770Y-107686019D02*
X96051817Y-107686019D01*
X96051817Y-107686019D02*
X95718484Y-108066971D01*
X95718484Y-108066971D02*
X95861341Y-108066971D01*
X95861341Y-108066971D02*
X95956579Y-108114590D01*
X95956579Y-108114590D02*
X96004198Y-108162209D01*
X96004198Y-108162209D02*
X96051817Y-108257447D01*
X96051817Y-108257447D02*
X96051817Y-108495542D01*
X96051817Y-108495542D02*
X96004198Y-108590780D01*
X96004198Y-108590780D02*
X95956579Y-108638400D01*
X95956579Y-108638400D02*
X95861341Y-108686019D01*
X95861341Y-108686019D02*
X95575627Y-108686019D01*
X95575627Y-108686019D02*
X95480389Y-108638400D01*
X95480389Y-108638400D02*
X95432770Y-108590780D01*
X96337532Y-107686019D02*
X96670865Y-108686019D01*
X96670865Y-108686019D02*
X97004198Y-107686019D01*
X97242294Y-107686019D02*
X97861341Y-107686019D01*
X97861341Y-107686019D02*
X97528008Y-108066971D01*
X97528008Y-108066971D02*
X97670865Y-108066971D01*
X97670865Y-108066971D02*
X97766103Y-108114590D01*
X97766103Y-108114590D02*
X97813722Y-108162209D01*
X97813722Y-108162209D02*
X97861341Y-108257447D01*
X97861341Y-108257447D02*
X97861341Y-108495542D01*
X97861341Y-108495542D02*
X97813722Y-108590780D01*
X97813722Y-108590780D02*
X97766103Y-108638400D01*
X97766103Y-108638400D02*
X97670865Y-108686019D01*
X97670865Y-108686019D02*
X97385151Y-108686019D01*
X97385151Y-108686019D02*
X97289913Y-108638400D01*
X97289913Y-108638400D02*
X97242294Y-108590780D01*
X100549590Y-92940817D02*
X100501971Y-93083674D01*
X100501971Y-93083674D02*
X100454352Y-93131293D01*
X100454352Y-93131293D02*
X100359114Y-93178912D01*
X100359114Y-93178912D02*
X100216257Y-93178912D01*
X100216257Y-93178912D02*
X100121019Y-93131293D01*
X100121019Y-93131293D02*
X100073400Y-93083674D01*
X100073400Y-93083674D02*
X100025780Y-92988436D01*
X100025780Y-92988436D02*
X100025780Y-92607484D01*
X100025780Y-92607484D02*
X101025780Y-92607484D01*
X101025780Y-92607484D02*
X101025780Y-92940817D01*
X101025780Y-92940817D02*
X100978161Y-93036055D01*
X100978161Y-93036055D02*
X100930542Y-93083674D01*
X100930542Y-93083674D02*
X100835304Y-93131293D01*
X100835304Y-93131293D02*
X100740066Y-93131293D01*
X100740066Y-93131293D02*
X100644828Y-93083674D01*
X100644828Y-93083674D02*
X100597209Y-93036055D01*
X100597209Y-93036055D02*
X100549590Y-92940817D01*
X100549590Y-92940817D02*
X100549590Y-92607484D01*
X100025780Y-93607484D02*
X101025780Y-93607484D01*
X101025780Y-93607484D02*
X100311495Y-93940817D01*
X100311495Y-93940817D02*
X101025780Y-94274150D01*
X101025780Y-94274150D02*
X100025780Y-94274150D01*
X100549590Y-94750341D02*
X100549590Y-95083674D01*
X100025780Y-95226531D02*
X100025780Y-94750341D01*
X100025780Y-94750341D02*
X101025780Y-94750341D01*
X101025780Y-94750341D02*
X101025780Y-95226531D01*
X100930542Y-95607484D02*
X100978161Y-95655103D01*
X100978161Y-95655103D02*
X101025780Y-95750341D01*
X101025780Y-95750341D02*
X101025780Y-95988436D01*
X101025780Y-95988436D02*
X100978161Y-96083674D01*
X100978161Y-96083674D02*
X100930542Y-96131293D01*
X100930542Y-96131293D02*
X100835304Y-96178912D01*
X100835304Y-96178912D02*
X100740066Y-96178912D01*
X100740066Y-96178912D02*
X100597209Y-96131293D01*
X100597209Y-96131293D02*
X100025780Y-95559865D01*
X100025780Y-95559865D02*
X100025780Y-96178912D01*
X100597209Y-96750341D02*
X100644828Y-96655103D01*
X100644828Y-96655103D02*
X100692447Y-96607484D01*
X100692447Y-96607484D02*
X100787685Y-96559865D01*
X100787685Y-96559865D02*
X100835304Y-96559865D01*
X100835304Y-96559865D02*
X100930542Y-96607484D01*
X100930542Y-96607484D02*
X100978161Y-96655103D01*
X100978161Y-96655103D02*
X101025780Y-96750341D01*
X101025780Y-96750341D02*
X101025780Y-96940817D01*
X101025780Y-96940817D02*
X100978161Y-97036055D01*
X100978161Y-97036055D02*
X100930542Y-97083674D01*
X100930542Y-97083674D02*
X100835304Y-97131293D01*
X100835304Y-97131293D02*
X100787685Y-97131293D01*
X100787685Y-97131293D02*
X100692447Y-97083674D01*
X100692447Y-97083674D02*
X100644828Y-97036055D01*
X100644828Y-97036055D02*
X100597209Y-96940817D01*
X100597209Y-96940817D02*
X100597209Y-96750341D01*
X100597209Y-96750341D02*
X100549590Y-96655103D01*
X100549590Y-96655103D02*
X100501971Y-96607484D01*
X100501971Y-96607484D02*
X100406733Y-96559865D01*
X100406733Y-96559865D02*
X100216257Y-96559865D01*
X100216257Y-96559865D02*
X100121019Y-96607484D01*
X100121019Y-96607484D02*
X100073400Y-96655103D01*
X100073400Y-96655103D02*
X100025780Y-96750341D01*
X100025780Y-96750341D02*
X100025780Y-96940817D01*
X100025780Y-96940817D02*
X100073400Y-97036055D01*
X100073400Y-97036055D02*
X100121019Y-97083674D01*
X100121019Y-97083674D02*
X100216257Y-97131293D01*
X100216257Y-97131293D02*
X100406733Y-97131293D01*
X100406733Y-97131293D02*
X100501971Y-97083674D01*
X100501971Y-97083674D02*
X100549590Y-97036055D01*
X100549590Y-97036055D02*
X100597209Y-96940817D01*
X101025780Y-97750341D02*
X101025780Y-97845579D01*
X101025780Y-97845579D02*
X100978161Y-97940817D01*
X100978161Y-97940817D02*
X100930542Y-97988436D01*
X100930542Y-97988436D02*
X100835304Y-98036055D01*
X100835304Y-98036055D02*
X100644828Y-98083674D01*
X100644828Y-98083674D02*
X100406733Y-98083674D01*
X100406733Y-98083674D02*
X100216257Y-98036055D01*
X100216257Y-98036055D02*
X100121019Y-97988436D01*
X100121019Y-97988436D02*
X100073400Y-97940817D01*
X100073400Y-97940817D02*
X100025780Y-97845579D01*
X100025780Y-97845579D02*
X100025780Y-97750341D01*
X100025780Y-97750341D02*
X100073400Y-97655103D01*
X100073400Y-97655103D02*
X100121019Y-97607484D01*
X100121019Y-97607484D02*
X100216257Y-97559865D01*
X100216257Y-97559865D02*
X100406733Y-97512246D01*
X100406733Y-97512246D02*
X100644828Y-97512246D01*
X100644828Y-97512246D02*
X100835304Y-97559865D01*
X100835304Y-97559865D02*
X100930542Y-97607484D01*
X100930542Y-97607484D02*
X100978161Y-97655103D01*
X100978161Y-97655103D02*
X101025780Y-97750341D01*
X64110180Y-86355903D02*
X64110180Y-86546379D01*
X64110180Y-86546379D02*
X64157800Y-86641617D01*
X64157800Y-86641617D02*
X64205419Y-86689236D01*
X64205419Y-86689236D02*
X64348276Y-86784474D01*
X64348276Y-86784474D02*
X64538752Y-86832093D01*
X64538752Y-86832093D02*
X64919704Y-86832093D01*
X64919704Y-86832093D02*
X65014942Y-86784474D01*
X65014942Y-86784474D02*
X65062561Y-86736855D01*
X65062561Y-86736855D02*
X65110180Y-86641617D01*
X65110180Y-86641617D02*
X65110180Y-86451141D01*
X65110180Y-86451141D02*
X65062561Y-86355903D01*
X65062561Y-86355903D02*
X65014942Y-86308284D01*
X65014942Y-86308284D02*
X64919704Y-86260665D01*
X64919704Y-86260665D02*
X64681609Y-86260665D01*
X64681609Y-86260665D02*
X64586371Y-86308284D01*
X64586371Y-86308284D02*
X64538752Y-86355903D01*
X64538752Y-86355903D02*
X64491133Y-86451141D01*
X64491133Y-86451141D02*
X64491133Y-86641617D01*
X64491133Y-86641617D02*
X64538752Y-86736855D01*
X64538752Y-86736855D02*
X64586371Y-86784474D01*
X64586371Y-86784474D02*
X64681609Y-86832093D01*
X65110180Y-87117808D02*
X64110180Y-87451141D01*
X64110180Y-87451141D02*
X65110180Y-87784474D01*
X65110180Y-91070190D02*
X65110180Y-91689237D01*
X65110180Y-91689237D02*
X64729228Y-91355904D01*
X64729228Y-91355904D02*
X64729228Y-91498761D01*
X64729228Y-91498761D02*
X64681609Y-91593999D01*
X64681609Y-91593999D02*
X64633990Y-91641618D01*
X64633990Y-91641618D02*
X64538752Y-91689237D01*
X64538752Y-91689237D02*
X64300657Y-91689237D01*
X64300657Y-91689237D02*
X64205419Y-91641618D01*
X64205419Y-91641618D02*
X64157800Y-91593999D01*
X64157800Y-91593999D02*
X64110180Y-91498761D01*
X64110180Y-91498761D02*
X64110180Y-91213047D01*
X64110180Y-91213047D02*
X64157800Y-91117809D01*
X64157800Y-91117809D02*
X64205419Y-91070190D01*
X65110180Y-91974952D02*
X64110180Y-92308285D01*
X64110180Y-92308285D02*
X65110180Y-92641618D01*
X65110180Y-92879714D02*
X65110180Y-93498761D01*
X65110180Y-93498761D02*
X64729228Y-93165428D01*
X64729228Y-93165428D02*
X64729228Y-93308285D01*
X64729228Y-93308285D02*
X64681609Y-93403523D01*
X64681609Y-93403523D02*
X64633990Y-93451142D01*
X64633990Y-93451142D02*
X64538752Y-93498761D01*
X64538752Y-93498761D02*
X64300657Y-93498761D01*
X64300657Y-93498761D02*
X64205419Y-93451142D01*
X64205419Y-93451142D02*
X64157800Y-93403523D01*
X64157800Y-93403523D02*
X64110180Y-93308285D01*
X64110180Y-93308285D02*
X64110180Y-93022571D01*
X64110180Y-93022571D02*
X64157800Y-92927333D01*
X64157800Y-92927333D02*
X64205419Y-92879714D01*
X99266666Y-88168855D02*
X98566666Y-88402189D01*
X98566666Y-88402189D02*
X99266666Y-88635522D01*
X98600000Y-89168855D02*
X98566666Y-89102189D01*
X98566666Y-89102189D02*
X98566666Y-88968855D01*
X98566666Y-88968855D02*
X98600000Y-88902189D01*
X98600000Y-88902189D02*
X98633333Y-88868855D01*
X98633333Y-88868855D02*
X98700000Y-88835522D01*
X98700000Y-88835522D02*
X98900000Y-88835522D01*
X98900000Y-88835522D02*
X98966666Y-88868855D01*
X98966666Y-88868855D02*
X99000000Y-88902189D01*
X99000000Y-88902189D02*
X99033333Y-88968855D01*
X99033333Y-88968855D02*
X99033333Y-89102189D01*
X99033333Y-89102189D02*
X99000000Y-89168855D01*
X98600000Y-89768855D02*
X98566666Y-89702189D01*
X98566666Y-89702189D02*
X98566666Y-89568855D01*
X98566666Y-89568855D02*
X98600000Y-89502189D01*
X98600000Y-89502189D02*
X98633333Y-89468855D01*
X98633333Y-89468855D02*
X98700000Y-89435522D01*
X98700000Y-89435522D02*
X98900000Y-89435522D01*
X98900000Y-89435522D02*
X98966666Y-89468855D01*
X98966666Y-89468855D02*
X99000000Y-89502189D01*
X99000000Y-89502189D02*
X99033333Y-89568855D01*
X99033333Y-89568855D02*
X99033333Y-89702189D01*
X99033333Y-89702189D02*
X99000000Y-89768855D01*
X99233333Y-90968855D02*
X99266666Y-90902188D01*
X99266666Y-90902188D02*
X99266666Y-90802188D01*
X99266666Y-90802188D02*
X99233333Y-90702188D01*
X99233333Y-90702188D02*
X99166666Y-90635522D01*
X99166666Y-90635522D02*
X99100000Y-90602188D01*
X99100000Y-90602188D02*
X98966666Y-90568855D01*
X98966666Y-90568855D02*
X98866666Y-90568855D01*
X98866666Y-90568855D02*
X98733333Y-90602188D01*
X98733333Y-90602188D02*
X98666666Y-90635522D01*
X98666666Y-90635522D02*
X98600000Y-90702188D01*
X98600000Y-90702188D02*
X98566666Y-90802188D01*
X98566666Y-90802188D02*
X98566666Y-90868855D01*
X98566666Y-90868855D02*
X98600000Y-90968855D01*
X98600000Y-90968855D02*
X98633333Y-91002188D01*
X98633333Y-91002188D02*
X98866666Y-91002188D01*
X98866666Y-91002188D02*
X98866666Y-90868855D01*
X98566666Y-91302188D02*
X99266666Y-91302188D01*
X99266666Y-91302188D02*
X98566666Y-91702188D01*
X98566666Y-91702188D02*
X99266666Y-91702188D01*
X98566666Y-92035521D02*
X99266666Y-92035521D01*
X99266666Y-92035521D02*
X99266666Y-92202188D01*
X99266666Y-92202188D02*
X99233333Y-92302188D01*
X99233333Y-92302188D02*
X99166666Y-92368855D01*
X99166666Y-92368855D02*
X99100000Y-92402188D01*
X99100000Y-92402188D02*
X98966666Y-92435521D01*
X98966666Y-92435521D02*
X98866666Y-92435521D01*
X98866666Y-92435521D02*
X98733333Y-92402188D01*
X98733333Y-92402188D02*
X98666666Y-92368855D01*
X98666666Y-92368855D02*
X98600000Y-92302188D01*
X98600000Y-92302188D02*
X98566666Y-92202188D01*
X98566666Y-92202188D02*
X98566666Y-92035521D01*
X99266666Y-93168854D02*
X98566666Y-93402188D01*
X98566666Y-93402188D02*
X99266666Y-93635521D01*
X98600000Y-94168854D02*
X98566666Y-94102188D01*
X98566666Y-94102188D02*
X98566666Y-93968854D01*
X98566666Y-93968854D02*
X98600000Y-93902188D01*
X98600000Y-93902188D02*
X98633333Y-93868854D01*
X98633333Y-93868854D02*
X98700000Y-93835521D01*
X98700000Y-93835521D02*
X98900000Y-93835521D01*
X98900000Y-93835521D02*
X98966666Y-93868854D01*
X98966666Y-93868854D02*
X99000000Y-93902188D01*
X99000000Y-93902188D02*
X99033333Y-93968854D01*
X99033333Y-93968854D02*
X99033333Y-94102188D01*
X99033333Y-94102188D02*
X99000000Y-94168854D01*
X98600000Y-94768854D02*
X98566666Y-94702188D01*
X98566666Y-94702188D02*
X98566666Y-94568854D01*
X98566666Y-94568854D02*
X98600000Y-94502188D01*
X98600000Y-94502188D02*
X98633333Y-94468854D01*
X98633333Y-94468854D02*
X98700000Y-94435521D01*
X98700000Y-94435521D02*
X98900000Y-94435521D01*
X98900000Y-94435521D02*
X98966666Y-94468854D01*
X98966666Y-94468854D02*
X99000000Y-94502188D01*
X99000000Y-94502188D02*
X99033333Y-94568854D01*
X99033333Y-94568854D02*
X99033333Y-94702188D01*
X99033333Y-94702188D02*
X99000000Y-94768854D01*
X98600000Y-95568854D02*
X98566666Y-95668854D01*
X98566666Y-95668854D02*
X98566666Y-95835521D01*
X98566666Y-95835521D02*
X98600000Y-95902187D01*
X98600000Y-95902187D02*
X98633333Y-95935521D01*
X98633333Y-95935521D02*
X98700000Y-95968854D01*
X98700000Y-95968854D02*
X98766666Y-95968854D01*
X98766666Y-95968854D02*
X98833333Y-95935521D01*
X98833333Y-95935521D02*
X98866666Y-95902187D01*
X98866666Y-95902187D02*
X98900000Y-95835521D01*
X98900000Y-95835521D02*
X98933333Y-95702187D01*
X98933333Y-95702187D02*
X98966666Y-95635521D01*
X98966666Y-95635521D02*
X99000000Y-95602187D01*
X99000000Y-95602187D02*
X99066666Y-95568854D01*
X99066666Y-95568854D02*
X99133333Y-95568854D01*
X99133333Y-95568854D02*
X99200000Y-95602187D01*
X99200000Y-95602187D02*
X99233333Y-95635521D01*
X99233333Y-95635521D02*
X99266666Y-95702187D01*
X99266666Y-95702187D02*
X99266666Y-95868854D01*
X99266666Y-95868854D02*
X99233333Y-95968854D01*
X98566666Y-96268854D02*
X99266666Y-96268854D01*
X99266666Y-96268854D02*
X99266666Y-96435521D01*
X99266666Y-96435521D02*
X99233333Y-96535521D01*
X99233333Y-96535521D02*
X99166666Y-96602188D01*
X99166666Y-96602188D02*
X99100000Y-96635521D01*
X99100000Y-96635521D02*
X98966666Y-96668854D01*
X98966666Y-96668854D02*
X98866666Y-96668854D01*
X98866666Y-96668854D02*
X98733333Y-96635521D01*
X98733333Y-96635521D02*
X98666666Y-96602188D01*
X98666666Y-96602188D02*
X98600000Y-96535521D01*
X98600000Y-96535521D02*
X98566666Y-96435521D01*
X98566666Y-96435521D02*
X98566666Y-96268854D01*
X98766666Y-96935521D02*
X98766666Y-97268854D01*
X98566666Y-96868854D02*
X99266666Y-97102188D01*
X99266666Y-97102188D02*
X98566666Y-97335521D01*
X98566666Y-98402187D02*
X98933333Y-98402187D01*
X98933333Y-98402187D02*
X99000000Y-98368854D01*
X99000000Y-98368854D02*
X99033333Y-98302187D01*
X99033333Y-98302187D02*
X99033333Y-98168854D01*
X99033333Y-98168854D02*
X99000000Y-98102187D01*
X98600000Y-98402187D02*
X98566666Y-98335521D01*
X98566666Y-98335521D02*
X98566666Y-98168854D01*
X98566666Y-98168854D02*
X98600000Y-98102187D01*
X98600000Y-98102187D02*
X98666666Y-98068854D01*
X98666666Y-98068854D02*
X98733333Y-98068854D01*
X98733333Y-98068854D02*
X98800000Y-98102187D01*
X98800000Y-98102187D02*
X98833333Y-98168854D01*
X98833333Y-98168854D02*
X98833333Y-98335521D01*
X98833333Y-98335521D02*
X98866666Y-98402187D01*
X98566666Y-99035520D02*
X99266666Y-99035520D01*
X98600000Y-99035520D02*
X98566666Y-98968854D01*
X98566666Y-98968854D02*
X98566666Y-98835520D01*
X98566666Y-98835520D02*
X98600000Y-98768854D01*
X98600000Y-98768854D02*
X98633333Y-98735520D01*
X98633333Y-98735520D02*
X98700000Y-98702187D01*
X98700000Y-98702187D02*
X98900000Y-98702187D01*
X98900000Y-98702187D02*
X98966666Y-98735520D01*
X98966666Y-98735520D02*
X99000000Y-98768854D01*
X99000000Y-98768854D02*
X99033333Y-98835520D01*
X99033333Y-98835520D02*
X99033333Y-98968854D01*
X99033333Y-98968854D02*
X99000000Y-99035520D01*
X98566666Y-99668853D02*
X99266666Y-99668853D01*
X98600000Y-99668853D02*
X98566666Y-99602187D01*
X98566666Y-99602187D02*
X98566666Y-99468853D01*
X98566666Y-99468853D02*
X98600000Y-99402187D01*
X98600000Y-99402187D02*
X98633333Y-99368853D01*
X98633333Y-99368853D02*
X98700000Y-99335520D01*
X98700000Y-99335520D02*
X98900000Y-99335520D01*
X98900000Y-99335520D02*
X98966666Y-99368853D01*
X98966666Y-99368853D02*
X99000000Y-99402187D01*
X99000000Y-99402187D02*
X99033333Y-99468853D01*
X99033333Y-99468853D02*
X99033333Y-99602187D01*
X99033333Y-99602187D02*
X99000000Y-99668853D01*
X98566666Y-100002186D02*
X99033333Y-100002186D01*
X98900000Y-100002186D02*
X98966666Y-100035520D01*
X98966666Y-100035520D02*
X99000000Y-100068853D01*
X99000000Y-100068853D02*
X99033333Y-100135520D01*
X99033333Y-100135520D02*
X99033333Y-100202186D01*
X98600000Y-100935519D02*
X98566666Y-101035519D01*
X98566666Y-101035519D02*
X98566666Y-101202186D01*
X98566666Y-101202186D02*
X98600000Y-101268852D01*
X98600000Y-101268852D02*
X98633333Y-101302186D01*
X98633333Y-101302186D02*
X98700000Y-101335519D01*
X98700000Y-101335519D02*
X98766666Y-101335519D01*
X98766666Y-101335519D02*
X98833333Y-101302186D01*
X98833333Y-101302186D02*
X98866666Y-101268852D01*
X98866666Y-101268852D02*
X98900000Y-101202186D01*
X98900000Y-101202186D02*
X98933333Y-101068852D01*
X98933333Y-101068852D02*
X98966666Y-101002186D01*
X98966666Y-101002186D02*
X99000000Y-100968852D01*
X99000000Y-100968852D02*
X99066666Y-100935519D01*
X99066666Y-100935519D02*
X99133333Y-100935519D01*
X99133333Y-100935519D02*
X99200000Y-100968852D01*
X99200000Y-100968852D02*
X99233333Y-101002186D01*
X99233333Y-101002186D02*
X99266666Y-101068852D01*
X99266666Y-101068852D02*
X99266666Y-101235519D01*
X99266666Y-101235519D02*
X99233333Y-101335519D01*
X98633333Y-102035519D02*
X98600000Y-102002186D01*
X98600000Y-102002186D02*
X98566666Y-101902186D01*
X98566666Y-101902186D02*
X98566666Y-101835519D01*
X98566666Y-101835519D02*
X98600000Y-101735519D01*
X98600000Y-101735519D02*
X98666666Y-101668853D01*
X98666666Y-101668853D02*
X98733333Y-101635519D01*
X98733333Y-101635519D02*
X98866666Y-101602186D01*
X98866666Y-101602186D02*
X98966666Y-101602186D01*
X98966666Y-101602186D02*
X99100000Y-101635519D01*
X99100000Y-101635519D02*
X99166666Y-101668853D01*
X99166666Y-101668853D02*
X99233333Y-101735519D01*
X99233333Y-101735519D02*
X99266666Y-101835519D01*
X99266666Y-101835519D02*
X99266666Y-101902186D01*
X99266666Y-101902186D02*
X99233333Y-102002186D01*
X99233333Y-102002186D02*
X99200000Y-102035519D01*
X98566666Y-102668853D02*
X98566666Y-102335519D01*
X98566666Y-102335519D02*
X99266666Y-102335519D01*
X75338617Y-55660409D02*
X75481474Y-55708028D01*
X75481474Y-55708028D02*
X75529093Y-55755647D01*
X75529093Y-55755647D02*
X75576712Y-55850885D01*
X75576712Y-55850885D02*
X75576712Y-55993742D01*
X75576712Y-55993742D02*
X75529093Y-56088980D01*
X75529093Y-56088980D02*
X75481474Y-56136600D01*
X75481474Y-56136600D02*
X75386236Y-56184219D01*
X75386236Y-56184219D02*
X75005284Y-56184219D01*
X75005284Y-56184219D02*
X75005284Y-55184219D01*
X75005284Y-55184219D02*
X75338617Y-55184219D01*
X75338617Y-55184219D02*
X75433855Y-55231838D01*
X75433855Y-55231838D02*
X75481474Y-55279457D01*
X75481474Y-55279457D02*
X75529093Y-55374695D01*
X75529093Y-55374695D02*
X75529093Y-55469933D01*
X75529093Y-55469933D02*
X75481474Y-55565171D01*
X75481474Y-55565171D02*
X75433855Y-55612790D01*
X75433855Y-55612790D02*
X75338617Y-55660409D01*
X75338617Y-55660409D02*
X75005284Y-55660409D01*
X76005284Y-56184219D02*
X76005284Y-55184219D01*
X76005284Y-55184219D02*
X76576712Y-56184219D01*
X76576712Y-56184219D02*
X76576712Y-55184219D01*
X77243379Y-55184219D02*
X77433855Y-55184219D01*
X77433855Y-55184219D02*
X77529093Y-55231838D01*
X77529093Y-55231838D02*
X77624331Y-55327076D01*
X77624331Y-55327076D02*
X77671950Y-55517552D01*
X77671950Y-55517552D02*
X77671950Y-55850885D01*
X77671950Y-55850885D02*
X77624331Y-56041361D01*
X77624331Y-56041361D02*
X77529093Y-56136600D01*
X77529093Y-56136600D02*
X77433855Y-56184219D01*
X77433855Y-56184219D02*
X77243379Y-56184219D01*
X77243379Y-56184219D02*
X77148141Y-56136600D01*
X77148141Y-56136600D02*
X77052903Y-56041361D01*
X77052903Y-56041361D02*
X77005284Y-55850885D01*
X77005284Y-55850885D02*
X77005284Y-55517552D01*
X77005284Y-55517552D02*
X77052903Y-55327076D01*
X77052903Y-55327076D02*
X77148141Y-55231838D01*
X77148141Y-55231838D02*
X77243379Y-55184219D01*
X78290998Y-55184219D02*
X78386236Y-55184219D01*
X78386236Y-55184219D02*
X78481474Y-55231838D01*
X78481474Y-55231838D02*
X78529093Y-55279457D01*
X78529093Y-55279457D02*
X78576712Y-55374695D01*
X78576712Y-55374695D02*
X78624331Y-55565171D01*
X78624331Y-55565171D02*
X78624331Y-55803266D01*
X78624331Y-55803266D02*
X78576712Y-55993742D01*
X78576712Y-55993742D02*
X78529093Y-56088980D01*
X78529093Y-56088980D02*
X78481474Y-56136600D01*
X78481474Y-56136600D02*
X78386236Y-56184219D01*
X78386236Y-56184219D02*
X78290998Y-56184219D01*
X78290998Y-56184219D02*
X78195760Y-56136600D01*
X78195760Y-56136600D02*
X78148141Y-56088980D01*
X78148141Y-56088980D02*
X78100522Y-55993742D01*
X78100522Y-55993742D02*
X78052903Y-55803266D01*
X78052903Y-55803266D02*
X78052903Y-55565171D01*
X78052903Y-55565171D02*
X78100522Y-55374695D01*
X78100522Y-55374695D02*
X78148141Y-55279457D01*
X78148141Y-55279457D02*
X78195760Y-55231838D01*
X78195760Y-55231838D02*
X78290998Y-55184219D01*
X79529093Y-55184219D02*
X79052903Y-55184219D01*
X79052903Y-55184219D02*
X79005284Y-55660409D01*
X79005284Y-55660409D02*
X79052903Y-55612790D01*
X79052903Y-55612790D02*
X79148141Y-55565171D01*
X79148141Y-55565171D02*
X79386236Y-55565171D01*
X79386236Y-55565171D02*
X79481474Y-55612790D01*
X79481474Y-55612790D02*
X79529093Y-55660409D01*
X79529093Y-55660409D02*
X79576712Y-55755647D01*
X79576712Y-55755647D02*
X79576712Y-55993742D01*
X79576712Y-55993742D02*
X79529093Y-56088980D01*
X79529093Y-56088980D02*
X79481474Y-56136600D01*
X79481474Y-56136600D02*
X79386236Y-56184219D01*
X79386236Y-56184219D02*
X79148141Y-56184219D01*
X79148141Y-56184219D02*
X79052903Y-56136600D01*
X79052903Y-56136600D02*
X79005284Y-56088980D01*
X80481474Y-55184219D02*
X80005284Y-55184219D01*
X80005284Y-55184219D02*
X79957665Y-55660409D01*
X79957665Y-55660409D02*
X80005284Y-55612790D01*
X80005284Y-55612790D02*
X80100522Y-55565171D01*
X80100522Y-55565171D02*
X80338617Y-55565171D01*
X80338617Y-55565171D02*
X80433855Y-55612790D01*
X80433855Y-55612790D02*
X80481474Y-55660409D01*
X80481474Y-55660409D02*
X80529093Y-55755647D01*
X80529093Y-55755647D02*
X80529093Y-55993742D01*
X80529093Y-55993742D02*
X80481474Y-56088980D01*
X80481474Y-56088980D02*
X80433855Y-56136600D01*
X80433855Y-56136600D02*
X80338617Y-56184219D01*
X80338617Y-56184219D02*
X80100522Y-56184219D01*
X80100522Y-56184219D02*
X80005284Y-56136600D01*
X80005284Y-56136600D02*
X79957665Y-56088980D01*
X89432484Y-61238819D02*
X89432484Y-60238819D01*
X89432484Y-60238819D02*
X89813436Y-60238819D01*
X89813436Y-60238819D02*
X89908674Y-60286438D01*
X89908674Y-60286438D02*
X89956293Y-60334057D01*
X89956293Y-60334057D02*
X90003912Y-60429295D01*
X90003912Y-60429295D02*
X90003912Y-60572152D01*
X90003912Y-60572152D02*
X89956293Y-60667390D01*
X89956293Y-60667390D02*
X89908674Y-60715009D01*
X89908674Y-60715009D02*
X89813436Y-60762628D01*
X89813436Y-60762628D02*
X89432484Y-60762628D01*
X90432484Y-61238819D02*
X90432484Y-60238819D01*
X90432484Y-60238819D02*
X90813436Y-60238819D01*
X90813436Y-60238819D02*
X90908674Y-60286438D01*
X90908674Y-60286438D02*
X90956293Y-60334057D01*
X90956293Y-60334057D02*
X91003912Y-60429295D01*
X91003912Y-60429295D02*
X91003912Y-60572152D01*
X91003912Y-60572152D02*
X90956293Y-60667390D01*
X90956293Y-60667390D02*
X90908674Y-60715009D01*
X90908674Y-60715009D02*
X90813436Y-60762628D01*
X90813436Y-60762628D02*
X90432484Y-60762628D01*
X91384865Y-61191200D02*
X91527722Y-61238819D01*
X91527722Y-61238819D02*
X91765817Y-61238819D01*
X91765817Y-61238819D02*
X91861055Y-61191200D01*
X91861055Y-61191200D02*
X91908674Y-61143580D01*
X91908674Y-61143580D02*
X91956293Y-61048342D01*
X91956293Y-61048342D02*
X91956293Y-60953104D01*
X91956293Y-60953104D02*
X91908674Y-60857866D01*
X91908674Y-60857866D02*
X91861055Y-60810247D01*
X91861055Y-60810247D02*
X91765817Y-60762628D01*
X91765817Y-60762628D02*
X91575341Y-60715009D01*
X91575341Y-60715009D02*
X91480103Y-60667390D01*
X91480103Y-60667390D02*
X91432484Y-60619771D01*
X91432484Y-60619771D02*
X91384865Y-60524533D01*
X91384865Y-60524533D02*
X91384865Y-60429295D01*
X91384865Y-60429295D02*
X91432484Y-60334057D01*
X91432484Y-60334057D02*
X91480103Y-60286438D01*
X91480103Y-60286438D02*
X91575341Y-60238819D01*
X91575341Y-60238819D02*
X91813436Y-60238819D01*
X91813436Y-60238819D02*
X91956293Y-60286438D01*
X93718198Y-61238819D02*
X93384865Y-60762628D01*
X93146770Y-61238819D02*
X93146770Y-60238819D01*
X93146770Y-60238819D02*
X93527722Y-60238819D01*
X93527722Y-60238819D02*
X93622960Y-60286438D01*
X93622960Y-60286438D02*
X93670579Y-60334057D01*
X93670579Y-60334057D02*
X93718198Y-60429295D01*
X93718198Y-60429295D02*
X93718198Y-60572152D01*
X93718198Y-60572152D02*
X93670579Y-60667390D01*
X93670579Y-60667390D02*
X93622960Y-60715009D01*
X93622960Y-60715009D02*
X93527722Y-60762628D01*
X93527722Y-60762628D02*
X93146770Y-60762628D01*
X94051532Y-60238819D02*
X94718198Y-61238819D01*
X94718198Y-60238819D02*
X94051532Y-61238819D01*
X95718199Y-60238819D02*
X96289627Y-60238819D01*
X96003913Y-61238819D02*
X96003913Y-60238819D01*
X96527723Y-60238819D02*
X97194389Y-61238819D01*
X97194389Y-60238819D02*
X96527723Y-61238819D01*
X98861056Y-60286438D02*
X98765818Y-60238819D01*
X98765818Y-60238819D02*
X98622961Y-60238819D01*
X98622961Y-60238819D02*
X98480104Y-60286438D01*
X98480104Y-60286438D02*
X98384866Y-60381676D01*
X98384866Y-60381676D02*
X98337247Y-60476914D01*
X98337247Y-60476914D02*
X98289628Y-60667390D01*
X98289628Y-60667390D02*
X98289628Y-60810247D01*
X98289628Y-60810247D02*
X98337247Y-61000723D01*
X98337247Y-61000723D02*
X98384866Y-61095961D01*
X98384866Y-61095961D02*
X98480104Y-61191200D01*
X98480104Y-61191200D02*
X98622961Y-61238819D01*
X98622961Y-61238819D02*
X98718199Y-61238819D01*
X98718199Y-61238819D02*
X98861056Y-61191200D01*
X98861056Y-61191200D02*
X98908675Y-61143580D01*
X98908675Y-61143580D02*
X98908675Y-60810247D01*
X98908675Y-60810247D02*
X98718199Y-60810247D01*
X99337247Y-61238819D02*
X99337247Y-60238819D01*
X99337247Y-60238819D02*
X99908675Y-61238819D01*
X99908675Y-61238819D02*
X99908675Y-60238819D01*
X100384866Y-61238819D02*
X100384866Y-60238819D01*
X100384866Y-60238819D02*
X100622961Y-60238819D01*
X100622961Y-60238819D02*
X100765818Y-60286438D01*
X100765818Y-60286438D02*
X100861056Y-60381676D01*
X100861056Y-60381676D02*
X100908675Y-60476914D01*
X100908675Y-60476914D02*
X100956294Y-60667390D01*
X100956294Y-60667390D02*
X100956294Y-60810247D01*
X100956294Y-60810247D02*
X100908675Y-61000723D01*
X100908675Y-61000723D02*
X100861056Y-61095961D01*
X100861056Y-61095961D02*
X100765818Y-61191200D01*
X100765818Y-61191200D02*
X100622961Y-61238819D01*
X100622961Y-61238819D02*
X100384866Y-61238819D01*
X102003914Y-60238819D02*
X102337247Y-61238819D01*
X102337247Y-61238819D02*
X102670580Y-60238819D01*
X103432485Y-61191200D02*
X103337247Y-61238819D01*
X103337247Y-61238819D02*
X103146771Y-61238819D01*
X103146771Y-61238819D02*
X103051533Y-61191200D01*
X103051533Y-61191200D02*
X103003914Y-61143580D01*
X103003914Y-61143580D02*
X102956295Y-61048342D01*
X102956295Y-61048342D02*
X102956295Y-60762628D01*
X102956295Y-60762628D02*
X103003914Y-60667390D01*
X103003914Y-60667390D02*
X103051533Y-60619771D01*
X103051533Y-60619771D02*
X103146771Y-60572152D01*
X103146771Y-60572152D02*
X103337247Y-60572152D01*
X103337247Y-60572152D02*
X103432485Y-60619771D01*
X104289628Y-61191200D02*
X104194390Y-61238819D01*
X104194390Y-61238819D02*
X104003914Y-61238819D01*
X104003914Y-61238819D02*
X103908676Y-61191200D01*
X103908676Y-61191200D02*
X103861057Y-61143580D01*
X103861057Y-61143580D02*
X103813438Y-61048342D01*
X103813438Y-61048342D02*
X103813438Y-60762628D01*
X103813438Y-60762628D02*
X103861057Y-60667390D01*
X103861057Y-60667390D02*
X103908676Y-60619771D01*
X103908676Y-60619771D02*
X104003914Y-60572152D01*
X104003914Y-60572152D02*
X104194390Y-60572152D01*
X104194390Y-60572152D02*
X104289628Y-60619771D01*
D11*
X96284466Y-74252619D02*
X96284466Y-74966904D01*
X96284466Y-74966904D02*
X96236847Y-75109761D01*
X96236847Y-75109761D02*
X96141609Y-75205000D01*
X96141609Y-75205000D02*
X95998752Y-75252619D01*
X95998752Y-75252619D02*
X95903514Y-75252619D01*
X97284466Y-75252619D02*
X96713038Y-75252619D01*
X96998752Y-75252619D02*
X96998752Y-74252619D01*
X96998752Y-74252619D02*
X96903514Y-74395476D01*
X96903514Y-74395476D02*
X96808276Y-74490714D01*
X96808276Y-74490714D02*
X96713038Y-74538333D01*
X64044533Y-105966419D02*
X63711200Y-105490228D01*
X63473105Y-105966419D02*
X63473105Y-104966419D01*
X63473105Y-104966419D02*
X63854057Y-104966419D01*
X63854057Y-104966419D02*
X63949295Y-105014038D01*
X63949295Y-105014038D02*
X63996914Y-105061657D01*
X63996914Y-105061657D02*
X64044533Y-105156895D01*
X64044533Y-105156895D02*
X64044533Y-105299752D01*
X64044533Y-105299752D02*
X63996914Y-105394990D01*
X63996914Y-105394990D02*
X63949295Y-105442609D01*
X63949295Y-105442609D02*
X63854057Y-105490228D01*
X63854057Y-105490228D02*
X63473105Y-105490228D01*
X64615962Y-105394990D02*
X64520724Y-105347371D01*
X64520724Y-105347371D02*
X64473105Y-105299752D01*
X64473105Y-105299752D02*
X64425486Y-105204514D01*
X64425486Y-105204514D02*
X64425486Y-105156895D01*
X64425486Y-105156895D02*
X64473105Y-105061657D01*
X64473105Y-105061657D02*
X64520724Y-105014038D01*
X64520724Y-105014038D02*
X64615962Y-104966419D01*
X64615962Y-104966419D02*
X64806438Y-104966419D01*
X64806438Y-104966419D02*
X64901676Y-105014038D01*
X64901676Y-105014038D02*
X64949295Y-105061657D01*
X64949295Y-105061657D02*
X64996914Y-105156895D01*
X64996914Y-105156895D02*
X64996914Y-105204514D01*
X64996914Y-105204514D02*
X64949295Y-105299752D01*
X64949295Y-105299752D02*
X64901676Y-105347371D01*
X64901676Y-105347371D02*
X64806438Y-105394990D01*
X64806438Y-105394990D02*
X64615962Y-105394990D01*
X64615962Y-105394990D02*
X64520724Y-105442609D01*
X64520724Y-105442609D02*
X64473105Y-105490228D01*
X64473105Y-105490228D02*
X64425486Y-105585466D01*
X64425486Y-105585466D02*
X64425486Y-105775942D01*
X64425486Y-105775942D02*
X64473105Y-105871180D01*
X64473105Y-105871180D02*
X64520724Y-105918800D01*
X64520724Y-105918800D02*
X64615962Y-105966419D01*
X64615962Y-105966419D02*
X64806438Y-105966419D01*
X64806438Y-105966419D02*
X64901676Y-105918800D01*
X64901676Y-105918800D02*
X64949295Y-105871180D01*
X64949295Y-105871180D02*
X64996914Y-105775942D01*
X64996914Y-105775942D02*
X64996914Y-105585466D01*
X64996914Y-105585466D02*
X64949295Y-105490228D01*
X64949295Y-105490228D02*
X64901676Y-105442609D01*
X64901676Y-105442609D02*
X64806438Y-105394990D01*
X94061066Y-103506519D02*
X94061066Y-104220804D01*
X94061066Y-104220804D02*
X94013447Y-104363661D01*
X94013447Y-104363661D02*
X93918209Y-104458900D01*
X93918209Y-104458900D02*
X93775352Y-104506519D01*
X93775352Y-104506519D02*
X93680114Y-104506519D01*
X94537257Y-104506519D02*
X94537257Y-103506519D01*
X94537257Y-103506519D02*
X94918209Y-103506519D01*
X94918209Y-103506519D02*
X95013447Y-103554138D01*
X95013447Y-103554138D02*
X95061066Y-103601757D01*
X95061066Y-103601757D02*
X95108685Y-103696995D01*
X95108685Y-103696995D02*
X95108685Y-103839852D01*
X95108685Y-103839852D02*
X95061066Y-103935090D01*
X95061066Y-103935090D02*
X95013447Y-103982709D01*
X95013447Y-103982709D02*
X94918209Y-104030328D01*
X94918209Y-104030328D02*
X94537257Y-104030328D01*
X96061066Y-104506519D02*
X95489638Y-104506519D01*
X95775352Y-104506519D02*
X95775352Y-103506519D01*
X95775352Y-103506519D02*
X95680114Y-103649376D01*
X95680114Y-103649376D02*
X95584876Y-103744614D01*
X95584876Y-103744614D02*
X95489638Y-103792233D01*
X59170219Y-73812304D02*
X59979742Y-73812304D01*
X59979742Y-73812304D02*
X60074980Y-73764685D01*
X60074980Y-73764685D02*
X60122600Y-73717066D01*
X60122600Y-73717066D02*
X60170219Y-73621828D01*
X60170219Y-73621828D02*
X60170219Y-73431352D01*
X60170219Y-73431352D02*
X60122600Y-73336114D01*
X60122600Y-73336114D02*
X60074980Y-73288495D01*
X60074980Y-73288495D02*
X59979742Y-73240876D01*
X59979742Y-73240876D02*
X59170219Y-73240876D01*
X59265457Y-72812304D02*
X59217838Y-72764685D01*
X59217838Y-72764685D02*
X59170219Y-72669447D01*
X59170219Y-72669447D02*
X59170219Y-72431352D01*
X59170219Y-72431352D02*
X59217838Y-72336114D01*
X59217838Y-72336114D02*
X59265457Y-72288495D01*
X59265457Y-72288495D02*
X59360695Y-72240876D01*
X59360695Y-72240876D02*
X59455933Y-72240876D01*
X59455933Y-72240876D02*
X59598790Y-72288495D01*
X59598790Y-72288495D02*
X60170219Y-72859923D01*
X60170219Y-72859923D02*
X60170219Y-72240876D01*
X55495988Y-80095838D02*
X55400750Y-80048219D01*
X55400750Y-80048219D02*
X55257893Y-80048219D01*
X55257893Y-80048219D02*
X55115036Y-80095838D01*
X55115036Y-80095838D02*
X55019798Y-80191076D01*
X55019798Y-80191076D02*
X54972179Y-80286314D01*
X54972179Y-80286314D02*
X54924560Y-80476790D01*
X54924560Y-80476790D02*
X54924560Y-80619647D01*
X54924560Y-80619647D02*
X54972179Y-80810123D01*
X54972179Y-80810123D02*
X55019798Y-80905361D01*
X55019798Y-80905361D02*
X55115036Y-81000600D01*
X55115036Y-81000600D02*
X55257893Y-81048219D01*
X55257893Y-81048219D02*
X55353131Y-81048219D01*
X55353131Y-81048219D02*
X55495988Y-81000600D01*
X55495988Y-81000600D02*
X55543607Y-80952980D01*
X55543607Y-80952980D02*
X55543607Y-80619647D01*
X55543607Y-80619647D02*
X55353131Y-80619647D01*
X55972179Y-81048219D02*
X55972179Y-80048219D01*
X55972179Y-80048219D02*
X56543607Y-81048219D01*
X56543607Y-81048219D02*
X56543607Y-80048219D01*
X57019798Y-81048219D02*
X57019798Y-80048219D01*
X57019798Y-80048219D02*
X57257893Y-80048219D01*
X57257893Y-80048219D02*
X57400750Y-80095838D01*
X57400750Y-80095838D02*
X57495988Y-80191076D01*
X57495988Y-80191076D02*
X57543607Y-80286314D01*
X57543607Y-80286314D02*
X57591226Y-80476790D01*
X57591226Y-80476790D02*
X57591226Y-80619647D01*
X57591226Y-80619647D02*
X57543607Y-80810123D01*
X57543607Y-80810123D02*
X57495988Y-80905361D01*
X57495988Y-80905361D02*
X57400750Y-81000600D01*
X57400750Y-81000600D02*
X57257893Y-81048219D01*
X57257893Y-81048219D02*
X57019798Y-81048219D01*
X54829322Y-72428219D02*
X55400750Y-72428219D01*
X55115036Y-73428219D02*
X55115036Y-72428219D01*
X55638846Y-72428219D02*
X56305512Y-73428219D01*
X56305512Y-72428219D02*
X55638846Y-73428219D01*
X54924560Y-75682504D02*
X55400750Y-75682504D01*
X54829322Y-75968219D02*
X55162655Y-74968219D01*
X55162655Y-74968219D02*
X55495988Y-75968219D01*
X55829322Y-74968219D02*
X55829322Y-75777742D01*
X55829322Y-75777742D02*
X55876941Y-75872980D01*
X55876941Y-75872980D02*
X55924560Y-75920600D01*
X55924560Y-75920600D02*
X56019798Y-75968219D01*
X56019798Y-75968219D02*
X56210274Y-75968219D01*
X56210274Y-75968219D02*
X56305512Y-75920600D01*
X56305512Y-75920600D02*
X56353131Y-75872980D01*
X56353131Y-75872980D02*
X56400750Y-75777742D01*
X56400750Y-75777742D02*
X56400750Y-74968219D01*
X56781703Y-74968219D02*
X57448369Y-75968219D01*
X57448369Y-74968219D02*
X56781703Y-75968219D01*
X54972179Y-65808219D02*
X54972179Y-64808219D01*
X54972179Y-64808219D02*
X55305512Y-65522504D01*
X55305512Y-65522504D02*
X55638845Y-64808219D01*
X55638845Y-64808219D02*
X55638845Y-65808219D01*
X56305512Y-64808219D02*
X56400750Y-64808219D01*
X56400750Y-64808219D02*
X56495988Y-64855838D01*
X56495988Y-64855838D02*
X56543607Y-64903457D01*
X56543607Y-64903457D02*
X56591226Y-64998695D01*
X56591226Y-64998695D02*
X56638845Y-65189171D01*
X56638845Y-65189171D02*
X56638845Y-65427266D01*
X56638845Y-65427266D02*
X56591226Y-65617742D01*
X56591226Y-65617742D02*
X56543607Y-65712980D01*
X56543607Y-65712980D02*
X56495988Y-65760600D01*
X56495988Y-65760600D02*
X56400750Y-65808219D01*
X56400750Y-65808219D02*
X56305512Y-65808219D01*
X56305512Y-65808219D02*
X56210274Y-65760600D01*
X56210274Y-65760600D02*
X56162655Y-65712980D01*
X56162655Y-65712980D02*
X56115036Y-65617742D01*
X56115036Y-65617742D02*
X56067417Y-65427266D01*
X56067417Y-65427266D02*
X56067417Y-65189171D01*
X56067417Y-65189171D02*
X56115036Y-64998695D01*
X56115036Y-64998695D02*
X56162655Y-64903457D01*
X56162655Y-64903457D02*
X56210274Y-64855838D01*
X56210274Y-64855838D02*
X56305512Y-64808219D01*
X55083322Y-77508219D02*
X55416655Y-78508219D01*
X55416655Y-78508219D02*
X55749988Y-77508219D01*
X56511893Y-78460600D02*
X56416655Y-78508219D01*
X56416655Y-78508219D02*
X56226179Y-78508219D01*
X56226179Y-78508219D02*
X56130941Y-78460600D01*
X56130941Y-78460600D02*
X56083322Y-78412980D01*
X56083322Y-78412980D02*
X56035703Y-78317742D01*
X56035703Y-78317742D02*
X56035703Y-78032028D01*
X56035703Y-78032028D02*
X56083322Y-77936790D01*
X56083322Y-77936790D02*
X56130941Y-77889171D01*
X56130941Y-77889171D02*
X56226179Y-77841552D01*
X56226179Y-77841552D02*
X56416655Y-77841552D01*
X56416655Y-77841552D02*
X56511893Y-77889171D01*
X57369036Y-78460600D02*
X57273798Y-78508219D01*
X57273798Y-78508219D02*
X57083322Y-78508219D01*
X57083322Y-78508219D02*
X56988084Y-78460600D01*
X56988084Y-78460600D02*
X56940465Y-78412980D01*
X56940465Y-78412980D02*
X56892846Y-78317742D01*
X56892846Y-78317742D02*
X56892846Y-78032028D01*
X56892846Y-78032028D02*
X56940465Y-77936790D01*
X56940465Y-77936790D02*
X56988084Y-77889171D01*
X56988084Y-77889171D02*
X57083322Y-77841552D01*
X57083322Y-77841552D02*
X57273798Y-77841552D01*
X57273798Y-77841552D02*
X57369036Y-77889171D01*
X55543607Y-70888219D02*
X55210274Y-70412028D01*
X54972179Y-70888219D02*
X54972179Y-69888219D01*
X54972179Y-69888219D02*
X55353131Y-69888219D01*
X55353131Y-69888219D02*
X55448369Y-69935838D01*
X55448369Y-69935838D02*
X55495988Y-69983457D01*
X55495988Y-69983457D02*
X55543607Y-70078695D01*
X55543607Y-70078695D02*
X55543607Y-70221552D01*
X55543607Y-70221552D02*
X55495988Y-70316790D01*
X55495988Y-70316790D02*
X55448369Y-70364409D01*
X55448369Y-70364409D02*
X55353131Y-70412028D01*
X55353131Y-70412028D02*
X54972179Y-70412028D01*
X55876941Y-69888219D02*
X56543607Y-70888219D01*
X56543607Y-69888219D02*
X55876941Y-70888219D01*
X54972179Y-68348219D02*
X54972179Y-67348219D01*
X54972179Y-67348219D02*
X55305512Y-68062504D01*
X55305512Y-68062504D02*
X55638845Y-67348219D01*
X55638845Y-67348219D02*
X55638845Y-68348219D01*
X56638845Y-68348219D02*
X56067417Y-68348219D01*
X56353131Y-68348219D02*
X56353131Y-67348219D01*
X56353131Y-67348219D02*
X56257893Y-67491076D01*
X56257893Y-67491076D02*
X56162655Y-67586314D01*
X56162655Y-67586314D02*
X56067417Y-67633933D01*
X59826905Y-105908019D02*
X59826905Y-104908019D01*
X59826905Y-104908019D02*
X60065000Y-104908019D01*
X60065000Y-104908019D02*
X60207857Y-104955638D01*
X60207857Y-104955638D02*
X60303095Y-105050876D01*
X60303095Y-105050876D02*
X60350714Y-105146114D01*
X60350714Y-105146114D02*
X60398333Y-105336590D01*
X60398333Y-105336590D02*
X60398333Y-105479447D01*
X60398333Y-105479447D02*
X60350714Y-105669923D01*
X60350714Y-105669923D02*
X60303095Y-105765161D01*
X60303095Y-105765161D02*
X60207857Y-105860400D01*
X60207857Y-105860400D02*
X60065000Y-105908019D01*
X60065000Y-105908019D02*
X59826905Y-105908019D01*
X61350714Y-105908019D02*
X60779286Y-105908019D01*
X61065000Y-105908019D02*
X61065000Y-104908019D01*
X61065000Y-104908019D02*
X60969762Y-105050876D01*
X60969762Y-105050876D02*
X60874524Y-105146114D01*
X60874524Y-105146114D02*
X60779286Y-105193733D01*
X59331266Y-96863819D02*
X59331266Y-97578104D01*
X59331266Y-97578104D02*
X59283647Y-97720961D01*
X59283647Y-97720961D02*
X59188409Y-97816200D01*
X59188409Y-97816200D02*
X59045552Y-97863819D01*
X59045552Y-97863819D02*
X58950314Y-97863819D01*
X59759838Y-96959057D02*
X59807457Y-96911438D01*
X59807457Y-96911438D02*
X59902695Y-96863819D01*
X59902695Y-96863819D02*
X60140790Y-96863819D01*
X60140790Y-96863819D02*
X60236028Y-96911438D01*
X60236028Y-96911438D02*
X60283647Y-96959057D01*
X60283647Y-96959057D02*
X60331266Y-97054295D01*
X60331266Y-97054295D02*
X60331266Y-97149533D01*
X60331266Y-97149533D02*
X60283647Y-97292390D01*
X60283647Y-97292390D02*
X59712219Y-97863819D01*
X59712219Y-97863819D02*
X60331266Y-97863819D01*
X53909933Y-100904219D02*
X53576600Y-100428028D01*
X53338505Y-100904219D02*
X53338505Y-99904219D01*
X53338505Y-99904219D02*
X53719457Y-99904219D01*
X53719457Y-99904219D02*
X53814695Y-99951838D01*
X53814695Y-99951838D02*
X53862314Y-99999457D01*
X53862314Y-99999457D02*
X53909933Y-100094695D01*
X53909933Y-100094695D02*
X53909933Y-100237552D01*
X53909933Y-100237552D02*
X53862314Y-100332790D01*
X53862314Y-100332790D02*
X53814695Y-100380409D01*
X53814695Y-100380409D02*
X53719457Y-100428028D01*
X53719457Y-100428028D02*
X53338505Y-100428028D01*
X54386124Y-100904219D02*
X54576600Y-100904219D01*
X54576600Y-100904219D02*
X54671838Y-100856600D01*
X54671838Y-100856600D02*
X54719457Y-100808980D01*
X54719457Y-100808980D02*
X54814695Y-100666123D01*
X54814695Y-100666123D02*
X54862314Y-100475647D01*
X54862314Y-100475647D02*
X54862314Y-100094695D01*
X54862314Y-100094695D02*
X54814695Y-99999457D01*
X54814695Y-99999457D02*
X54767076Y-99951838D01*
X54767076Y-99951838D02*
X54671838Y-99904219D01*
X54671838Y-99904219D02*
X54481362Y-99904219D01*
X54481362Y-99904219D02*
X54386124Y-99951838D01*
X54386124Y-99951838D02*
X54338505Y-99999457D01*
X54338505Y-99999457D02*
X54290886Y-100094695D01*
X54290886Y-100094695D02*
X54290886Y-100332790D01*
X54290886Y-100332790D02*
X54338505Y-100428028D01*
X54338505Y-100428028D02*
X54386124Y-100475647D01*
X54386124Y-100475647D02*
X54481362Y-100523266D01*
X54481362Y-100523266D02*
X54671838Y-100523266D01*
X54671838Y-100523266D02*
X54767076Y-100475647D01*
X54767076Y-100475647D02*
X54814695Y-100428028D01*
X54814695Y-100428028D02*
X54862314Y-100332790D01*
X90079533Y-107752019D02*
X89746200Y-107275828D01*
X89508105Y-107752019D02*
X89508105Y-106752019D01*
X89508105Y-106752019D02*
X89889057Y-106752019D01*
X89889057Y-106752019D02*
X89984295Y-106799638D01*
X89984295Y-106799638D02*
X90031914Y-106847257D01*
X90031914Y-106847257D02*
X90079533Y-106942495D01*
X90079533Y-106942495D02*
X90079533Y-107085352D01*
X90079533Y-107085352D02*
X90031914Y-107180590D01*
X90031914Y-107180590D02*
X89984295Y-107228209D01*
X89984295Y-107228209D02*
X89889057Y-107275828D01*
X89889057Y-107275828D02*
X89508105Y-107275828D01*
X91031914Y-107752019D02*
X90460486Y-107752019D01*
X90746200Y-107752019D02*
X90746200Y-106752019D01*
X90746200Y-106752019D02*
X90650962Y-106894876D01*
X90650962Y-106894876D02*
X90555724Y-106990114D01*
X90555724Y-106990114D02*
X90460486Y-107037733D01*
X103313580Y-94792895D02*
X102504057Y-94792895D01*
X102504057Y-94792895D02*
X102408819Y-94840514D01*
X102408819Y-94840514D02*
X102361200Y-94888133D01*
X102361200Y-94888133D02*
X102313580Y-94983371D01*
X102313580Y-94983371D02*
X102313580Y-95173847D01*
X102313580Y-95173847D02*
X102361200Y-95269085D01*
X102361200Y-95269085D02*
X102408819Y-95316704D01*
X102408819Y-95316704D02*
X102504057Y-95364323D01*
X102504057Y-95364323D02*
X103313580Y-95364323D01*
X103313580Y-95745276D02*
X103313580Y-96411942D01*
X103313580Y-96411942D02*
X102313580Y-95983371D01*
X57015142Y-100835619D02*
X56681809Y-100359428D01*
X56443714Y-100835619D02*
X56443714Y-99835619D01*
X56443714Y-99835619D02*
X56824666Y-99835619D01*
X56824666Y-99835619D02*
X56919904Y-99883238D01*
X56919904Y-99883238D02*
X56967523Y-99930857D01*
X56967523Y-99930857D02*
X57015142Y-100026095D01*
X57015142Y-100026095D02*
X57015142Y-100168952D01*
X57015142Y-100168952D02*
X56967523Y-100264190D01*
X56967523Y-100264190D02*
X56919904Y-100311809D01*
X56919904Y-100311809D02*
X56824666Y-100359428D01*
X56824666Y-100359428D02*
X56443714Y-100359428D01*
X57967523Y-100835619D02*
X57396095Y-100835619D01*
X57681809Y-100835619D02*
X57681809Y-99835619D01*
X57681809Y-99835619D02*
X57586571Y-99978476D01*
X57586571Y-99978476D02*
X57491333Y-100073714D01*
X57491333Y-100073714D02*
X57396095Y-100121333D01*
X58586571Y-99835619D02*
X58681809Y-99835619D01*
X58681809Y-99835619D02*
X58777047Y-99883238D01*
X58777047Y-99883238D02*
X58824666Y-99930857D01*
X58824666Y-99930857D02*
X58872285Y-100026095D01*
X58872285Y-100026095D02*
X58919904Y-100216571D01*
X58919904Y-100216571D02*
X58919904Y-100454666D01*
X58919904Y-100454666D02*
X58872285Y-100645142D01*
X58872285Y-100645142D02*
X58824666Y-100740380D01*
X58824666Y-100740380D02*
X58777047Y-100788000D01*
X58777047Y-100788000D02*
X58681809Y-100835619D01*
X58681809Y-100835619D02*
X58586571Y-100835619D01*
X58586571Y-100835619D02*
X58491333Y-100788000D01*
X58491333Y-100788000D02*
X58443714Y-100740380D01*
X58443714Y-100740380D02*
X58396095Y-100645142D01*
X58396095Y-100645142D02*
X58348476Y-100454666D01*
X58348476Y-100454666D02*
X58348476Y-100216571D01*
X58348476Y-100216571D02*
X58396095Y-100026095D01*
X58396095Y-100026095D02*
X58443714Y-99930857D01*
X58443714Y-99930857D02*
X58491333Y-99883238D01*
X58491333Y-99883238D02*
X58586571Y-99835619D01*
X76581095Y-57290619D02*
X76581095Y-58100142D01*
X76581095Y-58100142D02*
X76628714Y-58195380D01*
X76628714Y-58195380D02*
X76676333Y-58243000D01*
X76676333Y-58243000D02*
X76771571Y-58290619D01*
X76771571Y-58290619D02*
X76962047Y-58290619D01*
X76962047Y-58290619D02*
X77057285Y-58243000D01*
X77057285Y-58243000D02*
X77104904Y-58195380D01*
X77104904Y-58195380D02*
X77152523Y-58100142D01*
X77152523Y-58100142D02*
X77152523Y-57290619D01*
X78104904Y-57290619D02*
X77628714Y-57290619D01*
X77628714Y-57290619D02*
X77581095Y-57766809D01*
X77581095Y-57766809D02*
X77628714Y-57719190D01*
X77628714Y-57719190D02*
X77723952Y-57671571D01*
X77723952Y-57671571D02*
X77962047Y-57671571D01*
X77962047Y-57671571D02*
X78057285Y-57719190D01*
X78057285Y-57719190D02*
X78104904Y-57766809D01*
X78104904Y-57766809D02*
X78152523Y-57862047D01*
X78152523Y-57862047D02*
X78152523Y-58100142D01*
X78152523Y-58100142D02*
X78104904Y-58195380D01*
X78104904Y-58195380D02*
X78057285Y-58243000D01*
X78057285Y-58243000D02*
X77962047Y-58290619D01*
X77962047Y-58290619D02*
X77723952Y-58290619D01*
X77723952Y-58290619D02*
X77628714Y-58243000D01*
X77628714Y-58243000D02*
X77581095Y-58195380D01*
X76589095Y-98311619D02*
X76589095Y-99121142D01*
X76589095Y-99121142D02*
X76636714Y-99216380D01*
X76636714Y-99216380D02*
X76684333Y-99264000D01*
X76684333Y-99264000D02*
X76779571Y-99311619D01*
X76779571Y-99311619D02*
X76970047Y-99311619D01*
X76970047Y-99311619D02*
X77065285Y-99264000D01*
X77065285Y-99264000D02*
X77112904Y-99216380D01*
X77112904Y-99216380D02*
X77160523Y-99121142D01*
X77160523Y-99121142D02*
X77160523Y-98311619D01*
X78160523Y-99311619D02*
X77589095Y-99311619D01*
X77874809Y-99311619D02*
X77874809Y-98311619D01*
X77874809Y-98311619D02*
X77779571Y-98454476D01*
X77779571Y-98454476D02*
X77684333Y-98549714D01*
X77684333Y-98549714D02*
X77589095Y-98597333D01*
X67372580Y-88849295D02*
X66563057Y-88849295D01*
X66563057Y-88849295D02*
X66467819Y-88896914D01*
X66467819Y-88896914D02*
X66420200Y-88944533D01*
X66420200Y-88944533D02*
X66372580Y-89039771D01*
X66372580Y-89039771D02*
X66372580Y-89230247D01*
X66372580Y-89230247D02*
X66420200Y-89325485D01*
X66420200Y-89325485D02*
X66467819Y-89373104D01*
X66467819Y-89373104D02*
X66563057Y-89420723D01*
X66563057Y-89420723D02*
X67372580Y-89420723D01*
X67372580Y-89801676D02*
X67372580Y-90420723D01*
X67372580Y-90420723D02*
X66991628Y-90087390D01*
X66991628Y-90087390D02*
X66991628Y-90230247D01*
X66991628Y-90230247D02*
X66944009Y-90325485D01*
X66944009Y-90325485D02*
X66896390Y-90373104D01*
X66896390Y-90373104D02*
X66801152Y-90420723D01*
X66801152Y-90420723D02*
X66563057Y-90420723D01*
X66563057Y-90420723D02*
X66467819Y-90373104D01*
X66467819Y-90373104D02*
X66420200Y-90325485D01*
X66420200Y-90325485D02*
X66372580Y-90230247D01*
X66372580Y-90230247D02*
X66372580Y-89944533D01*
X66372580Y-89944533D02*
X66420200Y-89849295D01*
X66420200Y-89849295D02*
X66467819Y-89801676D01*
D12*
%TO.C,J1*%
X89057800Y-61987800D02*
X89057800Y-73707800D01*
X89057800Y-73707800D02*
X90477800Y-73707800D01*
X90477800Y-69207800D02*
X96617800Y-69207800D01*
X90477800Y-73707800D02*
X90477800Y-69207800D01*
X91367800Y-62597800D02*
X91367800Y-68097800D01*
X91367800Y-68097800D02*
X91867800Y-68097800D01*
X91867800Y-62597800D02*
X91367800Y-62597800D01*
X91867800Y-68097800D02*
X91867800Y-62597800D01*
X93867800Y-62597800D02*
X93867800Y-68097800D01*
X93867800Y-68097800D02*
X94367800Y-68097800D01*
X94367800Y-62597800D02*
X93867800Y-62597800D01*
X94367800Y-68097800D02*
X94367800Y-62597800D01*
X96367800Y-62597800D02*
X96367800Y-68097800D01*
X96367800Y-68097800D02*
X96867800Y-68097800D01*
X96617800Y-61987800D02*
X89057800Y-61987800D01*
X96617800Y-61987800D02*
X104177800Y-61987800D01*
X96867800Y-62597800D02*
X96367800Y-62597800D01*
X96867800Y-68097800D02*
X96867800Y-62597800D01*
X98867800Y-62597800D02*
X98867800Y-68097800D01*
X98867800Y-68097800D02*
X99367800Y-68097800D01*
X99367800Y-62597800D02*
X98867800Y-62597800D01*
X99367800Y-68097800D02*
X99367800Y-62597800D01*
X101317800Y-73397800D02*
X101617800Y-72797800D01*
X101367800Y-62597800D02*
X101367800Y-68097800D01*
X101367800Y-68097800D02*
X101867800Y-68097800D01*
X101617800Y-72797800D02*
X101917800Y-73397800D01*
X101867800Y-62597800D02*
X101367800Y-62597800D01*
X101867800Y-68097800D02*
X101867800Y-62597800D01*
X101917800Y-73397800D02*
X101317800Y-73397800D01*
X102757800Y-69207800D02*
X96617800Y-69207800D01*
X102757800Y-73707800D02*
X102757800Y-69207800D01*
X104177800Y-61987800D02*
X104177800Y-73707800D01*
X104177800Y-73707800D02*
X102757800Y-73707800D01*
%TO.C,R8*%
X64464024Y-106360700D02*
X63954576Y-106360700D01*
X64464024Y-107405700D02*
X63954576Y-107405700D01*
%TO.C,JP1*%
X92844400Y-106151700D02*
X92844400Y-105551700D01*
X93394400Y-107351700D02*
X93994400Y-107351700D01*
X93494400Y-104851700D02*
X96294400Y-104851700D01*
X93694400Y-107051700D02*
X93394400Y-107351700D01*
X93694400Y-107051700D02*
X93994400Y-107351700D01*
X96294400Y-106851700D02*
X93494400Y-106851700D01*
X96944400Y-105551700D02*
X96944400Y-106151700D01*
X92844400Y-105551700D02*
G75*
G02*
X93544400Y-104851700I699999J1D01*
G01*
X93544400Y-106851700D02*
G75*
G02*
X92844400Y-106151700I-1J699999D01*
G01*
X96244400Y-104851700D02*
G75*
G02*
X96944400Y-105551700I0J-700000D01*
G01*
X96944400Y-106151700D02*
G75*
G02*
X96244400Y-106851700I-700000J0D01*
G01*
%TO.C,U2*%
X51003400Y-62450400D02*
X87203400Y-62450400D01*
X51003400Y-83650400D02*
X51003400Y-62450400D01*
X51103400Y-79400400D02*
X54103400Y-79400400D01*
X51103400Y-81770400D02*
X54103400Y-81770400D01*
X54103400Y-79400400D02*
X54103400Y-81770400D01*
X87203400Y-83650400D02*
X51003400Y-83650400D01*
X87203400Y-83650400D02*
X87203400Y-62450400D01*
X97307400Y-83718400D02*
X97307400Y-83718400D01*
%TO.C,D1*%
X58905000Y-106148200D02*
X58905000Y-107618200D01*
X58905000Y-107618200D02*
X61365000Y-107618200D01*
X61365000Y-106148200D02*
X58905000Y-106148200D01*
%TO.C,J2*%
X51917600Y-84538600D02*
X53337600Y-84538600D01*
X51917600Y-96258600D02*
X51917600Y-84538600D01*
X53337600Y-84538600D02*
X53337600Y-89038600D01*
X53337600Y-89038600D02*
X55727600Y-89038600D01*
X54177600Y-84848600D02*
X54777600Y-84848600D01*
X54227600Y-90148600D02*
X54227600Y-95648600D01*
X54227600Y-95648600D02*
X54727600Y-95648600D01*
X54477600Y-85448600D02*
X54177600Y-84848600D01*
X54727600Y-90148600D02*
X54227600Y-90148600D01*
X54727600Y-95648600D02*
X54727600Y-90148600D01*
X54777600Y-84848600D02*
X54477600Y-85448600D01*
X55727600Y-96258600D02*
X51917600Y-96258600D01*
X55727600Y-96258600D02*
X59537600Y-96258600D01*
X56727600Y-90148600D02*
X56727600Y-95648600D01*
X56727600Y-95648600D02*
X57227600Y-95648600D01*
X57227600Y-90148600D02*
X56727600Y-90148600D01*
X57227600Y-95648600D02*
X57227600Y-90148600D01*
X58117600Y-84538600D02*
X58117600Y-89038600D01*
X58117600Y-89038600D02*
X55727600Y-89038600D01*
X59537600Y-84538600D02*
X58117600Y-84538600D01*
X59537600Y-96258600D02*
X59537600Y-84538600D01*
%TO.C,R9*%
X53821876Y-101356900D02*
X54331324Y-101356900D01*
X53821876Y-102401900D02*
X54331324Y-102401900D01*
%TO.C,R1*%
X90500924Y-105344700D02*
X89991476Y-105344700D01*
X90500924Y-106389700D02*
X89991476Y-106389700D01*
%TO.C,U7*%
X105567400Y-87300800D02*
X95567400Y-87300800D01*
X95567400Y-103300800D01*
X105567400Y-103300800D01*
X105567400Y-87300800D01*
%TO.C,R10*%
X57912724Y-101356900D02*
X57403276Y-101356900D01*
X57912724Y-102401900D02*
X57403276Y-102401900D01*
%TO.C,U5*%
X68851000Y-62065800D02*
X86851000Y-62065800D01*
X86851000Y-51065800D01*
X68851000Y-51065800D01*
X68851000Y-62065800D01*
%TO.C,U1*%
X68851000Y-109016800D02*
X86851000Y-109016800D01*
X86851000Y-88696800D01*
X68851000Y-88696800D01*
X68851000Y-109016800D01*
X74041000Y-111556800D02*
X81661000Y-111556800D01*
X81661000Y-109016800D01*
X74041000Y-109016800D01*
X74041000Y-111556800D01*
%TO.C,U3*%
X68097400Y-83896200D02*
X60477400Y-83896200D01*
X60477400Y-95326200D01*
X68097400Y-95326200D01*
X68097400Y-83896200D01*
%TD*%
M02*
