%TF.GenerationSoftware,KiCad,Pcbnew,8.0.3*%
%TF.CreationDate,2024-12-13T14:42:36+09:00*%
%TF.ProjectId,LoRaGPS,4c6f5261-4750-4532-9e6b-696361645f70,rev?*%
%TF.SameCoordinates,Original*%
%TF.FileFunction,Legend,Bot*%
%TF.FilePolarity,Positive*%
%FSLAX46Y46*%
G04 Gerber Fmt 4.6, Leading zero omitted, Abs format (unit mm)*
G04 Created by KiCad (PCBNEW 8.0.3) date 2024-12-13 14:42:36*
%MOMM*%
%LPD*%
G01*
G04 APERTURE LIST*
%ADD10C,0.100000*%
%ADD11C,0.150000*%
%ADD12C,0.120000*%
G04 APERTURE END LIST*
D10*
X103115372Y-62467408D02*
X102734420Y-62467408D01*
X102972515Y-63134075D02*
X102972515Y-62276932D01*
X102972515Y-62276932D02*
X102924896Y-62181694D01*
X102924896Y-62181694D02*
X102829658Y-62134075D01*
X102829658Y-62134075D02*
X102734420Y-62134075D01*
X102258229Y-63134075D02*
X102353467Y-63086456D01*
X102353467Y-63086456D02*
X102401086Y-62991217D01*
X102401086Y-62991217D02*
X102401086Y-62134075D01*
X101877276Y-63134075D02*
X101877276Y-62467408D01*
X101877276Y-62134075D02*
X101924895Y-62181694D01*
X101924895Y-62181694D02*
X101877276Y-62229313D01*
X101877276Y-62229313D02*
X101829657Y-62181694D01*
X101829657Y-62181694D02*
X101877276Y-62134075D01*
X101877276Y-62134075D02*
X101877276Y-62229313D01*
X100972515Y-62467408D02*
X100972515Y-63276932D01*
X100972515Y-63276932D02*
X101020134Y-63372170D01*
X101020134Y-63372170D02*
X101067753Y-63419789D01*
X101067753Y-63419789D02*
X101162991Y-63467408D01*
X101162991Y-63467408D02*
X101305848Y-63467408D01*
X101305848Y-63467408D02*
X101401086Y-63419789D01*
X100972515Y-63086456D02*
X101067753Y-63134075D01*
X101067753Y-63134075D02*
X101258229Y-63134075D01*
X101258229Y-63134075D02*
X101353467Y-63086456D01*
X101353467Y-63086456D02*
X101401086Y-63038836D01*
X101401086Y-63038836D02*
X101448705Y-62943598D01*
X101448705Y-62943598D02*
X101448705Y-62657884D01*
X101448705Y-62657884D02*
X101401086Y-62562646D01*
X101401086Y-62562646D02*
X101353467Y-62515027D01*
X101353467Y-62515027D02*
X101258229Y-62467408D01*
X101258229Y-62467408D02*
X101067753Y-62467408D01*
X101067753Y-62467408D02*
X100972515Y-62515027D01*
X100496324Y-63134075D02*
X100496324Y-62134075D01*
X100067753Y-63134075D02*
X100067753Y-62610265D01*
X100067753Y-62610265D02*
X100115372Y-62515027D01*
X100115372Y-62515027D02*
X100210610Y-62467408D01*
X100210610Y-62467408D02*
X100353467Y-62467408D01*
X100353467Y-62467408D02*
X100448705Y-62515027D01*
X100448705Y-62515027D02*
X100496324Y-62562646D01*
X99734419Y-62467408D02*
X99353467Y-62467408D01*
X99591562Y-62134075D02*
X99591562Y-62991217D01*
X99591562Y-62991217D02*
X99543943Y-63086456D01*
X99543943Y-63086456D02*
X99448705Y-63134075D01*
X99448705Y-63134075D02*
X99353467Y-63134075D01*
X97829657Y-63134075D02*
X97829657Y-62134075D01*
X97829657Y-63086456D02*
X97924895Y-63134075D01*
X97924895Y-63134075D02*
X98115371Y-63134075D01*
X98115371Y-63134075D02*
X98210609Y-63086456D01*
X98210609Y-63086456D02*
X98258228Y-63038836D01*
X98258228Y-63038836D02*
X98305847Y-62943598D01*
X98305847Y-62943598D02*
X98305847Y-62657884D01*
X98305847Y-62657884D02*
X98258228Y-62562646D01*
X98258228Y-62562646D02*
X98210609Y-62515027D01*
X98210609Y-62515027D02*
X98115371Y-62467408D01*
X98115371Y-62467408D02*
X97924895Y-62467408D01*
X97924895Y-62467408D02*
X97829657Y-62515027D01*
X96924895Y-63134075D02*
X96924895Y-62610265D01*
X96924895Y-62610265D02*
X96972514Y-62515027D01*
X96972514Y-62515027D02*
X97067752Y-62467408D01*
X97067752Y-62467408D02*
X97258228Y-62467408D01*
X97258228Y-62467408D02*
X97353466Y-62515027D01*
X96924895Y-63086456D02*
X97020133Y-63134075D01*
X97020133Y-63134075D02*
X97258228Y-63134075D01*
X97258228Y-63134075D02*
X97353466Y-63086456D01*
X97353466Y-63086456D02*
X97401085Y-62991217D01*
X97401085Y-62991217D02*
X97401085Y-62895979D01*
X97401085Y-62895979D02*
X97353466Y-62800741D01*
X97353466Y-62800741D02*
X97258228Y-62753122D01*
X97258228Y-62753122D02*
X97020133Y-62753122D01*
X97020133Y-62753122D02*
X96924895Y-62705503D01*
X96591561Y-62467408D02*
X96210609Y-62467408D01*
X96448704Y-62134075D02*
X96448704Y-62991217D01*
X96448704Y-62991217D02*
X96401085Y-63086456D01*
X96401085Y-63086456D02*
X96305847Y-63134075D01*
X96305847Y-63134075D02*
X96210609Y-63134075D01*
X95448704Y-63134075D02*
X95448704Y-62610265D01*
X95448704Y-62610265D02*
X95496323Y-62515027D01*
X95496323Y-62515027D02*
X95591561Y-62467408D01*
X95591561Y-62467408D02*
X95782037Y-62467408D01*
X95782037Y-62467408D02*
X95877275Y-62515027D01*
X95448704Y-63086456D02*
X95543942Y-63134075D01*
X95543942Y-63134075D02*
X95782037Y-63134075D01*
X95782037Y-63134075D02*
X95877275Y-63086456D01*
X95877275Y-63086456D02*
X95924894Y-62991217D01*
X95924894Y-62991217D02*
X95924894Y-62895979D01*
X95924894Y-62895979D02*
X95877275Y-62800741D01*
X95877275Y-62800741D02*
X95782037Y-62753122D01*
X95782037Y-62753122D02*
X95543942Y-62753122D01*
X95543942Y-62753122D02*
X95448704Y-62705503D01*
X94353465Y-62467408D02*
X93972513Y-62467408D01*
X94210608Y-62134075D02*
X94210608Y-62991217D01*
X94210608Y-62991217D02*
X94162989Y-63086456D01*
X94162989Y-63086456D02*
X94067751Y-63134075D01*
X94067751Y-63134075D02*
X93972513Y-63134075D01*
X93639179Y-63134075D02*
X93639179Y-62467408D01*
X93639179Y-62657884D02*
X93591560Y-62562646D01*
X93591560Y-62562646D02*
X93543941Y-62515027D01*
X93543941Y-62515027D02*
X93448703Y-62467408D01*
X93448703Y-62467408D02*
X93353465Y-62467408D01*
X92591560Y-63134075D02*
X92591560Y-62610265D01*
X92591560Y-62610265D02*
X92639179Y-62515027D01*
X92639179Y-62515027D02*
X92734417Y-62467408D01*
X92734417Y-62467408D02*
X92924893Y-62467408D01*
X92924893Y-62467408D02*
X93020131Y-62515027D01*
X92591560Y-63086456D02*
X92686798Y-63134075D01*
X92686798Y-63134075D02*
X92924893Y-63134075D01*
X92924893Y-63134075D02*
X93020131Y-63086456D01*
X93020131Y-63086456D02*
X93067750Y-62991217D01*
X93067750Y-62991217D02*
X93067750Y-62895979D01*
X93067750Y-62895979D02*
X93020131Y-62800741D01*
X93020131Y-62800741D02*
X92924893Y-62753122D01*
X92924893Y-62753122D02*
X92686798Y-62753122D01*
X92686798Y-62753122D02*
X92591560Y-62705503D01*
X92115369Y-62467408D02*
X92115369Y-63134075D01*
X92115369Y-62562646D02*
X92067750Y-62515027D01*
X92067750Y-62515027D02*
X91972512Y-62467408D01*
X91972512Y-62467408D02*
X91829655Y-62467408D01*
X91829655Y-62467408D02*
X91734417Y-62515027D01*
X91734417Y-62515027D02*
X91686798Y-62610265D01*
X91686798Y-62610265D02*
X91686798Y-63134075D01*
X91258226Y-63086456D02*
X91162988Y-63134075D01*
X91162988Y-63134075D02*
X90972512Y-63134075D01*
X90972512Y-63134075D02*
X90877274Y-63086456D01*
X90877274Y-63086456D02*
X90829655Y-62991217D01*
X90829655Y-62991217D02*
X90829655Y-62943598D01*
X90829655Y-62943598D02*
X90877274Y-62848360D01*
X90877274Y-62848360D02*
X90972512Y-62800741D01*
X90972512Y-62800741D02*
X91115369Y-62800741D01*
X91115369Y-62800741D02*
X91210607Y-62753122D01*
X91210607Y-62753122D02*
X91258226Y-62657884D01*
X91258226Y-62657884D02*
X91258226Y-62610265D01*
X91258226Y-62610265D02*
X91210607Y-62515027D01*
X91210607Y-62515027D02*
X91115369Y-62467408D01*
X91115369Y-62467408D02*
X90972512Y-62467408D01*
X90972512Y-62467408D02*
X90877274Y-62515027D01*
X90401083Y-63134075D02*
X90401083Y-62467408D01*
X90401083Y-62562646D02*
X90353464Y-62515027D01*
X90353464Y-62515027D02*
X90258226Y-62467408D01*
X90258226Y-62467408D02*
X90115369Y-62467408D01*
X90115369Y-62467408D02*
X90020131Y-62515027D01*
X90020131Y-62515027D02*
X89972512Y-62610265D01*
X89972512Y-62610265D02*
X89972512Y-63134075D01*
X89972512Y-62610265D02*
X89924893Y-62515027D01*
X89924893Y-62515027D02*
X89829655Y-62467408D01*
X89829655Y-62467408D02*
X89686798Y-62467408D01*
X89686798Y-62467408D02*
X89591559Y-62515027D01*
X89591559Y-62515027D02*
X89543940Y-62610265D01*
X89543940Y-62610265D02*
X89543940Y-63134075D01*
X89067750Y-63134075D02*
X89067750Y-62467408D01*
X89067750Y-62134075D02*
X89115369Y-62181694D01*
X89115369Y-62181694D02*
X89067750Y-62229313D01*
X89067750Y-62229313D02*
X89020131Y-62181694D01*
X89020131Y-62181694D02*
X89067750Y-62134075D01*
X89067750Y-62134075D02*
X89067750Y-62229313D01*
X88734417Y-62467408D02*
X88353465Y-62467408D01*
X88591560Y-62134075D02*
X88591560Y-62991217D01*
X88591560Y-62991217D02*
X88543941Y-63086456D01*
X88543941Y-63086456D02*
X88448703Y-63134075D01*
X88448703Y-63134075D02*
X88353465Y-63134075D01*
X88162988Y-62467408D02*
X87782036Y-62467408D01*
X88020131Y-62134075D02*
X88020131Y-62991217D01*
X88020131Y-62991217D02*
X87972512Y-63086456D01*
X87972512Y-63086456D02*
X87877274Y-63134075D01*
X87877274Y-63134075D02*
X87782036Y-63134075D01*
X87067750Y-63086456D02*
X87162988Y-63134075D01*
X87162988Y-63134075D02*
X87353464Y-63134075D01*
X87353464Y-63134075D02*
X87448702Y-63086456D01*
X87448702Y-63086456D02*
X87496321Y-62991217D01*
X87496321Y-62991217D02*
X87496321Y-62610265D01*
X87496321Y-62610265D02*
X87448702Y-62515027D01*
X87448702Y-62515027D02*
X87353464Y-62467408D01*
X87353464Y-62467408D02*
X87162988Y-62467408D01*
X87162988Y-62467408D02*
X87067750Y-62515027D01*
X87067750Y-62515027D02*
X87020131Y-62610265D01*
X87020131Y-62610265D02*
X87020131Y-62705503D01*
X87020131Y-62705503D02*
X87496321Y-62800741D01*
X86591559Y-63134075D02*
X86591559Y-62467408D01*
X86591559Y-62657884D02*
X86543940Y-62562646D01*
X86543940Y-62562646D02*
X86496321Y-62515027D01*
X86496321Y-62515027D02*
X86401083Y-62467408D01*
X86401083Y-62467408D02*
X86305845Y-62467408D01*
X85353463Y-62134075D02*
X85020130Y-63134075D01*
X85020130Y-63134075D02*
X84686797Y-62134075D01*
X83972511Y-63086456D02*
X84067749Y-63134075D01*
X84067749Y-63134075D02*
X84258225Y-63134075D01*
X84258225Y-63134075D02*
X84353463Y-63086456D01*
X84353463Y-63086456D02*
X84401082Y-62991217D01*
X84401082Y-62991217D02*
X84401082Y-62610265D01*
X84401082Y-62610265D02*
X84353463Y-62515027D01*
X84353463Y-62515027D02*
X84258225Y-62467408D01*
X84258225Y-62467408D02*
X84067749Y-62467408D01*
X84067749Y-62467408D02*
X83972511Y-62515027D01*
X83972511Y-62515027D02*
X83924892Y-62610265D01*
X83924892Y-62610265D02*
X83924892Y-62705503D01*
X83924892Y-62705503D02*
X84401082Y-62800741D01*
X83496320Y-63134075D02*
X83496320Y-62467408D01*
X83496320Y-62657884D02*
X83448701Y-62562646D01*
X83448701Y-62562646D02*
X83401082Y-62515027D01*
X83401082Y-62515027D02*
X83305844Y-62467408D01*
X83305844Y-62467408D02*
X83210606Y-62467408D01*
X82877272Y-63038836D02*
X82829653Y-63086456D01*
X82829653Y-63086456D02*
X82877272Y-63134075D01*
X82877272Y-63134075D02*
X82924891Y-63086456D01*
X82924891Y-63086456D02*
X82877272Y-63038836D01*
X82877272Y-63038836D02*
X82877272Y-63134075D01*
X81877273Y-63134075D02*
X82448701Y-63134075D01*
X82162987Y-63134075D02*
X82162987Y-62134075D01*
X82162987Y-62134075D02*
X82258225Y-62276932D01*
X82258225Y-62276932D02*
X82353463Y-62372170D01*
X82353463Y-62372170D02*
X82448701Y-62419789D01*
X102972515Y-64744019D02*
X102972515Y-63744019D01*
X102972515Y-63744019D02*
X102734420Y-63744019D01*
X102734420Y-63744019D02*
X102591563Y-63791638D01*
X102591563Y-63791638D02*
X102496325Y-63886876D01*
X102496325Y-63886876D02*
X102448706Y-63982114D01*
X102448706Y-63982114D02*
X102401087Y-64172590D01*
X102401087Y-64172590D02*
X102401087Y-64315447D01*
X102401087Y-64315447D02*
X102448706Y-64505923D01*
X102448706Y-64505923D02*
X102496325Y-64601161D01*
X102496325Y-64601161D02*
X102591563Y-64696400D01*
X102591563Y-64696400D02*
X102734420Y-64744019D01*
X102734420Y-64744019D02*
X102972515Y-64744019D01*
X101591563Y-64696400D02*
X101686801Y-64744019D01*
X101686801Y-64744019D02*
X101877277Y-64744019D01*
X101877277Y-64744019D02*
X101972515Y-64696400D01*
X101972515Y-64696400D02*
X102020134Y-64601161D01*
X102020134Y-64601161D02*
X102020134Y-64220209D01*
X102020134Y-64220209D02*
X101972515Y-64124971D01*
X101972515Y-64124971D02*
X101877277Y-64077352D01*
X101877277Y-64077352D02*
X101686801Y-64077352D01*
X101686801Y-64077352D02*
X101591563Y-64124971D01*
X101591563Y-64124971D02*
X101543944Y-64220209D01*
X101543944Y-64220209D02*
X101543944Y-64315447D01*
X101543944Y-64315447D02*
X102020134Y-64410685D01*
X101162991Y-64696400D02*
X101067753Y-64744019D01*
X101067753Y-64744019D02*
X100877277Y-64744019D01*
X100877277Y-64744019D02*
X100782039Y-64696400D01*
X100782039Y-64696400D02*
X100734420Y-64601161D01*
X100734420Y-64601161D02*
X100734420Y-64553542D01*
X100734420Y-64553542D02*
X100782039Y-64458304D01*
X100782039Y-64458304D02*
X100877277Y-64410685D01*
X100877277Y-64410685D02*
X101020134Y-64410685D01*
X101020134Y-64410685D02*
X101115372Y-64363066D01*
X101115372Y-64363066D02*
X101162991Y-64267828D01*
X101162991Y-64267828D02*
X101162991Y-64220209D01*
X101162991Y-64220209D02*
X101115372Y-64124971D01*
X101115372Y-64124971D02*
X101020134Y-64077352D01*
X101020134Y-64077352D02*
X100877277Y-64077352D01*
X100877277Y-64077352D02*
X100782039Y-64124971D01*
X100305848Y-64744019D02*
X100305848Y-64077352D01*
X100305848Y-63744019D02*
X100353467Y-63791638D01*
X100353467Y-63791638D02*
X100305848Y-63839257D01*
X100305848Y-63839257D02*
X100258229Y-63791638D01*
X100258229Y-63791638D02*
X100305848Y-63744019D01*
X100305848Y-63744019D02*
X100305848Y-63839257D01*
X99401087Y-64077352D02*
X99401087Y-64886876D01*
X99401087Y-64886876D02*
X99448706Y-64982114D01*
X99448706Y-64982114D02*
X99496325Y-65029733D01*
X99496325Y-65029733D02*
X99591563Y-65077352D01*
X99591563Y-65077352D02*
X99734420Y-65077352D01*
X99734420Y-65077352D02*
X99829658Y-65029733D01*
X99401087Y-64696400D02*
X99496325Y-64744019D01*
X99496325Y-64744019D02*
X99686801Y-64744019D01*
X99686801Y-64744019D02*
X99782039Y-64696400D01*
X99782039Y-64696400D02*
X99829658Y-64648780D01*
X99829658Y-64648780D02*
X99877277Y-64553542D01*
X99877277Y-64553542D02*
X99877277Y-64267828D01*
X99877277Y-64267828D02*
X99829658Y-64172590D01*
X99829658Y-64172590D02*
X99782039Y-64124971D01*
X99782039Y-64124971D02*
X99686801Y-64077352D01*
X99686801Y-64077352D02*
X99496325Y-64077352D01*
X99496325Y-64077352D02*
X99401087Y-64124971D01*
X98924896Y-64077352D02*
X98924896Y-64744019D01*
X98924896Y-64172590D02*
X98877277Y-64124971D01*
X98877277Y-64124971D02*
X98782039Y-64077352D01*
X98782039Y-64077352D02*
X98639182Y-64077352D01*
X98639182Y-64077352D02*
X98543944Y-64124971D01*
X98543944Y-64124971D02*
X98496325Y-64220209D01*
X98496325Y-64220209D02*
X98496325Y-64744019D01*
X97639182Y-64696400D02*
X97734420Y-64744019D01*
X97734420Y-64744019D02*
X97924896Y-64744019D01*
X97924896Y-64744019D02*
X98020134Y-64696400D01*
X98020134Y-64696400D02*
X98067753Y-64601161D01*
X98067753Y-64601161D02*
X98067753Y-64220209D01*
X98067753Y-64220209D02*
X98020134Y-64124971D01*
X98020134Y-64124971D02*
X97924896Y-64077352D01*
X97924896Y-64077352D02*
X97734420Y-64077352D01*
X97734420Y-64077352D02*
X97639182Y-64124971D01*
X97639182Y-64124971D02*
X97591563Y-64220209D01*
X97591563Y-64220209D02*
X97591563Y-64315447D01*
X97591563Y-64315447D02*
X98067753Y-64410685D01*
X96734420Y-64744019D02*
X96734420Y-63744019D01*
X96734420Y-64696400D02*
X96829658Y-64744019D01*
X96829658Y-64744019D02*
X97020134Y-64744019D01*
X97020134Y-64744019D02*
X97115372Y-64696400D01*
X97115372Y-64696400D02*
X97162991Y-64648780D01*
X97162991Y-64648780D02*
X97210610Y-64553542D01*
X97210610Y-64553542D02*
X97210610Y-64267828D01*
X97210610Y-64267828D02*
X97162991Y-64172590D01*
X97162991Y-64172590D02*
X97115372Y-64124971D01*
X97115372Y-64124971D02*
X97020134Y-64077352D01*
X97020134Y-64077352D02*
X96829658Y-64077352D01*
X96829658Y-64077352D02*
X96734420Y-64124971D01*
X95496324Y-64744019D02*
X95496324Y-63744019D01*
X95496324Y-64124971D02*
X95401086Y-64077352D01*
X95401086Y-64077352D02*
X95210610Y-64077352D01*
X95210610Y-64077352D02*
X95115372Y-64124971D01*
X95115372Y-64124971D02*
X95067753Y-64172590D01*
X95067753Y-64172590D02*
X95020134Y-64267828D01*
X95020134Y-64267828D02*
X95020134Y-64553542D01*
X95020134Y-64553542D02*
X95067753Y-64648780D01*
X95067753Y-64648780D02*
X95115372Y-64696400D01*
X95115372Y-64696400D02*
X95210610Y-64744019D01*
X95210610Y-64744019D02*
X95401086Y-64744019D01*
X95401086Y-64744019D02*
X95496324Y-64696400D01*
X94686800Y-64077352D02*
X94448705Y-64744019D01*
X94210610Y-64077352D02*
X94448705Y-64744019D01*
X94448705Y-64744019D02*
X94543943Y-64982114D01*
X94543943Y-64982114D02*
X94591562Y-65029733D01*
X94591562Y-65029733D02*
X94686800Y-65077352D01*
X93067752Y-64744019D02*
X93067752Y-63744019D01*
X92496324Y-64744019D02*
X92924895Y-64172590D01*
X92496324Y-63744019D02*
X93067752Y-64315447D01*
X92067752Y-64648780D02*
X92020133Y-64696400D01*
X92020133Y-64696400D02*
X92067752Y-64744019D01*
X92067752Y-64744019D02*
X92115371Y-64696400D01*
X92115371Y-64696400D02*
X92067752Y-64648780D01*
X92067752Y-64648780D02*
X92067752Y-64744019D01*
X91639181Y-64696400D02*
X91496324Y-64744019D01*
X91496324Y-64744019D02*
X91258229Y-64744019D01*
X91258229Y-64744019D02*
X91162991Y-64696400D01*
X91162991Y-64696400D02*
X91115372Y-64648780D01*
X91115372Y-64648780D02*
X91067753Y-64553542D01*
X91067753Y-64553542D02*
X91067753Y-64458304D01*
X91067753Y-64458304D02*
X91115372Y-64363066D01*
X91115372Y-64363066D02*
X91162991Y-64315447D01*
X91162991Y-64315447D02*
X91258229Y-64267828D01*
X91258229Y-64267828D02*
X91448705Y-64220209D01*
X91448705Y-64220209D02*
X91543943Y-64172590D01*
X91543943Y-64172590D02*
X91591562Y-64124971D01*
X91591562Y-64124971D02*
X91639181Y-64029733D01*
X91639181Y-64029733D02*
X91639181Y-63934495D01*
X91639181Y-63934495D02*
X91591562Y-63839257D01*
X91591562Y-63839257D02*
X91543943Y-63791638D01*
X91543943Y-63791638D02*
X91448705Y-63744019D01*
X91448705Y-63744019D02*
X91210610Y-63744019D01*
X91210610Y-63744019D02*
X91067753Y-63791638D01*
X90210610Y-64744019D02*
X90210610Y-64220209D01*
X90210610Y-64220209D02*
X90258229Y-64124971D01*
X90258229Y-64124971D02*
X90353467Y-64077352D01*
X90353467Y-64077352D02*
X90543943Y-64077352D01*
X90543943Y-64077352D02*
X90639181Y-64124971D01*
X90210610Y-64696400D02*
X90305848Y-64744019D01*
X90305848Y-64744019D02*
X90543943Y-64744019D01*
X90543943Y-64744019D02*
X90639181Y-64696400D01*
X90639181Y-64696400D02*
X90686800Y-64601161D01*
X90686800Y-64601161D02*
X90686800Y-64505923D01*
X90686800Y-64505923D02*
X90639181Y-64410685D01*
X90639181Y-64410685D02*
X90543943Y-64363066D01*
X90543943Y-64363066D02*
X90305848Y-64363066D01*
X90305848Y-64363066D02*
X90210610Y-64315447D01*
X89734419Y-64744019D02*
X89734419Y-63744019D01*
X89639181Y-64363066D02*
X89353467Y-64744019D01*
X89353467Y-64077352D02*
X89734419Y-64458304D01*
X88496324Y-64744019D02*
X88496324Y-64220209D01*
X88496324Y-64220209D02*
X88543943Y-64124971D01*
X88543943Y-64124971D02*
X88639181Y-64077352D01*
X88639181Y-64077352D02*
X88829657Y-64077352D01*
X88829657Y-64077352D02*
X88924895Y-64124971D01*
X88496324Y-64696400D02*
X88591562Y-64744019D01*
X88591562Y-64744019D02*
X88829657Y-64744019D01*
X88829657Y-64744019D02*
X88924895Y-64696400D01*
X88924895Y-64696400D02*
X88972514Y-64601161D01*
X88972514Y-64601161D02*
X88972514Y-64505923D01*
X88972514Y-64505923D02*
X88924895Y-64410685D01*
X88924895Y-64410685D02*
X88829657Y-64363066D01*
X88829657Y-64363066D02*
X88591562Y-64363066D01*
X88591562Y-64363066D02*
X88496324Y-64315447D01*
X88020133Y-64744019D02*
X88020133Y-64077352D01*
X88020133Y-64172590D02*
X87972514Y-64124971D01*
X87972514Y-64124971D02*
X87877276Y-64077352D01*
X87877276Y-64077352D02*
X87734419Y-64077352D01*
X87734419Y-64077352D02*
X87639181Y-64124971D01*
X87639181Y-64124971D02*
X87591562Y-64220209D01*
X87591562Y-64220209D02*
X87591562Y-64744019D01*
X87591562Y-64220209D02*
X87543943Y-64124971D01*
X87543943Y-64124971D02*
X87448705Y-64077352D01*
X87448705Y-64077352D02*
X87305848Y-64077352D01*
X87305848Y-64077352D02*
X87210609Y-64124971D01*
X87210609Y-64124971D02*
X87162990Y-64220209D01*
X87162990Y-64220209D02*
X87162990Y-64744019D01*
X86543943Y-64744019D02*
X86639181Y-64696400D01*
X86639181Y-64696400D02*
X86686800Y-64648780D01*
X86686800Y-64648780D02*
X86734419Y-64553542D01*
X86734419Y-64553542D02*
X86734419Y-64267828D01*
X86734419Y-64267828D02*
X86686800Y-64172590D01*
X86686800Y-64172590D02*
X86639181Y-64124971D01*
X86639181Y-64124971D02*
X86543943Y-64077352D01*
X86543943Y-64077352D02*
X86401086Y-64077352D01*
X86401086Y-64077352D02*
X86305848Y-64124971D01*
X86305848Y-64124971D02*
X86258229Y-64172590D01*
X86258229Y-64172590D02*
X86210610Y-64267828D01*
X86210610Y-64267828D02*
X86210610Y-64553542D01*
X86210610Y-64553542D02*
X86258229Y-64648780D01*
X86258229Y-64648780D02*
X86305848Y-64696400D01*
X86305848Y-64696400D02*
X86401086Y-64744019D01*
X86401086Y-64744019D02*
X86543943Y-64744019D01*
X85924895Y-64077352D02*
X85543943Y-64077352D01*
X85782038Y-63744019D02*
X85782038Y-64601161D01*
X85782038Y-64601161D02*
X85734419Y-64696400D01*
X85734419Y-64696400D02*
X85639181Y-64744019D01*
X85639181Y-64744019D02*
X85543943Y-64744019D01*
X85067752Y-64744019D02*
X85162990Y-64696400D01*
X85162990Y-64696400D02*
X85210609Y-64648780D01*
X85210609Y-64648780D02*
X85258228Y-64553542D01*
X85258228Y-64553542D02*
X85258228Y-64267828D01*
X85258228Y-64267828D02*
X85210609Y-64172590D01*
X85210609Y-64172590D02*
X85162990Y-64124971D01*
X85162990Y-64124971D02*
X85067752Y-64077352D01*
X85067752Y-64077352D02*
X84924895Y-64077352D01*
X84924895Y-64077352D02*
X84829657Y-64124971D01*
X84829657Y-64124971D02*
X84782038Y-64172590D01*
X84782038Y-64172590D02*
X84734419Y-64267828D01*
X84734419Y-64267828D02*
X84734419Y-64553542D01*
X84734419Y-64553542D02*
X84782038Y-64648780D01*
X84782038Y-64648780D02*
X84829657Y-64696400D01*
X84829657Y-64696400D02*
X84924895Y-64744019D01*
X84924895Y-64744019D02*
X85067752Y-64744019D01*
X63497734Y-74805600D02*
X63354877Y-74853219D01*
X63354877Y-74853219D02*
X63116782Y-74853219D01*
X63116782Y-74853219D02*
X63021544Y-74805600D01*
X63021544Y-74805600D02*
X62973925Y-74757980D01*
X62973925Y-74757980D02*
X62926306Y-74662742D01*
X62926306Y-74662742D02*
X62926306Y-74567504D01*
X62926306Y-74567504D02*
X62973925Y-74472266D01*
X62973925Y-74472266D02*
X63021544Y-74424647D01*
X63021544Y-74424647D02*
X63116782Y-74377028D01*
X63116782Y-74377028D02*
X63307258Y-74329409D01*
X63307258Y-74329409D02*
X63402496Y-74281790D01*
X63402496Y-74281790D02*
X63450115Y-74234171D01*
X63450115Y-74234171D02*
X63497734Y-74138933D01*
X63497734Y-74138933D02*
X63497734Y-74043695D01*
X63497734Y-74043695D02*
X63450115Y-73948457D01*
X63450115Y-73948457D02*
X63402496Y-73900838D01*
X63402496Y-73900838D02*
X63307258Y-73853219D01*
X63307258Y-73853219D02*
X63069163Y-73853219D01*
X63069163Y-73853219D02*
X62926306Y-73900838D01*
X61926306Y-74757980D02*
X61973925Y-74805600D01*
X61973925Y-74805600D02*
X62116782Y-74853219D01*
X62116782Y-74853219D02*
X62212020Y-74853219D01*
X62212020Y-74853219D02*
X62354877Y-74805600D01*
X62354877Y-74805600D02*
X62450115Y-74710361D01*
X62450115Y-74710361D02*
X62497734Y-74615123D01*
X62497734Y-74615123D02*
X62545353Y-74424647D01*
X62545353Y-74424647D02*
X62545353Y-74281790D01*
X62545353Y-74281790D02*
X62497734Y-74091314D01*
X62497734Y-74091314D02*
X62450115Y-73996076D01*
X62450115Y-73996076D02*
X62354877Y-73900838D01*
X62354877Y-73900838D02*
X62212020Y-73853219D01*
X62212020Y-73853219D02*
X62116782Y-73853219D01*
X62116782Y-73853219D02*
X61973925Y-73900838D01*
X61973925Y-73900838D02*
X61926306Y-73948457D01*
X61021544Y-74853219D02*
X61497734Y-74853219D01*
X61497734Y-74853219D02*
X61497734Y-73853219D01*
X69387401Y-61219675D02*
X69387401Y-61933960D01*
X69387401Y-61933960D02*
X69435020Y-62076817D01*
X69435020Y-62076817D02*
X69530258Y-62172056D01*
X69530258Y-62172056D02*
X69673115Y-62219675D01*
X69673115Y-62219675D02*
X69768353Y-62219675D01*
X68911210Y-62219675D02*
X68911210Y-61219675D01*
X68911210Y-61219675D02*
X68530258Y-61219675D01*
X68530258Y-61219675D02*
X68435020Y-61267294D01*
X68435020Y-61267294D02*
X68387401Y-61314913D01*
X68387401Y-61314913D02*
X68339782Y-61410151D01*
X68339782Y-61410151D02*
X68339782Y-61553008D01*
X68339782Y-61553008D02*
X68387401Y-61648246D01*
X68387401Y-61648246D02*
X68435020Y-61695865D01*
X68435020Y-61695865D02*
X68530258Y-61743484D01*
X68530258Y-61743484D02*
X68911210Y-61743484D01*
X67958829Y-61314913D02*
X67911210Y-61267294D01*
X67911210Y-61267294D02*
X67815972Y-61219675D01*
X67815972Y-61219675D02*
X67577877Y-61219675D01*
X67577877Y-61219675D02*
X67482639Y-61267294D01*
X67482639Y-61267294D02*
X67435020Y-61314913D01*
X67435020Y-61314913D02*
X67387401Y-61410151D01*
X67387401Y-61410151D02*
X67387401Y-61505389D01*
X67387401Y-61505389D02*
X67435020Y-61648246D01*
X67435020Y-61648246D02*
X68006448Y-62219675D01*
X68006448Y-62219675D02*
X67387401Y-62219675D01*
X66958829Y-61838722D02*
X66196925Y-61838722D01*
X65292163Y-61553008D02*
X65292163Y-62219675D01*
X65530258Y-61172056D02*
X65768353Y-61886341D01*
X65768353Y-61886341D02*
X65149306Y-61886341D01*
X64768353Y-62124436D02*
X64720734Y-62172056D01*
X64720734Y-62172056D02*
X64768353Y-62219675D01*
X64768353Y-62219675D02*
X64815972Y-62172056D01*
X64815972Y-62172056D02*
X64768353Y-62124436D01*
X64768353Y-62124436D02*
X64768353Y-62219675D01*
X64768353Y-61600627D02*
X64720734Y-61648246D01*
X64720734Y-61648246D02*
X64768353Y-61695865D01*
X64768353Y-61695865D02*
X64815972Y-61648246D01*
X64815972Y-61648246D02*
X64768353Y-61600627D01*
X64768353Y-61600627D02*
X64768353Y-61695865D01*
X64292163Y-61695865D02*
X63958830Y-61695865D01*
X63815973Y-62219675D02*
X64292163Y-62219675D01*
X64292163Y-62219675D02*
X64292163Y-61219675D01*
X64292163Y-61219675D02*
X63815973Y-61219675D01*
X63387401Y-61695865D02*
X63054068Y-61695865D01*
X62911211Y-62219675D02*
X63387401Y-62219675D01*
X63387401Y-62219675D02*
X63387401Y-61219675D01*
X63387401Y-61219675D02*
X62911211Y-61219675D01*
X62482639Y-62219675D02*
X62482639Y-61219675D01*
X62482639Y-61219675D02*
X62101687Y-61219675D01*
X62101687Y-61219675D02*
X62006449Y-61267294D01*
X62006449Y-61267294D02*
X61958830Y-61314913D01*
X61958830Y-61314913D02*
X61911211Y-61410151D01*
X61911211Y-61410151D02*
X61911211Y-61553008D01*
X61911211Y-61553008D02*
X61958830Y-61648246D01*
X61958830Y-61648246D02*
X62006449Y-61695865D01*
X62006449Y-61695865D02*
X62101687Y-61743484D01*
X62101687Y-61743484D02*
X62482639Y-61743484D01*
X60911211Y-62219675D02*
X61244544Y-61743484D01*
X61482639Y-62219675D02*
X61482639Y-61219675D01*
X61482639Y-61219675D02*
X61101687Y-61219675D01*
X61101687Y-61219675D02*
X61006449Y-61267294D01*
X61006449Y-61267294D02*
X60958830Y-61314913D01*
X60958830Y-61314913D02*
X60911211Y-61410151D01*
X60911211Y-61410151D02*
X60911211Y-61553008D01*
X60911211Y-61553008D02*
X60958830Y-61648246D01*
X60958830Y-61648246D02*
X61006449Y-61695865D01*
X61006449Y-61695865D02*
X61101687Y-61743484D01*
X61101687Y-61743484D02*
X61482639Y-61743484D01*
X60292163Y-61219675D02*
X60101687Y-61219675D01*
X60101687Y-61219675D02*
X60006449Y-61267294D01*
X60006449Y-61267294D02*
X59911211Y-61362532D01*
X59911211Y-61362532D02*
X59863592Y-61553008D01*
X59863592Y-61553008D02*
X59863592Y-61886341D01*
X59863592Y-61886341D02*
X59911211Y-62076817D01*
X59911211Y-62076817D02*
X60006449Y-62172056D01*
X60006449Y-62172056D02*
X60101687Y-62219675D01*
X60101687Y-62219675D02*
X60292163Y-62219675D01*
X60292163Y-62219675D02*
X60387401Y-62172056D01*
X60387401Y-62172056D02*
X60482639Y-62076817D01*
X60482639Y-62076817D02*
X60530258Y-61886341D01*
X60530258Y-61886341D02*
X60530258Y-61553008D01*
X60530258Y-61553008D02*
X60482639Y-61362532D01*
X60482639Y-61362532D02*
X60387401Y-61267294D01*
X60387401Y-61267294D02*
X60292163Y-61219675D01*
X59435020Y-62219675D02*
X59435020Y-61219675D01*
X59435020Y-61219675D02*
X59101687Y-61933960D01*
X59101687Y-61933960D02*
X58768354Y-61219675D01*
X58768354Y-61219675D02*
X58768354Y-62219675D01*
X57577877Y-61933960D02*
X57101687Y-61933960D01*
X57673115Y-62219675D02*
X57339782Y-61219675D01*
X57339782Y-61219675D02*
X57006449Y-62219675D01*
X56244544Y-62219675D02*
X56244544Y-61219675D01*
X56244544Y-62172056D02*
X56339782Y-62219675D01*
X56339782Y-62219675D02*
X56530258Y-62219675D01*
X56530258Y-62219675D02*
X56625496Y-62172056D01*
X56625496Y-62172056D02*
X56673115Y-62124436D01*
X56673115Y-62124436D02*
X56720734Y-62029198D01*
X56720734Y-62029198D02*
X56720734Y-61743484D01*
X56720734Y-61743484D02*
X56673115Y-61648246D01*
X56673115Y-61648246D02*
X56625496Y-61600627D01*
X56625496Y-61600627D02*
X56530258Y-61553008D01*
X56530258Y-61553008D02*
X56339782Y-61553008D01*
X56339782Y-61553008D02*
X56244544Y-61600627D01*
X55339782Y-62219675D02*
X55339782Y-61219675D01*
X55339782Y-62172056D02*
X55435020Y-62219675D01*
X55435020Y-62219675D02*
X55625496Y-62219675D01*
X55625496Y-62219675D02*
X55720734Y-62172056D01*
X55720734Y-62172056D02*
X55768353Y-62124436D01*
X55768353Y-62124436D02*
X55815972Y-62029198D01*
X55815972Y-62029198D02*
X55815972Y-61743484D01*
X55815972Y-61743484D02*
X55768353Y-61648246D01*
X55768353Y-61648246D02*
X55720734Y-61600627D01*
X55720734Y-61600627D02*
X55625496Y-61553008D01*
X55625496Y-61553008D02*
X55435020Y-61553008D01*
X55435020Y-61553008D02*
X55339782Y-61600627D01*
X54863591Y-62219675D02*
X54863591Y-61553008D01*
X54863591Y-61743484D02*
X54815972Y-61648246D01*
X54815972Y-61648246D02*
X54768353Y-61600627D01*
X54768353Y-61600627D02*
X54673115Y-61553008D01*
X54673115Y-61553008D02*
X54577877Y-61553008D01*
X69387401Y-62829619D02*
X69387401Y-63543904D01*
X69387401Y-63543904D02*
X69435020Y-63686761D01*
X69435020Y-63686761D02*
X69530258Y-63782000D01*
X69530258Y-63782000D02*
X69673115Y-63829619D01*
X69673115Y-63829619D02*
X69768353Y-63829619D01*
X68911210Y-63829619D02*
X68911210Y-62829619D01*
X68911210Y-62829619D02*
X68530258Y-62829619D01*
X68530258Y-62829619D02*
X68435020Y-62877238D01*
X68435020Y-62877238D02*
X68387401Y-62924857D01*
X68387401Y-62924857D02*
X68339782Y-63020095D01*
X68339782Y-63020095D02*
X68339782Y-63162952D01*
X68339782Y-63162952D02*
X68387401Y-63258190D01*
X68387401Y-63258190D02*
X68435020Y-63305809D01*
X68435020Y-63305809D02*
X68530258Y-63353428D01*
X68530258Y-63353428D02*
X68911210Y-63353428D01*
X67435020Y-62829619D02*
X67911210Y-62829619D01*
X67911210Y-62829619D02*
X67958829Y-63305809D01*
X67958829Y-63305809D02*
X67911210Y-63258190D01*
X67911210Y-63258190D02*
X67815972Y-63210571D01*
X67815972Y-63210571D02*
X67577877Y-63210571D01*
X67577877Y-63210571D02*
X67482639Y-63258190D01*
X67482639Y-63258190D02*
X67435020Y-63305809D01*
X67435020Y-63305809D02*
X67387401Y-63401047D01*
X67387401Y-63401047D02*
X67387401Y-63639142D01*
X67387401Y-63639142D02*
X67435020Y-63734380D01*
X67435020Y-63734380D02*
X67482639Y-63782000D01*
X67482639Y-63782000D02*
X67577877Y-63829619D01*
X67577877Y-63829619D02*
X67815972Y-63829619D01*
X67815972Y-63829619D02*
X67911210Y-63782000D01*
X67911210Y-63782000D02*
X67958829Y-63734380D01*
X66958829Y-63734380D02*
X66911210Y-63782000D01*
X66911210Y-63782000D02*
X66958829Y-63829619D01*
X66958829Y-63829619D02*
X67006448Y-63782000D01*
X67006448Y-63782000D02*
X66958829Y-63734380D01*
X66958829Y-63734380D02*
X66958829Y-63829619D01*
X66958829Y-63210571D02*
X66911210Y-63258190D01*
X66911210Y-63258190D02*
X66958829Y-63305809D01*
X66958829Y-63305809D02*
X67006448Y-63258190D01*
X67006448Y-63258190D02*
X66958829Y-63210571D01*
X66958829Y-63210571D02*
X66958829Y-63305809D01*
X65720734Y-63305809D02*
X65387401Y-63305809D01*
X65244544Y-63829619D02*
X65720734Y-63829619D01*
X65720734Y-63829619D02*
X65720734Y-62829619D01*
X65720734Y-62829619D02*
X65244544Y-62829619D01*
X64815972Y-63305809D02*
X64482639Y-63305809D01*
X64339782Y-63829619D02*
X64815972Y-63829619D01*
X64815972Y-63829619D02*
X64815972Y-62829619D01*
X64815972Y-62829619D02*
X64339782Y-62829619D01*
X63339782Y-63829619D02*
X63673115Y-63353428D01*
X63911210Y-63829619D02*
X63911210Y-62829619D01*
X63911210Y-62829619D02*
X63530258Y-62829619D01*
X63530258Y-62829619D02*
X63435020Y-62877238D01*
X63435020Y-62877238D02*
X63387401Y-62924857D01*
X63387401Y-62924857D02*
X63339782Y-63020095D01*
X63339782Y-63020095D02*
X63339782Y-63162952D01*
X63339782Y-63162952D02*
X63387401Y-63258190D01*
X63387401Y-63258190D02*
X63435020Y-63305809D01*
X63435020Y-63305809D02*
X63530258Y-63353428D01*
X63530258Y-63353428D02*
X63911210Y-63353428D01*
X62339782Y-63829619D02*
X62673115Y-63353428D01*
X62911210Y-63829619D02*
X62911210Y-62829619D01*
X62911210Y-62829619D02*
X62530258Y-62829619D01*
X62530258Y-62829619D02*
X62435020Y-62877238D01*
X62435020Y-62877238D02*
X62387401Y-62924857D01*
X62387401Y-62924857D02*
X62339782Y-63020095D01*
X62339782Y-63020095D02*
X62339782Y-63162952D01*
X62339782Y-63162952D02*
X62387401Y-63258190D01*
X62387401Y-63258190D02*
X62435020Y-63305809D01*
X62435020Y-63305809D02*
X62530258Y-63353428D01*
X62530258Y-63353428D02*
X62911210Y-63353428D01*
X61720734Y-62829619D02*
X61530258Y-62829619D01*
X61530258Y-62829619D02*
X61435020Y-62877238D01*
X61435020Y-62877238D02*
X61339782Y-62972476D01*
X61339782Y-62972476D02*
X61292163Y-63162952D01*
X61292163Y-63162952D02*
X61292163Y-63496285D01*
X61292163Y-63496285D02*
X61339782Y-63686761D01*
X61339782Y-63686761D02*
X61435020Y-63782000D01*
X61435020Y-63782000D02*
X61530258Y-63829619D01*
X61530258Y-63829619D02*
X61720734Y-63829619D01*
X61720734Y-63829619D02*
X61815972Y-63782000D01*
X61815972Y-63782000D02*
X61911210Y-63686761D01*
X61911210Y-63686761D02*
X61958829Y-63496285D01*
X61958829Y-63496285D02*
X61958829Y-63162952D01*
X61958829Y-63162952D02*
X61911210Y-62972476D01*
X61911210Y-62972476D02*
X61815972Y-62877238D01*
X61815972Y-62877238D02*
X61720734Y-62829619D01*
X60863591Y-63829619D02*
X60863591Y-62829619D01*
X60863591Y-62829619D02*
X60530258Y-63543904D01*
X60530258Y-63543904D02*
X60196925Y-62829619D01*
X60196925Y-62829619D02*
X60196925Y-63829619D01*
X59054067Y-62829619D02*
X58815972Y-63829619D01*
X58815972Y-63829619D02*
X58625496Y-63115333D01*
X58625496Y-63115333D02*
X58435020Y-63829619D01*
X58435020Y-63829619D02*
X58196925Y-62829619D01*
X57815972Y-63829619D02*
X57815972Y-62829619D01*
X57815972Y-62829619D02*
X57435020Y-62829619D01*
X57435020Y-62829619D02*
X57339782Y-62877238D01*
X57339782Y-62877238D02*
X57292163Y-62924857D01*
X57292163Y-62924857D02*
X57244544Y-63020095D01*
X57244544Y-63020095D02*
X57244544Y-63162952D01*
X57244544Y-63162952D02*
X57292163Y-63258190D01*
X57292163Y-63258190D02*
X57339782Y-63305809D01*
X57339782Y-63305809D02*
X57435020Y-63353428D01*
X57435020Y-63353428D02*
X57815972Y-63353428D01*
X63573934Y-77396400D02*
X63431077Y-77444019D01*
X63431077Y-77444019D02*
X63192982Y-77444019D01*
X63192982Y-77444019D02*
X63097744Y-77396400D01*
X63097744Y-77396400D02*
X63050125Y-77348780D01*
X63050125Y-77348780D02*
X63002506Y-77253542D01*
X63002506Y-77253542D02*
X63002506Y-77158304D01*
X63002506Y-77158304D02*
X63050125Y-77063066D01*
X63050125Y-77063066D02*
X63097744Y-77015447D01*
X63097744Y-77015447D02*
X63192982Y-76967828D01*
X63192982Y-76967828D02*
X63383458Y-76920209D01*
X63383458Y-76920209D02*
X63478696Y-76872590D01*
X63478696Y-76872590D02*
X63526315Y-76824971D01*
X63526315Y-76824971D02*
X63573934Y-76729733D01*
X63573934Y-76729733D02*
X63573934Y-76634495D01*
X63573934Y-76634495D02*
X63526315Y-76539257D01*
X63526315Y-76539257D02*
X63478696Y-76491638D01*
X63478696Y-76491638D02*
X63383458Y-76444019D01*
X63383458Y-76444019D02*
X63145363Y-76444019D01*
X63145363Y-76444019D02*
X63002506Y-76491638D01*
X62573934Y-77444019D02*
X62573934Y-76444019D01*
X62573934Y-76444019D02*
X62335839Y-76444019D01*
X62335839Y-76444019D02*
X62192982Y-76491638D01*
X62192982Y-76491638D02*
X62097744Y-76586876D01*
X62097744Y-76586876D02*
X62050125Y-76682114D01*
X62050125Y-76682114D02*
X62002506Y-76872590D01*
X62002506Y-76872590D02*
X62002506Y-77015447D01*
X62002506Y-77015447D02*
X62050125Y-77205923D01*
X62050125Y-77205923D02*
X62097744Y-77301161D01*
X62097744Y-77301161D02*
X62192982Y-77396400D01*
X62192982Y-77396400D02*
X62335839Y-77444019D01*
X62335839Y-77444019D02*
X62573934Y-77444019D01*
X61621553Y-77158304D02*
X61145363Y-77158304D01*
X61716791Y-77444019D02*
X61383458Y-76444019D01*
X61383458Y-76444019D02*
X61050125Y-77444019D01*
X102778906Y-52869638D02*
X102874144Y-52822019D01*
X102874144Y-52822019D02*
X103017001Y-52822019D01*
X103017001Y-52822019D02*
X103159858Y-52869638D01*
X103159858Y-52869638D02*
X103255096Y-52964876D01*
X103255096Y-52964876D02*
X103302715Y-53060114D01*
X103302715Y-53060114D02*
X103350334Y-53250590D01*
X103350334Y-53250590D02*
X103350334Y-53393447D01*
X103350334Y-53393447D02*
X103302715Y-53583923D01*
X103302715Y-53583923D02*
X103255096Y-53679161D01*
X103255096Y-53679161D02*
X103159858Y-53774400D01*
X103159858Y-53774400D02*
X103017001Y-53822019D01*
X103017001Y-53822019D02*
X102921763Y-53822019D01*
X102921763Y-53822019D02*
X102778906Y-53774400D01*
X102778906Y-53774400D02*
X102731287Y-53726780D01*
X102731287Y-53726780D02*
X102731287Y-53393447D01*
X102731287Y-53393447D02*
X102921763Y-53393447D01*
X102302715Y-53822019D02*
X102302715Y-52822019D01*
X102302715Y-52822019D02*
X101921763Y-52822019D01*
X101921763Y-52822019D02*
X101826525Y-52869638D01*
X101826525Y-52869638D02*
X101778906Y-52917257D01*
X101778906Y-52917257D02*
X101731287Y-53012495D01*
X101731287Y-53012495D02*
X101731287Y-53155352D01*
X101731287Y-53155352D02*
X101778906Y-53250590D01*
X101778906Y-53250590D02*
X101826525Y-53298209D01*
X101826525Y-53298209D02*
X101921763Y-53345828D01*
X101921763Y-53345828D02*
X102302715Y-53345828D01*
X101350334Y-53774400D02*
X101207477Y-53822019D01*
X101207477Y-53822019D02*
X100969382Y-53822019D01*
X100969382Y-53822019D02*
X100874144Y-53774400D01*
X100874144Y-53774400D02*
X100826525Y-53726780D01*
X100826525Y-53726780D02*
X100778906Y-53631542D01*
X100778906Y-53631542D02*
X100778906Y-53536304D01*
X100778906Y-53536304D02*
X100826525Y-53441066D01*
X100826525Y-53441066D02*
X100874144Y-53393447D01*
X100874144Y-53393447D02*
X100969382Y-53345828D01*
X100969382Y-53345828D02*
X101159858Y-53298209D01*
X101159858Y-53298209D02*
X101255096Y-53250590D01*
X101255096Y-53250590D02*
X101302715Y-53202971D01*
X101302715Y-53202971D02*
X101350334Y-53107733D01*
X101350334Y-53107733D02*
X101350334Y-53012495D01*
X101350334Y-53012495D02*
X101302715Y-52917257D01*
X101302715Y-52917257D02*
X101255096Y-52869638D01*
X101255096Y-52869638D02*
X101159858Y-52822019D01*
X101159858Y-52822019D02*
X100921763Y-52822019D01*
X100921763Y-52822019D02*
X100778906Y-52869638D01*
X99731286Y-52822019D02*
X99397953Y-53822019D01*
X99397953Y-53822019D02*
X99064620Y-52822019D01*
X98302715Y-53774400D02*
X98397953Y-53822019D01*
X98397953Y-53822019D02*
X98588429Y-53822019D01*
X98588429Y-53822019D02*
X98683667Y-53774400D01*
X98683667Y-53774400D02*
X98731286Y-53726780D01*
X98731286Y-53726780D02*
X98778905Y-53631542D01*
X98778905Y-53631542D02*
X98778905Y-53345828D01*
X98778905Y-53345828D02*
X98731286Y-53250590D01*
X98731286Y-53250590D02*
X98683667Y-53202971D01*
X98683667Y-53202971D02*
X98588429Y-53155352D01*
X98588429Y-53155352D02*
X98397953Y-53155352D01*
X98397953Y-53155352D02*
X98302715Y-53202971D01*
X97445572Y-53774400D02*
X97540810Y-53822019D01*
X97540810Y-53822019D02*
X97731286Y-53822019D01*
X97731286Y-53822019D02*
X97826524Y-53774400D01*
X97826524Y-53774400D02*
X97874143Y-53726780D01*
X97874143Y-53726780D02*
X97921762Y-53631542D01*
X97921762Y-53631542D02*
X97921762Y-53345828D01*
X97921762Y-53345828D02*
X97874143Y-53250590D01*
X97874143Y-53250590D02*
X97826524Y-53202971D01*
X97826524Y-53202971D02*
X97731286Y-53155352D01*
X97731286Y-53155352D02*
X97540810Y-53155352D01*
X97540810Y-53155352D02*
X97445572Y-53202971D01*
X63440572Y-68722419D02*
X63107239Y-69722419D01*
X63107239Y-69722419D02*
X62773906Y-68722419D01*
X62012001Y-69674800D02*
X62107239Y-69722419D01*
X62107239Y-69722419D02*
X62297715Y-69722419D01*
X62297715Y-69722419D02*
X62392953Y-69674800D01*
X62392953Y-69674800D02*
X62440572Y-69627180D01*
X62440572Y-69627180D02*
X62488191Y-69531942D01*
X62488191Y-69531942D02*
X62488191Y-69246228D01*
X62488191Y-69246228D02*
X62440572Y-69150990D01*
X62440572Y-69150990D02*
X62392953Y-69103371D01*
X62392953Y-69103371D02*
X62297715Y-69055752D01*
X62297715Y-69055752D02*
X62107239Y-69055752D01*
X62107239Y-69055752D02*
X62012001Y-69103371D01*
X61154858Y-69674800D02*
X61250096Y-69722419D01*
X61250096Y-69722419D02*
X61440572Y-69722419D01*
X61440572Y-69722419D02*
X61535810Y-69674800D01*
X61535810Y-69674800D02*
X61583429Y-69627180D01*
X61583429Y-69627180D02*
X61631048Y-69531942D01*
X61631048Y-69531942D02*
X61631048Y-69246228D01*
X61631048Y-69246228D02*
X61583429Y-69150990D01*
X61583429Y-69150990D02*
X61535810Y-69103371D01*
X61535810Y-69103371D02*
X61440572Y-69055752D01*
X61440572Y-69055752D02*
X61250096Y-69055752D01*
X61250096Y-69055752D02*
X61154858Y-69103371D01*
X102864553Y-54727019D02*
X102245506Y-54727019D01*
X102245506Y-54727019D02*
X102578839Y-55107971D01*
X102578839Y-55107971D02*
X102435982Y-55107971D01*
X102435982Y-55107971D02*
X102340744Y-55155590D01*
X102340744Y-55155590D02*
X102293125Y-55203209D01*
X102293125Y-55203209D02*
X102245506Y-55298447D01*
X102245506Y-55298447D02*
X102245506Y-55536542D01*
X102245506Y-55536542D02*
X102293125Y-55631780D01*
X102293125Y-55631780D02*
X102340744Y-55679400D01*
X102340744Y-55679400D02*
X102435982Y-55727019D01*
X102435982Y-55727019D02*
X102721696Y-55727019D01*
X102721696Y-55727019D02*
X102816934Y-55679400D01*
X102816934Y-55679400D02*
X102864553Y-55631780D01*
X101959791Y-54727019D02*
X101626458Y-55727019D01*
X101626458Y-55727019D02*
X101293125Y-54727019D01*
X101055029Y-54727019D02*
X100435982Y-54727019D01*
X100435982Y-54727019D02*
X100769315Y-55107971D01*
X100769315Y-55107971D02*
X100626458Y-55107971D01*
X100626458Y-55107971D02*
X100531220Y-55155590D01*
X100531220Y-55155590D02*
X100483601Y-55203209D01*
X100483601Y-55203209D02*
X100435982Y-55298447D01*
X100435982Y-55298447D02*
X100435982Y-55536542D01*
X100435982Y-55536542D02*
X100483601Y-55631780D01*
X100483601Y-55631780D02*
X100531220Y-55679400D01*
X100531220Y-55679400D02*
X100626458Y-55727019D01*
X100626458Y-55727019D02*
X100912172Y-55727019D01*
X100912172Y-55727019D02*
X101007410Y-55679400D01*
X101007410Y-55679400D02*
X101055029Y-55631780D01*
X98769315Y-54727019D02*
X99245505Y-54727019D01*
X99245505Y-54727019D02*
X99293124Y-55203209D01*
X99293124Y-55203209D02*
X99245505Y-55155590D01*
X99245505Y-55155590D02*
X99150267Y-55107971D01*
X99150267Y-55107971D02*
X98912172Y-55107971D01*
X98912172Y-55107971D02*
X98816934Y-55155590D01*
X98816934Y-55155590D02*
X98769315Y-55203209D01*
X98769315Y-55203209D02*
X98721696Y-55298447D01*
X98721696Y-55298447D02*
X98721696Y-55536542D01*
X98721696Y-55536542D02*
X98769315Y-55631780D01*
X98769315Y-55631780D02*
X98816934Y-55679400D01*
X98816934Y-55679400D02*
X98912172Y-55727019D01*
X98912172Y-55727019D02*
X99150267Y-55727019D01*
X99150267Y-55727019D02*
X99245505Y-55679400D01*
X99245505Y-55679400D02*
X99293124Y-55631780D01*
X98435981Y-54727019D02*
X98102648Y-55727019D01*
X98102648Y-55727019D02*
X97769315Y-54727019D01*
D11*
X77866933Y-78579219D02*
X77866933Y-79293504D01*
X77866933Y-79293504D02*
X77914552Y-79436361D01*
X77914552Y-79436361D02*
X78009790Y-79531600D01*
X78009790Y-79531600D02*
X78152647Y-79579219D01*
X78152647Y-79579219D02*
X78247885Y-79579219D01*
X77390742Y-79579219D02*
X77390742Y-78579219D01*
X77390742Y-78579219D02*
X77009790Y-78579219D01*
X77009790Y-78579219D02*
X76914552Y-78626838D01*
X76914552Y-78626838D02*
X76866933Y-78674457D01*
X76866933Y-78674457D02*
X76819314Y-78769695D01*
X76819314Y-78769695D02*
X76819314Y-78912552D01*
X76819314Y-78912552D02*
X76866933Y-79007790D01*
X76866933Y-79007790D02*
X76914552Y-79055409D01*
X76914552Y-79055409D02*
X77009790Y-79103028D01*
X77009790Y-79103028D02*
X77390742Y-79103028D01*
X75914552Y-78579219D02*
X76390742Y-78579219D01*
X76390742Y-78579219D02*
X76438361Y-79055409D01*
X76438361Y-79055409D02*
X76390742Y-79007790D01*
X76390742Y-79007790D02*
X76295504Y-78960171D01*
X76295504Y-78960171D02*
X76057409Y-78960171D01*
X76057409Y-78960171D02*
X75962171Y-79007790D01*
X75962171Y-79007790D02*
X75914552Y-79055409D01*
X75914552Y-79055409D02*
X75866933Y-79150647D01*
X75866933Y-79150647D02*
X75866933Y-79388742D01*
X75866933Y-79388742D02*
X75914552Y-79483980D01*
X75914552Y-79483980D02*
X75962171Y-79531600D01*
X75962171Y-79531600D02*
X76057409Y-79579219D01*
X76057409Y-79579219D02*
X76295504Y-79579219D01*
X76295504Y-79579219D02*
X76390742Y-79531600D01*
X76390742Y-79531600D02*
X76438361Y-79483980D01*
X101036333Y-58775919D02*
X101036333Y-59490204D01*
X101036333Y-59490204D02*
X101083952Y-59633061D01*
X101083952Y-59633061D02*
X101179190Y-59728300D01*
X101179190Y-59728300D02*
X101322047Y-59775919D01*
X101322047Y-59775919D02*
X101417285Y-59775919D01*
X100560142Y-59775919D02*
X100560142Y-58775919D01*
X100560142Y-58775919D02*
X100179190Y-58775919D01*
X100179190Y-58775919D02*
X100083952Y-58823538D01*
X100083952Y-58823538D02*
X100036333Y-58871157D01*
X100036333Y-58871157D02*
X99988714Y-58966395D01*
X99988714Y-58966395D02*
X99988714Y-59109252D01*
X99988714Y-59109252D02*
X100036333Y-59204490D01*
X100036333Y-59204490D02*
X100083952Y-59252109D01*
X100083952Y-59252109D02*
X100179190Y-59299728D01*
X100179190Y-59299728D02*
X100560142Y-59299728D01*
X99131571Y-58775919D02*
X99322047Y-58775919D01*
X99322047Y-58775919D02*
X99417285Y-58823538D01*
X99417285Y-58823538D02*
X99464904Y-58871157D01*
X99464904Y-58871157D02*
X99560142Y-59014014D01*
X99560142Y-59014014D02*
X99607761Y-59204490D01*
X99607761Y-59204490D02*
X99607761Y-59585442D01*
X99607761Y-59585442D02*
X99560142Y-59680680D01*
X99560142Y-59680680D02*
X99512523Y-59728300D01*
X99512523Y-59728300D02*
X99417285Y-59775919D01*
X99417285Y-59775919D02*
X99226809Y-59775919D01*
X99226809Y-59775919D02*
X99131571Y-59728300D01*
X99131571Y-59728300D02*
X99083952Y-59680680D01*
X99083952Y-59680680D02*
X99036333Y-59585442D01*
X99036333Y-59585442D02*
X99036333Y-59347347D01*
X99036333Y-59347347D02*
X99083952Y-59252109D01*
X99083952Y-59252109D02*
X99131571Y-59204490D01*
X99131571Y-59204490D02*
X99226809Y-59156871D01*
X99226809Y-59156871D02*
X99417285Y-59156871D01*
X99417285Y-59156871D02*
X99512523Y-59204490D01*
X99512523Y-59204490D02*
X99560142Y-59252109D01*
X99560142Y-59252109D02*
X99607761Y-59347347D01*
X81624466Y-66131619D02*
X81957799Y-65655428D01*
X82195894Y-66131619D02*
X82195894Y-65131619D01*
X82195894Y-65131619D02*
X81814942Y-65131619D01*
X81814942Y-65131619D02*
X81719704Y-65179238D01*
X81719704Y-65179238D02*
X81672085Y-65226857D01*
X81672085Y-65226857D02*
X81624466Y-65322095D01*
X81624466Y-65322095D02*
X81624466Y-65464952D01*
X81624466Y-65464952D02*
X81672085Y-65560190D01*
X81672085Y-65560190D02*
X81719704Y-65607809D01*
X81719704Y-65607809D02*
X81814942Y-65655428D01*
X81814942Y-65655428D02*
X82195894Y-65655428D01*
X81243513Y-65226857D02*
X81195894Y-65179238D01*
X81195894Y-65179238D02*
X81100656Y-65131619D01*
X81100656Y-65131619D02*
X80862561Y-65131619D01*
X80862561Y-65131619D02*
X80767323Y-65179238D01*
X80767323Y-65179238D02*
X80719704Y-65226857D01*
X80719704Y-65226857D02*
X80672085Y-65322095D01*
X80672085Y-65322095D02*
X80672085Y-65417333D01*
X80672085Y-65417333D02*
X80719704Y-65560190D01*
X80719704Y-65560190D02*
X81291132Y-66131619D01*
X81291132Y-66131619D02*
X80672085Y-66131619D01*
X81624466Y-70729019D02*
X81957799Y-70252828D01*
X82195894Y-70729019D02*
X82195894Y-69729019D01*
X82195894Y-69729019D02*
X81814942Y-69729019D01*
X81814942Y-69729019D02*
X81719704Y-69776638D01*
X81719704Y-69776638D02*
X81672085Y-69824257D01*
X81672085Y-69824257D02*
X81624466Y-69919495D01*
X81624466Y-69919495D02*
X81624466Y-70062352D01*
X81624466Y-70062352D02*
X81672085Y-70157590D01*
X81672085Y-70157590D02*
X81719704Y-70205209D01*
X81719704Y-70205209D02*
X81814942Y-70252828D01*
X81814942Y-70252828D02*
X82195894Y-70252828D01*
X81291132Y-69729019D02*
X80672085Y-69729019D01*
X80672085Y-69729019D02*
X81005418Y-70109971D01*
X81005418Y-70109971D02*
X80862561Y-70109971D01*
X80862561Y-70109971D02*
X80767323Y-70157590D01*
X80767323Y-70157590D02*
X80719704Y-70205209D01*
X80719704Y-70205209D02*
X80672085Y-70300447D01*
X80672085Y-70300447D02*
X80672085Y-70538542D01*
X80672085Y-70538542D02*
X80719704Y-70633780D01*
X80719704Y-70633780D02*
X80767323Y-70681400D01*
X80767323Y-70681400D02*
X80862561Y-70729019D01*
X80862561Y-70729019D02*
X81148275Y-70729019D01*
X81148275Y-70729019D02*
X81243513Y-70681400D01*
X81243513Y-70681400D02*
X81291132Y-70633780D01*
X81624466Y-79956819D02*
X81957799Y-79480628D01*
X82195894Y-79956819D02*
X82195894Y-78956819D01*
X82195894Y-78956819D02*
X81814942Y-78956819D01*
X81814942Y-78956819D02*
X81719704Y-79004438D01*
X81719704Y-79004438D02*
X81672085Y-79052057D01*
X81672085Y-79052057D02*
X81624466Y-79147295D01*
X81624466Y-79147295D02*
X81624466Y-79290152D01*
X81624466Y-79290152D02*
X81672085Y-79385390D01*
X81672085Y-79385390D02*
X81719704Y-79433009D01*
X81719704Y-79433009D02*
X81814942Y-79480628D01*
X81814942Y-79480628D02*
X82195894Y-79480628D01*
X81291132Y-78956819D02*
X80624466Y-78956819D01*
X80624466Y-78956819D02*
X81053037Y-79956819D01*
X77876133Y-73956419D02*
X77876133Y-74670704D01*
X77876133Y-74670704D02*
X77923752Y-74813561D01*
X77923752Y-74813561D02*
X78018990Y-74908800D01*
X78018990Y-74908800D02*
X78161847Y-74956419D01*
X78161847Y-74956419D02*
X78257085Y-74956419D01*
X77399942Y-74956419D02*
X77399942Y-73956419D01*
X77399942Y-73956419D02*
X77018990Y-73956419D01*
X77018990Y-73956419D02*
X76923752Y-74004038D01*
X76923752Y-74004038D02*
X76876133Y-74051657D01*
X76876133Y-74051657D02*
X76828514Y-74146895D01*
X76828514Y-74146895D02*
X76828514Y-74289752D01*
X76828514Y-74289752D02*
X76876133Y-74384990D01*
X76876133Y-74384990D02*
X76923752Y-74432609D01*
X76923752Y-74432609D02*
X77018990Y-74480228D01*
X77018990Y-74480228D02*
X77399942Y-74480228D01*
X75971371Y-74289752D02*
X75971371Y-74956419D01*
X76209466Y-73908800D02*
X76447561Y-74623085D01*
X76447561Y-74623085D02*
X75828514Y-74623085D01*
X78003133Y-64761619D02*
X78003133Y-65475904D01*
X78003133Y-65475904D02*
X78050752Y-65618761D01*
X78050752Y-65618761D02*
X78145990Y-65714000D01*
X78145990Y-65714000D02*
X78288847Y-65761619D01*
X78288847Y-65761619D02*
X78384085Y-65761619D01*
X77526942Y-65761619D02*
X77526942Y-64761619D01*
X77526942Y-64761619D02*
X77145990Y-64761619D01*
X77145990Y-64761619D02*
X77050752Y-64809238D01*
X77050752Y-64809238D02*
X77003133Y-64856857D01*
X77003133Y-64856857D02*
X76955514Y-64952095D01*
X76955514Y-64952095D02*
X76955514Y-65094952D01*
X76955514Y-65094952D02*
X77003133Y-65190190D01*
X77003133Y-65190190D02*
X77050752Y-65237809D01*
X77050752Y-65237809D02*
X77145990Y-65285428D01*
X77145990Y-65285428D02*
X77526942Y-65285428D01*
X76574561Y-64856857D02*
X76526942Y-64809238D01*
X76526942Y-64809238D02*
X76431704Y-64761619D01*
X76431704Y-64761619D02*
X76193609Y-64761619D01*
X76193609Y-64761619D02*
X76098371Y-64809238D01*
X76098371Y-64809238D02*
X76050752Y-64856857D01*
X76050752Y-64856857D02*
X76003133Y-64952095D01*
X76003133Y-64952095D02*
X76003133Y-65047333D01*
X76003133Y-65047333D02*
X76050752Y-65190190D01*
X76050752Y-65190190D02*
X76622180Y-65761619D01*
X76622180Y-65761619D02*
X76003133Y-65761619D01*
X77876133Y-69359019D02*
X77876133Y-70073304D01*
X77876133Y-70073304D02*
X77923752Y-70216161D01*
X77923752Y-70216161D02*
X78018990Y-70311400D01*
X78018990Y-70311400D02*
X78161847Y-70359019D01*
X78161847Y-70359019D02*
X78257085Y-70359019D01*
X77399942Y-70359019D02*
X77399942Y-69359019D01*
X77399942Y-69359019D02*
X77018990Y-69359019D01*
X77018990Y-69359019D02*
X76923752Y-69406638D01*
X76923752Y-69406638D02*
X76876133Y-69454257D01*
X76876133Y-69454257D02*
X76828514Y-69549495D01*
X76828514Y-69549495D02*
X76828514Y-69692352D01*
X76828514Y-69692352D02*
X76876133Y-69787590D01*
X76876133Y-69787590D02*
X76923752Y-69835209D01*
X76923752Y-69835209D02*
X77018990Y-69882828D01*
X77018990Y-69882828D02*
X77399942Y-69882828D01*
X76495180Y-69359019D02*
X75876133Y-69359019D01*
X75876133Y-69359019D02*
X76209466Y-69739971D01*
X76209466Y-69739971D02*
X76066609Y-69739971D01*
X76066609Y-69739971D02*
X75971371Y-69787590D01*
X75971371Y-69787590D02*
X75923752Y-69835209D01*
X75923752Y-69835209D02*
X75876133Y-69930447D01*
X75876133Y-69930447D02*
X75876133Y-70168542D01*
X75876133Y-70168542D02*
X75923752Y-70263780D01*
X75923752Y-70263780D02*
X75971371Y-70311400D01*
X75971371Y-70311400D02*
X76066609Y-70359019D01*
X76066609Y-70359019D02*
X76352323Y-70359019D01*
X76352323Y-70359019D02*
X76447561Y-70311400D01*
X76447561Y-70311400D02*
X76495180Y-70263780D01*
X69992304Y-66375219D02*
X69992304Y-67184742D01*
X69992304Y-67184742D02*
X69944685Y-67279980D01*
X69944685Y-67279980D02*
X69897066Y-67327600D01*
X69897066Y-67327600D02*
X69801828Y-67375219D01*
X69801828Y-67375219D02*
X69611352Y-67375219D01*
X69611352Y-67375219D02*
X69516114Y-67327600D01*
X69516114Y-67327600D02*
X69468495Y-67279980D01*
X69468495Y-67279980D02*
X69420876Y-67184742D01*
X69420876Y-67184742D02*
X69420876Y-66375219D01*
X68516114Y-66708552D02*
X68516114Y-67375219D01*
X68754209Y-66327600D02*
X68992304Y-67041885D01*
X68992304Y-67041885D02*
X68373257Y-67041885D01*
X81624466Y-75326419D02*
X81957799Y-74850228D01*
X82195894Y-75326419D02*
X82195894Y-74326419D01*
X82195894Y-74326419D02*
X81814942Y-74326419D01*
X81814942Y-74326419D02*
X81719704Y-74374038D01*
X81719704Y-74374038D02*
X81672085Y-74421657D01*
X81672085Y-74421657D02*
X81624466Y-74516895D01*
X81624466Y-74516895D02*
X81624466Y-74659752D01*
X81624466Y-74659752D02*
X81672085Y-74754990D01*
X81672085Y-74754990D02*
X81719704Y-74802609D01*
X81719704Y-74802609D02*
X81814942Y-74850228D01*
X81814942Y-74850228D02*
X82195894Y-74850228D01*
X80767323Y-74659752D02*
X80767323Y-75326419D01*
X81005418Y-74278800D02*
X81243513Y-74993085D01*
X81243513Y-74993085D02*
X80624466Y-74993085D01*
D12*
%TO.C,JP5*%
X74983600Y-81224400D02*
X74983600Y-80624400D01*
X75633600Y-79924400D02*
X78433600Y-79924400D01*
X77933600Y-82424400D02*
X78233600Y-82124400D01*
X77933600Y-82424400D02*
X78533600Y-82424400D01*
X78433600Y-81924400D02*
X75633600Y-81924400D01*
X78533600Y-82424400D02*
X78233600Y-82124400D01*
X79083600Y-80624400D02*
X79083600Y-81224400D01*
X74983600Y-80624400D02*
G75*
G02*
X75683600Y-79924400I700000J0D01*
G01*
X75683600Y-81924400D02*
G75*
G02*
X74983600Y-81224400I0J700000D01*
G01*
X78383600Y-79924400D02*
G75*
G02*
X79083600Y-80624400I1J-699999D01*
G01*
X79083600Y-81224400D02*
G75*
G02*
X78383600Y-81924400I-699999J-1D01*
G01*
%TO.C,JP6*%
X98153000Y-56521100D02*
X102253000Y-56521100D01*
X98153000Y-58521100D02*
X98153000Y-56521100D01*
X98603000Y-56021100D02*
X98903000Y-56321100D01*
X99203000Y-56021100D02*
X98603000Y-56021100D01*
X99203000Y-56021100D02*
X98903000Y-56321100D01*
X102253000Y-56521100D02*
X102253000Y-58521100D01*
X102253000Y-58521100D02*
X98153000Y-58521100D01*
%TO.C,R2*%
X81203076Y-66584300D02*
X81712524Y-66584300D01*
X81203076Y-67629300D02*
X81712524Y-67629300D01*
%TO.C,R3*%
X81203076Y-71181700D02*
X81712524Y-71181700D01*
X81203076Y-72226700D02*
X81712524Y-72226700D01*
%TO.C,R7*%
X81712524Y-80401900D02*
X81203076Y-80401900D01*
X81712524Y-81446900D02*
X81203076Y-81446900D01*
%TO.C,JP4*%
X74992800Y-76601600D02*
X74992800Y-76001600D01*
X75642800Y-75301600D02*
X78442800Y-75301600D01*
X77942800Y-77801600D02*
X78242800Y-77501600D01*
X77942800Y-77801600D02*
X78542800Y-77801600D01*
X78442800Y-77301600D02*
X75642800Y-77301600D01*
X78542800Y-77801600D02*
X78242800Y-77501600D01*
X79092800Y-76001600D02*
X79092800Y-76601600D01*
X74992800Y-76001600D02*
G75*
G02*
X75692800Y-75301600I700000J0D01*
G01*
X75692800Y-77301600D02*
G75*
G02*
X74992800Y-76601600I0J700000D01*
G01*
X78392800Y-75301600D02*
G75*
G02*
X79092800Y-76001600I1J-699999D01*
G01*
X79092800Y-76601600D02*
G75*
G02*
X78392800Y-77301600I-699999J-1D01*
G01*
%TO.C,JP2*%
X75119800Y-67406800D02*
X75119800Y-66806800D01*
X75769800Y-66106800D02*
X78569800Y-66106800D01*
X78069800Y-68606800D02*
X78369800Y-68306800D01*
X78069800Y-68606800D02*
X78669800Y-68606800D01*
X78569800Y-68106800D02*
X75769800Y-68106800D01*
X78669800Y-68606800D02*
X78369800Y-68306800D01*
X79219800Y-66806800D02*
X79219800Y-67406800D01*
X75119800Y-66806800D02*
G75*
G02*
X75819800Y-66106800I700000J0D01*
G01*
X75819800Y-68106800D02*
G75*
G02*
X75119800Y-67406800I0J700000D01*
G01*
X78519800Y-66106800D02*
G75*
G02*
X79219800Y-66806800I1J-699999D01*
G01*
X79219800Y-67406800D02*
G75*
G02*
X78519800Y-68106800I-699999J-1D01*
G01*
%TO.C,JP3*%
X74992800Y-72004200D02*
X74992800Y-71404200D01*
X75642800Y-70704200D02*
X78442800Y-70704200D01*
X77942800Y-73204200D02*
X78242800Y-72904200D01*
X77942800Y-73204200D02*
X78542800Y-73204200D01*
X78442800Y-72704200D02*
X75642800Y-72704200D01*
X78542800Y-73204200D02*
X78242800Y-72904200D01*
X79092800Y-71404200D02*
X79092800Y-72004200D01*
X74992800Y-71404200D02*
G75*
G02*
X75692800Y-70704200I700000J0D01*
G01*
X75692800Y-72704200D02*
G75*
G02*
X74992800Y-72004200I0J700000D01*
G01*
X78392800Y-70704200D02*
G75*
G02*
X79092800Y-71404200I1J-699999D01*
G01*
X79092800Y-72004200D02*
G75*
G02*
X78392800Y-72704200I-699999J-1D01*
G01*
%TO.C,U4*%
X66580400Y-67920400D02*
X66580400Y-78200400D01*
X66580400Y-78200400D02*
X71880400Y-78200400D01*
X68230400Y-67920400D02*
X66580400Y-67920400D01*
X71880400Y-67920400D02*
X70230400Y-67920400D01*
X71880400Y-78200400D02*
X71880400Y-67920400D01*
X70230400Y-67920400D02*
G75*
G02*
X68230400Y-67920400I-1000000J0D01*
G01*
%TO.C,R4*%
X81203076Y-75779100D02*
X81712524Y-75779100D01*
X81203076Y-76824100D02*
X81712524Y-76824100D01*
%TD*%
M02*
