%TF.GenerationSoftware,KiCad,Pcbnew,8.0.3*%
%TF.CreationDate,2024-12-13T14:42:36+09:00*%
%TF.ProjectId,LoRaGPS,4c6f5261-4750-4532-9e6b-696361645f70,rev?*%
%TF.SameCoordinates,Original*%
%TF.FileFunction,Profile,NP*%
%FSLAX46Y46*%
G04 Gerber Fmt 4.6, Leading zero omitted, Abs format (unit mm)*
G04 Created by KiCad (PCBNEW 8.0.3) date 2024-12-13 14:42:36*
%MOMM*%
%LPD*%
G01*
G04 APERTURE LIST*
%TA.AperFunction,Profile*%
%ADD10C,0.050000*%
%TD*%
G04 APERTURE END LIST*
D10*
X50799781Y-51841181D02*
G75*
G02*
X51841181Y-50799781I1041419J-19D01*
G01*
X51841181Y-104140219D02*
X56616819Y-104139781D01*
X103759219Y-86359781D02*
G75*
G02*
X104800619Y-87401181I-19J-1041419D01*
G01*
X88899781Y-77241181D02*
G75*
G02*
X89941181Y-76199781I1041419J-19D01*
G01*
X89941181Y-76199781D02*
X103759219Y-76200219D01*
X56616819Y-104139781D02*
G75*
G02*
X57658219Y-105181181I-19J-1041419D01*
G01*
X104800619Y-103098819D02*
G75*
G02*
X103759219Y-104140219I-1041419J19D01*
G01*
X89941181Y-86360219D02*
G75*
G02*
X88899781Y-85318819I19J1041419D01*
G01*
X99060219Y-108178819D02*
G75*
G02*
X98018819Y-109220219I-1041419J19D01*
G01*
X103759219Y-50799781D02*
G75*
G02*
X104800619Y-51841181I-19J-1041419D01*
G01*
X104800619Y-75158819D02*
G75*
G02*
X103759219Y-76200219I-1041419J19D01*
G01*
X88899781Y-85318819D02*
X88899781Y-77241181D01*
X58699181Y-109220219D02*
X98018819Y-109220219D01*
X58699181Y-109220219D02*
G75*
G02*
X57657781Y-108178819I19J1041419D01*
G01*
X57658219Y-105181181D02*
X57657781Y-108178819D01*
X50799781Y-103098819D02*
X50799781Y-51841181D01*
X103759219Y-86359781D02*
X89941181Y-86360219D01*
X100101181Y-104139781D02*
X103759219Y-104140219D01*
X51841181Y-50799781D02*
X103759219Y-50799781D01*
X104800619Y-87401181D02*
X104800619Y-103098819D01*
X51841181Y-104140219D02*
G75*
G02*
X50799781Y-103098819I19J1041419D01*
G01*
X104800619Y-51841181D02*
X104800619Y-75158819D01*
X99060219Y-108178819D02*
X99059781Y-105181181D01*
X99059781Y-105181181D02*
G75*
G02*
X100101181Y-104139781I1041419J-19D01*
G01*
M02*
