%TF.GenerationSoftware,KiCad,Pcbnew,8.0.3*%
%TF.CreationDate,2024-12-13T14:42:35+09:00*%
%TF.ProjectId,LoRaGPS,4c6f5261-4750-4532-9e6b-696361645f70,rev?*%
%TF.SameCoordinates,Original*%
%TF.FileFunction,Copper,L2,Bot*%
%TF.FilePolarity,Positive*%
%FSLAX46Y46*%
G04 Gerber Fmt 4.6, Leading zero omitted, Abs format (unit mm)*
G04 Created by KiCad (PCBNEW 8.0.3) date 2024-12-13 14:42:35*
%MOMM*%
%LPD*%
G01*
G04 APERTURE LIST*
G04 Aperture macros list*
%AMRoundRect*
0 Rectangle with rounded corners*
0 $1 Rounding radius*
0 $2 $3 $4 $5 $6 $7 $8 $9 X,Y pos of 4 corners*
0 Add a 4 corners polygon primitive as box body*
4,1,4,$2,$3,$4,$5,$6,$7,$8,$9,$2,$3,0*
0 Add four circle primitives for the rounded corners*
1,1,$1+$1,$2,$3*
1,1,$1+$1,$4,$5*
1,1,$1+$1,$6,$7*
1,1,$1+$1,$8,$9*
0 Add four rect primitives between the rounded corners*
20,1,$1+$1,$2,$3,$4,$5,0*
20,1,$1+$1,$4,$5,$6,$7,0*
20,1,$1+$1,$6,$7,$8,$9,0*
20,1,$1+$1,$8,$9,$2,$3,0*%
%AMFreePoly0*
4,1,19,0.550000,-0.750000,0.000000,-0.750000,0.000000,-0.744911,-0.071157,-0.744911,-0.207708,-0.704816,-0.327430,-0.627875,-0.420627,-0.520320,-0.479746,-0.390866,-0.500000,-0.250000,-0.500000,0.250000,-0.479746,0.390866,-0.420627,0.520320,-0.327430,0.627875,-0.207708,0.704816,-0.071157,0.744911,0.000000,0.744911,0.000000,0.750000,0.550000,0.750000,0.550000,-0.750000,0.550000,-0.750000,
$1*%
%AMFreePoly1*
4,1,19,0.000000,0.744911,0.071157,0.744911,0.207708,0.704816,0.327430,0.627875,0.420627,0.520320,0.479746,0.390866,0.500000,0.250000,0.500000,-0.250000,0.479746,-0.390866,0.420627,-0.520320,0.327430,-0.627875,0.207708,-0.704816,0.071157,-0.744911,0.000000,-0.744911,0.000000,-0.750000,-0.550000,-0.750000,-0.550000,0.750000,0.000000,0.750000,0.000000,0.744911,0.000000,0.744911,
$1*%
G04 Aperture macros list end*
%TA.AperFunction,EtchedComponent*%
%ADD10C,0.000000*%
%TD*%
%TA.AperFunction,ComponentPad*%
%ADD11RoundRect,0.250000X0.600000X0.725000X-0.600000X0.725000X-0.600000X-0.725000X0.600000X-0.725000X0*%
%TD*%
%TA.AperFunction,ComponentPad*%
%ADD12O,1.700000X1.950000*%
%TD*%
%TA.AperFunction,ComponentPad*%
%ADD13O,2.000000X1.200000*%
%TD*%
%TA.AperFunction,ComponentPad*%
%ADD14RoundRect,0.250000X-0.600000X-0.750000X0.600000X-0.750000X0.600000X0.750000X-0.600000X0.750000X0*%
%TD*%
%TA.AperFunction,ComponentPad*%
%ADD15O,1.700000X2.000000*%
%TD*%
%TA.AperFunction,ComponentPad*%
%ADD16C,1.524000*%
%TD*%
%TA.AperFunction,SMDPad,CuDef*%
%ADD17FreePoly0,180.000000*%
%TD*%
%TA.AperFunction,SMDPad,CuDef*%
%ADD18R,1.000000X1.500000*%
%TD*%
%TA.AperFunction,SMDPad,CuDef*%
%ADD19FreePoly1,180.000000*%
%TD*%
%TA.AperFunction,SMDPad,CuDef*%
%ADD20RoundRect,0.237500X0.250000X0.237500X-0.250000X0.237500X-0.250000X-0.237500X0.250000X-0.237500X0*%
%TD*%
%TA.AperFunction,SMDPad,CuDef*%
%ADD21RoundRect,0.237500X-0.250000X-0.237500X0.250000X-0.237500X0.250000X0.237500X-0.250000X0.237500X0*%
%TD*%
%TA.AperFunction,ComponentPad*%
%ADD22R,1.600000X1.600000*%
%TD*%
%TA.AperFunction,ComponentPad*%
%ADD23O,1.600000X1.600000*%
%TD*%
%TA.AperFunction,ViaPad*%
%ADD24C,0.600000*%
%TD*%
%TA.AperFunction,Conductor*%
%ADD25C,0.500000*%
%TD*%
%TA.AperFunction,Conductor*%
%ADD26C,1.000000*%
%TD*%
G04 APERTURE END LIST*
D10*
%TA.AperFunction,EtchedComponent*%
%TO.C,JP5*%
G36*
X77933600Y-81224400D02*
G01*
X77433600Y-81224400D01*
X77433600Y-80624400D01*
X77933600Y-80624400D01*
X77933600Y-81224400D01*
G37*
%TD.AperFunction*%
%TA.AperFunction,EtchedComponent*%
%TO.C,JP4*%
G36*
X77942800Y-76601600D02*
G01*
X77442800Y-76601600D01*
X77442800Y-76001600D01*
X77942800Y-76001600D01*
X77942800Y-76601600D01*
G37*
%TD.AperFunction*%
%TA.AperFunction,EtchedComponent*%
%TO.C,JP2*%
G36*
X78069800Y-67406800D02*
G01*
X77569800Y-67406800D01*
X77569800Y-66806800D01*
X78069800Y-66806800D01*
X78069800Y-67406800D01*
G37*
%TD.AperFunction*%
%TA.AperFunction,EtchedComponent*%
%TO.C,JP3*%
G36*
X77942800Y-72004200D02*
G01*
X77442800Y-72004200D01*
X77442800Y-71404200D01*
X77942800Y-71404200D01*
X77942800Y-72004200D01*
G37*
%TD.AperFunction*%
%TD*%
D11*
%TO.P,J1,1,Pin_1*%
%TO.N,Net-(J1-Pin_1)*%
X101617800Y-71297800D03*
D12*
%TO.P,J1,2,Pin_2*%
%TO.N,GND*%
X99117800Y-71297800D03*
%TO.P,J1,3,Pin_3*%
%TO.N,GPS_RX-ESP_TX*%
X96617800Y-71297800D03*
%TO.P,J1,4,Pin_4*%
%TO.N,GPS_TX-ESP_RX*%
X94117800Y-71297800D03*
%TO.P,J1,5,Pin_5*%
%TO.N,PPS*%
X91617800Y-71297800D03*
%TD*%
D13*
%TO.P,U2,1,GND*%
%TO.N,GND*%
X52603400Y-80670400D03*
%TO.P,U2,2,Vcc*%
%TO.N,+3V3*%
X52603400Y-78130400D03*
%TO.P,U2,3,AUX*%
%TO.N,LoRa-AUX*%
X52603400Y-75590400D03*
%TO.P,U2,4,TX*%
%TO.N,LoRa_RX-ESP_TX*%
X52603400Y-73050400D03*
%TO.P,U2,5,RX*%
%TO.N,LoRa_TX-ESP_RX*%
X52603400Y-70510400D03*
%TO.P,U2,6,M1*%
%TO.N,LoRa_M1*%
X52603400Y-67970400D03*
%TO.P,U2,7,M0*%
%TO.N,LoRa_M0*%
X52603400Y-65430400D03*
%TD*%
D14*
%TO.P,J2,1,Pin_1*%
%TO.N,+9V*%
X54477600Y-86948600D03*
D15*
%TO.P,J2,2,Pin_2*%
%TO.N,GND*%
X56977600Y-86948600D03*
%TD*%
D16*
%TO.P,U7,1,Pin_1*%
%TO.N,+3V3*%
X96926400Y-88950800D03*
%TO.P,U7,2,Pin_2*%
%TO.N,GND*%
X96926400Y-91490800D03*
%TO.P,U7,3,Pin_3*%
%TO.N,+3V3*%
X96926400Y-94030800D03*
%TO.P,U7,4,Pin_4*%
%TO.N,SDA*%
X96926400Y-96570800D03*
%TO.P,U7,5,Pin_5*%
%TO.N,Net-(JP1-C)*%
X96926400Y-99110800D03*
%TO.P,U7,6,Pin_6*%
%TO.N,SCL*%
X96926400Y-101650800D03*
%TD*%
%TO.P,U5,1,Pin_1*%
%TO.N,+3V3*%
X74041000Y-60375800D03*
%TO.P,U5,2,Pin_2*%
%TO.N,GND*%
X76581000Y-60375800D03*
%TO.P,U5,3,Pin_3*%
%TO.N,SDA*%
X79121000Y-60375800D03*
%TO.P,U5,4,Pin_4*%
%TO.N,SCL*%
X81661000Y-60375800D03*
%TO.P,U5,5,Pin_5*%
%TO.N,bRESET*%
X81661000Y-52755800D03*
%TO.P,U5,6,Pin_6*%
%TO.N,INT*%
X79121000Y-52755800D03*
%TO.P,U5,7,Pin_7*%
%TO.N,GND*%
X76581000Y-52755800D03*
%TO.P,U5,8,Pin_8*%
%TO.N,unconnected-(U5-Pin_8-Pad8)*%
X74041000Y-52755800D03*
%TD*%
%TO.P,U1,1,0*%
%TO.N,LoRa_RX-ESP_TX*%
X70231000Y-107746800D03*
%TO.P,U1,2,1*%
%TO.N,LoRa_TX-ESP_RX*%
X70231000Y-105206800D03*
%TO.P,U1,3,2*%
%TO.N,SDA*%
X70231000Y-102666800D03*
%TO.P,U1,4,3*%
%TO.N,SCL*%
X70231000Y-100126800D03*
%TO.P,U1,5,4*%
%TO.N,GPS_RX-ESP_TX*%
X70231000Y-97586800D03*
%TO.P,U1,6,5*%
%TO.N,GPS_TX-ESP_RX*%
X70231000Y-95046800D03*
%TO.P,U1,7,6*%
%TO.N,INT*%
X70231000Y-92506800D03*
%TO.P,U1,8,7*%
%TO.N,bRESET*%
X70231000Y-89966800D03*
%TO.P,U1,9,GND*%
%TO.N,GND*%
X85471000Y-89966800D03*
%TO.P,U1,10,A0*%
%TO.N,Batt_Voltage*%
X85471000Y-92506800D03*
%TO.P,U1,11,A1*%
%TO.N,LoRa_M1*%
X85471000Y-95046800D03*
%TO.P,U1,12,A2*%
%TO.N,LoRa_M0*%
X85471000Y-97586800D03*
%TO.P,U1,13,A3*%
%TO.N,LoRa-AUX*%
X85471000Y-100126800D03*
%TO.P,U1,14,3V3*%
%TO.N,+3V3*%
X85471000Y-102666800D03*
%TO.P,U1,15,GND*%
%TO.N,GND*%
X85471000Y-105206800D03*
%TO.P,U1,16,VBUS*%
%TO.N,+5V*%
X85471000Y-107746800D03*
%TD*%
%TO.P,U3,1,+VIN*%
%TO.N,+9V*%
X62509400Y-87071200D03*
%TO.P,U3,2,GND*%
%TO.N,GND*%
X62509400Y-89611200D03*
%TO.P,U3,3,+VOUT*%
%TO.N,+3V3*%
X62509400Y-92151200D03*
%TD*%
D17*
%TO.P,JP5,1,A*%
%TO.N,Net-(JP5-A)*%
X78333600Y-80924400D03*
D18*
%TO.P,JP5,2,C*%
%TO.N,Net-(JP5-C)*%
X77033600Y-80924400D03*
D19*
%TO.P,JP5,3,B*%
%TO.N,+3V3*%
X75733600Y-80924400D03*
%TD*%
D18*
%TO.P,JP6,1,A*%
%TO.N,+3V3*%
X98903000Y-57521100D03*
%TO.P,JP6,2,C*%
%TO.N,Net-(J1-Pin_1)*%
X100203000Y-57521100D03*
%TO.P,JP6,3,B*%
%TO.N,+5V*%
X101503000Y-57521100D03*
%TD*%
D20*
%TO.P,R2,1*%
%TO.N,GND*%
X82370300Y-67106800D03*
%TO.P,R2,2*%
%TO.N,Net-(JP2-A)*%
X80545300Y-67106800D03*
%TD*%
%TO.P,R3,1*%
%TO.N,GND*%
X82370300Y-71704200D03*
%TO.P,R3,2*%
%TO.N,Net-(JP3-A)*%
X80545300Y-71704200D03*
%TD*%
D21*
%TO.P,R7,1*%
%TO.N,Net-(JP5-A)*%
X80545300Y-80924400D03*
%TO.P,R7,2*%
%TO.N,GND*%
X82370300Y-80924400D03*
%TD*%
D17*
%TO.P,JP4,1,A*%
%TO.N,Net-(JP4-A)*%
X78342800Y-76301600D03*
D18*
%TO.P,JP4,2,C*%
%TO.N,Net-(JP4-C)*%
X77042800Y-76301600D03*
D19*
%TO.P,JP4,3,B*%
%TO.N,+3V3*%
X75742800Y-76301600D03*
%TD*%
D17*
%TO.P,JP2,1,A*%
%TO.N,Net-(JP2-A)*%
X78469800Y-67106800D03*
D18*
%TO.P,JP2,2,C*%
%TO.N,Net-(JP2-C)*%
X77169800Y-67106800D03*
D19*
%TO.P,JP2,3,B*%
%TO.N,+3V3*%
X75869800Y-67106800D03*
%TD*%
D17*
%TO.P,JP3,1,A*%
%TO.N,Net-(JP3-A)*%
X78342800Y-71704200D03*
D18*
%TO.P,JP3,2,C*%
%TO.N,Net-(JP3-C)*%
X77042800Y-71704200D03*
D19*
%TO.P,JP3,3,B*%
%TO.N,+3V3*%
X75742800Y-71704200D03*
%TD*%
D22*
%TO.P,U4,1,Pin_1*%
%TO.N,Net-(JP2-C)*%
X73040400Y-69250400D03*
D23*
%TO.P,U4,2,Pin_2*%
%TO.N,Net-(JP3-C)*%
X73040400Y-71790400D03*
%TO.P,U4,3,Pin_3*%
%TO.N,Net-(JP4-C)*%
X73040400Y-74330400D03*
%TO.P,U4,4,Pin_4*%
%TO.N,GND*%
X73040400Y-76870400D03*
%TO.P,U4,5,Pin_5*%
%TO.N,SDA*%
X65420400Y-76870400D03*
%TO.P,U4,6,Pin_6*%
%TO.N,SCL*%
X65420400Y-74330400D03*
%TO.P,U4,7,Pin_7*%
%TO.N,Net-(JP5-C)*%
X65420400Y-71790400D03*
%TO.P,U4,8,Pin_8*%
%TO.N,+3V3*%
X65420400Y-69250400D03*
%TD*%
D20*
%TO.P,R4,1*%
%TO.N,GND*%
X82370300Y-76301600D03*
%TO.P,R4,2*%
%TO.N,Net-(JP4-A)*%
X80545300Y-76301600D03*
%TD*%
D24*
%TO.N,GND*%
X89611200Y-93167200D03*
X56642000Y-81940400D03*
X59309000Y-65303400D03*
X92151200Y-93192600D03*
X68605400Y-75565000D03*
X59207400Y-59461400D03*
X62763400Y-81915000D03*
X94970600Y-64871600D03*
X80670400Y-64109600D03*
X89712800Y-64922400D03*
X73558400Y-63830200D03*
%TO.N,PPS*%
X86868000Y-86334600D03*
%TO.N,+3V3*%
X98907600Y-59817000D03*
%TO.N,LoRa_M0*%
X76835000Y-84607400D03*
X62001400Y-74777600D03*
%TO.N,INT*%
X80746600Y-83642200D03*
%TO.N,LoRa_M1*%
X61036200Y-75844400D03*
X76835000Y-85750400D03*
%TO.N,bRESET*%
X80721200Y-84734400D03*
%TO.N,LoRa-AUX*%
X76835000Y-86944200D03*
X59080400Y-78206600D03*
%TD*%
D25*
%TO.N,GND*%
X76581000Y-60375800D02*
X77793000Y-59163800D01*
X85471000Y-75481122D02*
X85471000Y-89966800D01*
X82905600Y-66571500D02*
X82370300Y-67106800D01*
X82905600Y-59906373D02*
X82905600Y-66571500D01*
X76581000Y-52755800D02*
X76581000Y-60375800D01*
X77793000Y-59163800D02*
X82163027Y-59163800D01*
X82163027Y-59163800D02*
X82905600Y-59906373D01*
X97692800Y-69872800D02*
X91079322Y-69872800D01*
X91079322Y-69872800D02*
X85471000Y-75481122D01*
X99117800Y-71297800D02*
X97692800Y-69872800D01*
X82370300Y-67106800D02*
X82370300Y-80924400D01*
%TO.N,PPS*%
X86868000Y-76047600D02*
X86868000Y-86334600D01*
X91617800Y-71297800D02*
X86868000Y-76047600D01*
%TO.N,Net-(J1-Pin_1)*%
X100203000Y-69883000D02*
X101617800Y-71297800D01*
X100203000Y-57521100D02*
X100203000Y-69883000D01*
D26*
%TO.N,+9V*%
X60932000Y-88648600D02*
X62509400Y-87071200D01*
X56177600Y-88648600D02*
X60932000Y-88648600D01*
X54477600Y-86948600D02*
X56177600Y-88648600D01*
D25*
%TO.N,+3V3*%
X66670400Y-70500400D02*
X71170800Y-70500400D01*
D26*
X63971400Y-85866200D02*
X63971400Y-90689200D01*
X63971400Y-90689200D02*
X62509400Y-92151200D01*
D25*
X74539000Y-70500400D02*
X75742800Y-71704200D01*
X71170800Y-70500400D02*
X71170800Y-68620000D01*
X75742800Y-76301600D02*
X75742800Y-80915200D01*
X71170800Y-68620000D02*
X72684000Y-67106800D01*
D26*
X52603400Y-78130400D02*
X56235600Y-78130400D01*
D25*
X72684000Y-67106800D02*
X75869800Y-67106800D01*
D26*
X56235600Y-78130400D02*
X63971400Y-85866200D01*
D25*
X71170800Y-70500400D02*
X71170800Y-74228567D01*
X75742800Y-80915200D02*
X75733600Y-80924400D01*
X98907600Y-57525700D02*
X98903000Y-57521100D01*
X65420400Y-69250400D02*
X66670400Y-70500400D01*
X71170800Y-70500400D02*
X74539000Y-70500400D01*
X98907600Y-59817000D02*
X98907600Y-57525700D01*
X72522633Y-75580400D02*
X75021600Y-75580400D01*
X75021600Y-75580400D02*
X75742800Y-76301600D01*
X71170800Y-74228567D02*
X72522633Y-75580400D01*
%TO.N,Net-(JP2-C)*%
X76276200Y-69250400D02*
X77169800Y-68356800D01*
X73040400Y-69250400D02*
X76276200Y-69250400D01*
X77169800Y-68356800D02*
X77169800Y-67106800D01*
%TO.N,Net-(JP2-A)*%
X78469800Y-67106800D02*
X80545300Y-67106800D01*
%TO.N,Net-(JP3-C)*%
X76920200Y-72909200D02*
X77042800Y-72786600D01*
X77042800Y-72786600D02*
X77042800Y-71704200D01*
X74159200Y-72909200D02*
X76920200Y-72909200D01*
X73040400Y-71790400D02*
X74159200Y-72909200D01*
%TO.N,Net-(JP3-A)*%
X78342800Y-71704200D02*
X80545300Y-71704200D01*
%TO.N,Net-(JP4-C)*%
X75715068Y-74330400D02*
X77042800Y-75658132D01*
X73040400Y-74330400D02*
X75715068Y-74330400D01*
X77042800Y-75658132D02*
X77042800Y-76301600D01*
%TO.N,Net-(JP4-A)*%
X78342800Y-76301600D02*
X80545300Y-76301600D01*
%TO.N,Net-(JP5-C)*%
X76472068Y-82129400D02*
X77033600Y-81567868D01*
X75332591Y-82129400D02*
X76472068Y-82129400D01*
X70470800Y-77267609D02*
X75332591Y-82129400D01*
X70470800Y-72567800D02*
X70470800Y-77267609D01*
X65420400Y-71790400D02*
X69693400Y-71790400D01*
X77033600Y-81567868D02*
X77033600Y-80924400D01*
X69693400Y-71790400D02*
X70470800Y-72567800D01*
%TO.N,Net-(JP5-A)*%
X78333600Y-80924400D02*
X80545300Y-80924400D01*
%TO.N,+5V*%
X98838400Y-102442777D02*
X93858788Y-107422388D01*
X85471000Y-107746800D02*
X93534376Y-107746800D01*
X88137342Y-86051917D02*
X89208083Y-87122658D01*
X89208083Y-87122658D02*
X96812285Y-87122658D01*
X101334739Y-73902739D02*
X102997000Y-72240478D01*
X90742686Y-73902739D02*
X88137342Y-76508083D01*
X93534376Y-107746800D02*
X93858788Y-107422388D01*
X96812285Y-87122658D02*
X98838400Y-89148773D01*
X88137342Y-76508083D02*
X88137342Y-86051917D01*
X98838400Y-89148773D02*
X98838400Y-102442777D01*
X101334739Y-73902739D02*
X90742686Y-73902739D01*
X102997000Y-72240478D02*
X102997000Y-59015100D01*
X102997000Y-59015100D02*
X101503000Y-57521100D01*
%TO.N,LoRa_TX-ESP_RX*%
X68572500Y-79462400D02*
X73544200Y-84434100D01*
X62900950Y-79462400D02*
X68572500Y-79462400D01*
X73544200Y-95351600D02*
X72637000Y-96258800D01*
X68249800Y-103225600D02*
X70231000Y-105206800D01*
X72637000Y-96258800D02*
X69844973Y-96258800D01*
X53948950Y-70510400D02*
X62900950Y-79462400D01*
X68249800Y-97853973D02*
X68249800Y-103225600D01*
X52603400Y-70510400D02*
X53948950Y-70510400D01*
X69844973Y-96258800D02*
X68249800Y-97853973D01*
X73544200Y-84434100D02*
X73544200Y-95351600D01*
%TO.N,LoRa_M0*%
X61950600Y-74777600D02*
X62001400Y-74777600D01*
X78285000Y-90959600D02*
X80568800Y-93243400D01*
X78285000Y-86057400D02*
X78285000Y-90959600D01*
X76835000Y-84607400D02*
X78285000Y-86057400D01*
X62001400Y-74828400D02*
X61976000Y-74803000D01*
X80568800Y-93243400D02*
X81044200Y-93718800D01*
X86784600Y-94646373D02*
X86784600Y-96273200D01*
X81044200Y-93718800D02*
X85857027Y-93718800D01*
X52603400Y-65430400D02*
X61950600Y-74777600D01*
X62001400Y-74777600D02*
X62001400Y-74828400D01*
X86784600Y-96273200D02*
X85471000Y-97586800D01*
X85857027Y-93718800D02*
X86784600Y-94646373D01*
%TO.N,SCL*%
X96926400Y-101650800D02*
X96614400Y-101338800D01*
X76135000Y-65901800D02*
X67001233Y-65901800D01*
X64170400Y-68732633D02*
X64170400Y-73080400D01*
X74955400Y-98679000D02*
X73507600Y-100126800D01*
X96614400Y-101338800D02*
X74719600Y-101338800D01*
X67001233Y-65901800D02*
X64170400Y-68732633D01*
X73507600Y-100126800D02*
X70231000Y-100126800D01*
X81661000Y-60375800D02*
X76135000Y-65901800D01*
X65420400Y-74330400D02*
X74955400Y-83865400D01*
X74719600Y-101338800D02*
X73507600Y-100126800D01*
X64170400Y-73080400D02*
X65420400Y-74330400D01*
X74955400Y-83865400D02*
X74955400Y-98679000D01*
%TO.N,LoRa_RX-ESP_TX*%
X71708400Y-93718800D02*
X69806400Y-93718800D01*
X62611000Y-80162400D02*
X68282550Y-80162400D01*
X72844200Y-84724050D02*
X72844200Y-92583000D01*
X69806400Y-93718800D02*
X67549800Y-95975400D01*
X67549800Y-95975400D02*
X67549800Y-105065600D01*
X52603400Y-73050400D02*
X55499000Y-73050400D01*
X72844200Y-92583000D02*
X71708400Y-93718800D01*
X55499000Y-73050400D02*
X62611000Y-80162400D01*
X68282550Y-80162400D02*
X72844200Y-84724050D01*
X67549800Y-105065600D02*
X70231000Y-107746800D01*
%TO.N,INT*%
X83605600Y-57240400D02*
X83605600Y-81155454D01*
X79121000Y-52755800D02*
X83605600Y-57240400D01*
X81118854Y-83642200D02*
X80746600Y-83642200D01*
X83605600Y-81155454D02*
X81118854Y-83642200D01*
%TO.N,LoRa_M1*%
X81304750Y-95046800D02*
X80454175Y-94196225D01*
X61036200Y-75869800D02*
X61010800Y-75844400D01*
X61036200Y-75844400D02*
X61036200Y-75869800D01*
X53136800Y-67970400D02*
X61010800Y-75844400D01*
X61010800Y-75844400D02*
X61036200Y-75844400D01*
X76835000Y-85750400D02*
X77585000Y-86500400D01*
X85471000Y-95046800D02*
X81304750Y-95046800D01*
X52603400Y-67970400D02*
X53136800Y-67970400D01*
X77585000Y-91327050D02*
X80454175Y-94196225D01*
X77585000Y-86500400D02*
X77585000Y-91327050D01*
%TO.N,bRESET*%
X82196204Y-83564196D02*
X81026000Y-84734400D01*
X84305600Y-81445403D02*
X84007800Y-81743204D01*
X84305600Y-81445404D02*
X84094702Y-81656302D01*
X84305600Y-55400400D02*
X84305600Y-81445404D01*
X81026000Y-84734400D02*
X80721200Y-84734400D01*
X81661000Y-52755800D02*
X84305600Y-55400400D01*
X84007800Y-81743204D02*
X82196204Y-83554800D01*
X82196204Y-83554800D02*
X82196204Y-83564196D01*
%TO.N,LoRa-AUX*%
X76835000Y-86944200D02*
X76835000Y-91567000D01*
X52603400Y-75590400D02*
X56464200Y-75590400D01*
X85394800Y-100126800D02*
X85471000Y-100126800D01*
X56464200Y-75590400D02*
X59080400Y-78206600D01*
X76835000Y-91567000D02*
X85394800Y-100126800D01*
%TO.N,SDA*%
X69844973Y-98798800D02*
X69019000Y-99624773D01*
X98138400Y-102152827D02*
X93872427Y-106418800D01*
X66711283Y-65201800D02*
X63470400Y-68442683D01*
X65420400Y-76870400D02*
X66970450Y-76870400D01*
X63470400Y-68442683D02*
X63470400Y-74920400D01*
X98138400Y-97782800D02*
X98138400Y-102152827D01*
X93872427Y-106418800D02*
X73983000Y-106418800D01*
X74244200Y-84144150D02*
X74244200Y-98400250D01*
X69019000Y-101454800D02*
X70231000Y-102666800D01*
X73983000Y-106418800D02*
X70231000Y-102666800D01*
X74244200Y-98400250D02*
X73845650Y-98798800D01*
X96926400Y-96570800D02*
X98138400Y-97782800D01*
X79121000Y-60375800D02*
X74295000Y-65201800D01*
X74295000Y-65201800D02*
X66711283Y-65201800D01*
X69019000Y-99624773D02*
X69019000Y-101454800D01*
X73845650Y-98798800D02*
X69844973Y-98798800D01*
X63470400Y-74920400D02*
X65420400Y-76870400D01*
X66970450Y-76870400D02*
X74244200Y-84144150D01*
%TD*%
%TA.AperFunction,Conductor*%
%TO.N,GND*%
G36*
X59961627Y-78574978D02*
G01*
X59969066Y-78581834D01*
X62132586Y-80745354D01*
X62162058Y-80765045D01*
X62206270Y-80794586D01*
X62255505Y-80827484D01*
X62255506Y-80827484D01*
X62255507Y-80827485D01*
X62255509Y-80827486D01*
X62392082Y-80884056D01*
X62392087Y-80884058D01*
X62392091Y-80884058D01*
X62392092Y-80884059D01*
X62537079Y-80912900D01*
X62537082Y-80912900D01*
X62537083Y-80912900D01*
X62684918Y-80912900D01*
X67920320Y-80912900D01*
X67987359Y-80932585D01*
X68008001Y-80949219D01*
X72057381Y-84998598D01*
X72090866Y-85059921D01*
X72093700Y-85086279D01*
X72093700Y-92220769D01*
X72074015Y-92287808D01*
X72057381Y-92308450D01*
X71704641Y-92661189D01*
X71643318Y-92694674D01*
X71573626Y-92689690D01*
X71517693Y-92647818D01*
X71493276Y-92582354D01*
X71493432Y-92562700D01*
X71498323Y-92506800D01*
X71498323Y-92506797D01*
X71480970Y-92308450D01*
X71479070Y-92286732D01*
X71421894Y-92073350D01*
X71328534Y-91873139D01*
X71201826Y-91692180D01*
X71045620Y-91535974D01*
X71045616Y-91535971D01*
X71045615Y-91535970D01*
X70864666Y-91409268D01*
X70864658Y-91409264D01*
X70735811Y-91349182D01*
X70683371Y-91303010D01*
X70664219Y-91235817D01*
X70684435Y-91168935D01*
X70735811Y-91124418D01*
X70767159Y-91109800D01*
X70864662Y-91064334D01*
X71045620Y-90937626D01*
X71201826Y-90781420D01*
X71328534Y-90600462D01*
X71421894Y-90400250D01*
X71479070Y-90186868D01*
X71498323Y-89966800D01*
X71479070Y-89746732D01*
X71421894Y-89533350D01*
X71328534Y-89333139D01*
X71214913Y-89170870D01*
X71201827Y-89152181D01*
X71124498Y-89074852D01*
X71045620Y-88995974D01*
X71045616Y-88995971D01*
X71045615Y-88995970D01*
X70864666Y-88869268D01*
X70864662Y-88869266D01*
X70864660Y-88869265D01*
X70664450Y-88775906D01*
X70664447Y-88775905D01*
X70664445Y-88775904D01*
X70451070Y-88718730D01*
X70451062Y-88718729D01*
X70231002Y-88699477D01*
X70230998Y-88699477D01*
X70010937Y-88718729D01*
X70010929Y-88718730D01*
X69797554Y-88775904D01*
X69797548Y-88775907D01*
X69597340Y-88869265D01*
X69597338Y-88869266D01*
X69416377Y-88995975D01*
X69260175Y-89152177D01*
X69133466Y-89333138D01*
X69133465Y-89333140D01*
X69040107Y-89533348D01*
X69040104Y-89533354D01*
X68982930Y-89746729D01*
X68982929Y-89746737D01*
X68963677Y-89966797D01*
X68963677Y-89966802D01*
X68982929Y-90186862D01*
X68982930Y-90186870D01*
X69040104Y-90400245D01*
X69040105Y-90400247D01*
X69040106Y-90400250D01*
X69058203Y-90439059D01*
X69133466Y-90600462D01*
X69133468Y-90600466D01*
X69260170Y-90781415D01*
X69260175Y-90781421D01*
X69416378Y-90937624D01*
X69416384Y-90937629D01*
X69597333Y-91064331D01*
X69597335Y-91064332D01*
X69597338Y-91064334D01*
X69694841Y-91109800D01*
X69726189Y-91124418D01*
X69778628Y-91170590D01*
X69797780Y-91237784D01*
X69777564Y-91304665D01*
X69726189Y-91349182D01*
X69597340Y-91409265D01*
X69597338Y-91409266D01*
X69416377Y-91535975D01*
X69260175Y-91692177D01*
X69133466Y-91873138D01*
X69133465Y-91873140D01*
X69040107Y-92073348D01*
X69040104Y-92073354D01*
X68982930Y-92286729D01*
X68982929Y-92286737D01*
X68963677Y-92506797D01*
X68963677Y-92506802D01*
X68982929Y-92726862D01*
X68982930Y-92726870D01*
X69040104Y-92940245D01*
X69040105Y-92940247D01*
X69040106Y-92940250D01*
X69133466Y-93140462D01*
X69151996Y-93166926D01*
X69174323Y-93233131D01*
X69157313Y-93300898D01*
X69138102Y-93325729D01*
X66966852Y-95496978D01*
X66966849Y-95496981D01*
X66917718Y-95570511D01*
X66917719Y-95570512D01*
X66884714Y-95619908D01*
X66828143Y-95756482D01*
X66828140Y-95756492D01*
X66799300Y-95901479D01*
X66799300Y-95901482D01*
X66799300Y-105139518D01*
X66799300Y-105139520D01*
X66799299Y-105139520D01*
X66828140Y-105284507D01*
X66828143Y-105284517D01*
X66884714Y-105421091D01*
X66884716Y-105421095D01*
X66888575Y-105426870D01*
X66913332Y-105463923D01*
X66966849Y-105544018D01*
X66966852Y-105544021D01*
X68939358Y-107516526D01*
X68972843Y-107577849D01*
X68975205Y-107615013D01*
X68963677Y-107746797D01*
X68963677Y-107746802D01*
X68982929Y-107966862D01*
X68982930Y-107966870D01*
X69040104Y-108180245D01*
X69040105Y-108180247D01*
X69040106Y-108180250D01*
X69101710Y-108312360D01*
X69133466Y-108380462D01*
X69133468Y-108380466D01*
X69234389Y-108524596D01*
X69256716Y-108590802D01*
X69239706Y-108658569D01*
X69188758Y-108706382D01*
X69132814Y-108719719D01*
X58706155Y-108719719D01*
X58692269Y-108718939D01*
X58592709Y-108707719D01*
X58565639Y-108701540D01*
X58477687Y-108670763D01*
X58452671Y-108658716D01*
X58373769Y-108609139D01*
X58352060Y-108591826D01*
X58286173Y-108525939D01*
X58268860Y-108504230D01*
X58251588Y-108476742D01*
X58219282Y-108425327D01*
X58207236Y-108400312D01*
X58176458Y-108312356D01*
X58170280Y-108285290D01*
X58159059Y-108185717D01*
X58158281Y-108171833D01*
X58158707Y-105255869D01*
X58158719Y-105255707D01*
X58158719Y-105247067D01*
X58158720Y-105247064D01*
X58158719Y-105181172D01*
X58158729Y-105115362D01*
X58158727Y-105115357D01*
X58158729Y-105107133D01*
X58158718Y-105106955D01*
X58158718Y-105070896D01*
X58153966Y-105037849D01*
X58127326Y-104852584D01*
X58065186Y-104640964D01*
X57973562Y-104440340D01*
X57854320Y-104254798D01*
X57854314Y-104254791D01*
X57709888Y-104088113D01*
X57709886Y-104088111D01*
X57543208Y-103943685D01*
X57543201Y-103943679D01*
X57458922Y-103889516D01*
X57357660Y-103824438D01*
X57226054Y-103764334D01*
X57157037Y-103732814D01*
X57051226Y-103701744D01*
X56945416Y-103670674D01*
X56871518Y-103660047D01*
X56727101Y-103639281D01*
X56690315Y-103639281D01*
X56690198Y-103639274D01*
X56617218Y-103639280D01*
X56617196Y-103639281D01*
X56616828Y-103639281D01*
X56550936Y-103639280D01*
X56550935Y-103639280D01*
X56543135Y-103639280D01*
X56543013Y-103639287D01*
X51848157Y-103639717D01*
X51834261Y-103638937D01*
X51734710Y-103627719D01*
X51707639Y-103621540D01*
X51619687Y-103590763D01*
X51594671Y-103578716D01*
X51515769Y-103529139D01*
X51494060Y-103511826D01*
X51428173Y-103445939D01*
X51410860Y-103424230D01*
X51361283Y-103345328D01*
X51349236Y-103320312D01*
X51318458Y-103232356D01*
X51312280Y-103205292D01*
X51301061Y-103105730D01*
X51300281Y-103091845D01*
X51300281Y-98862511D01*
X61979700Y-98862511D01*
X61979700Y-99105088D01*
X62011361Y-99345585D01*
X62074147Y-99579904D01*
X62142311Y-99744466D01*
X62166976Y-99804012D01*
X62288264Y-100014089D01*
X62288266Y-100014092D01*
X62288267Y-100014093D01*
X62435933Y-100206536D01*
X62435939Y-100206543D01*
X62607456Y-100378060D01*
X62607463Y-100378066D01*
X62614020Y-100383097D01*
X62799911Y-100525736D01*
X63009988Y-100647024D01*
X63234100Y-100739854D01*
X63468411Y-100802638D01*
X63648786Y-100826384D01*
X63708911Y-100834300D01*
X63708912Y-100834300D01*
X63951489Y-100834300D01*
X63999588Y-100827967D01*
X64191989Y-100802638D01*
X64426300Y-100739854D01*
X64650412Y-100647024D01*
X64860489Y-100525736D01*
X65052938Y-100378065D01*
X65224465Y-100206538D01*
X65372136Y-100014089D01*
X65493424Y-99804012D01*
X65586254Y-99579900D01*
X65649038Y-99345589D01*
X65680700Y-99105088D01*
X65680700Y-98862512D01*
X65680300Y-98859477D01*
X65649038Y-98622014D01*
X65649038Y-98622011D01*
X65586254Y-98387700D01*
X65493424Y-98163588D01*
X65372136Y-97953511D01*
X65259609Y-97806862D01*
X65224466Y-97761063D01*
X65224460Y-97761056D01*
X65052943Y-97589539D01*
X65052936Y-97589533D01*
X64860493Y-97441867D01*
X64860492Y-97441866D01*
X64860489Y-97441864D01*
X64650412Y-97320576D01*
X64650405Y-97320573D01*
X64426304Y-97227747D01*
X64191985Y-97164961D01*
X63951489Y-97133300D01*
X63951488Y-97133300D01*
X63708912Y-97133300D01*
X63708911Y-97133300D01*
X63468414Y-97164961D01*
X63234095Y-97227747D01*
X63009994Y-97320573D01*
X63009985Y-97320577D01*
X62799906Y-97441867D01*
X62607463Y-97589533D01*
X62607456Y-97589539D01*
X62435939Y-97761056D01*
X62435933Y-97761063D01*
X62288267Y-97953506D01*
X62166977Y-98163585D01*
X62166973Y-98163594D01*
X62074147Y-98387695D01*
X62011361Y-98622014D01*
X61979700Y-98862511D01*
X51300281Y-98862511D01*
X51300281Y-81595441D01*
X51319966Y-81528402D01*
X51372770Y-81482647D01*
X51424281Y-81471441D01*
X51448806Y-81471441D01*
X52203400Y-80716847D01*
X52203400Y-80723061D01*
X52230659Y-80824794D01*
X52283320Y-80916006D01*
X52357794Y-80990480D01*
X52449006Y-81043141D01*
X52550739Y-81070400D01*
X52556953Y-81070400D01*
X51899188Y-81728163D01*
X51899188Y-81728164D01*
X51945814Y-81743313D01*
X52116829Y-81770400D01*
X53089971Y-81770400D01*
X53260985Y-81743313D01*
X53260988Y-81743313D01*
X53307611Y-81728164D01*
X52649847Y-81070400D01*
X52656061Y-81070400D01*
X52757794Y-81043141D01*
X52849006Y-80990480D01*
X52923480Y-80916006D01*
X52976141Y-80824794D01*
X53003400Y-80723061D01*
X53003400Y-80716847D01*
X53757994Y-81471441D01*
X53842432Y-81387002D01*
X53944204Y-81246924D01*
X54022808Y-81092657D01*
X54076314Y-80927984D01*
X54103400Y-80756971D01*
X54103400Y-80583828D01*
X54076314Y-80412815D01*
X54022808Y-80248142D01*
X53944204Y-80093875D01*
X53842432Y-79953797D01*
X53757994Y-79869359D01*
X53003400Y-80623953D01*
X53003400Y-80617739D01*
X52976141Y-80516006D01*
X52923480Y-80424794D01*
X52849006Y-80350320D01*
X52757794Y-80297659D01*
X52656061Y-80270400D01*
X52649848Y-80270400D01*
X53307611Y-79612635D01*
X53260982Y-79597485D01*
X53089971Y-79570400D01*
X52116829Y-79570400D01*
X51945823Y-79597484D01*
X51945811Y-79597487D01*
X51899187Y-79612635D01*
X52556953Y-80270400D01*
X52550739Y-80270400D01*
X52449006Y-80297659D01*
X52357794Y-80350320D01*
X52283320Y-80424794D01*
X52230659Y-80516006D01*
X52203400Y-80617739D01*
X52203400Y-80623953D01*
X51448806Y-79869359D01*
X51424281Y-79869359D01*
X51357242Y-79849674D01*
X51311487Y-79796870D01*
X51300281Y-79745359D01*
X51300281Y-79077901D01*
X51319966Y-79010862D01*
X51372770Y-78965107D01*
X51441928Y-78955163D01*
X51497162Y-78977581D01*
X51626612Y-79071632D01*
X51780955Y-79150273D01*
X51945699Y-79203802D01*
X52116789Y-79230900D01*
X52116790Y-79230900D01*
X53090010Y-79230900D01*
X53090011Y-79230900D01*
X53261101Y-79203802D01*
X53425845Y-79150273D01*
X53425849Y-79150271D01*
X53437341Y-79144416D01*
X53493637Y-79130900D01*
X55769818Y-79130900D01*
X55836857Y-79150585D01*
X55857499Y-79167219D01*
X62314187Y-85623908D01*
X62347672Y-85685231D01*
X62342688Y-85754923D01*
X62300816Y-85810856D01*
X62258600Y-85831364D01*
X62075955Y-85880304D01*
X62075948Y-85880307D01*
X61875740Y-85973665D01*
X61875738Y-85973666D01*
X61694777Y-86100375D01*
X61538575Y-86256577D01*
X61411866Y-86437538D01*
X61411865Y-86437540D01*
X61318507Y-86637748D01*
X61318504Y-86637754D01*
X61261330Y-86851129D01*
X61261329Y-86851135D01*
X61260161Y-86864492D01*
X61234707Y-86929561D01*
X61224313Y-86941364D01*
X60717080Y-87448600D01*
X60553899Y-87611781D01*
X60492576Y-87645266D01*
X60466218Y-87648100D01*
X58389202Y-87648100D01*
X58322163Y-87628415D01*
X58276408Y-87575611D01*
X58266464Y-87506453D01*
X58271271Y-87485782D01*
X58294357Y-87414730D01*
X58294357Y-87414727D01*
X58327600Y-87204846D01*
X58327600Y-87198600D01*
X57410612Y-87198600D01*
X57443525Y-87141593D01*
X57477600Y-87014426D01*
X57477600Y-86882774D01*
X57443525Y-86755607D01*
X57410612Y-86698600D01*
X58327600Y-86698600D01*
X58327600Y-86692353D01*
X58294357Y-86482472D01*
X58294357Y-86482469D01*
X58228695Y-86280382D01*
X58132220Y-86091042D01*
X58007327Y-85919140D01*
X58007323Y-85919135D01*
X57857064Y-85768876D01*
X57857059Y-85768872D01*
X57685157Y-85643979D01*
X57495815Y-85547503D01*
X57293724Y-85481841D01*
X57227600Y-85471368D01*
X57227600Y-86515588D01*
X57170593Y-86482675D01*
X57043426Y-86448600D01*
X56911774Y-86448600D01*
X56784607Y-86482675D01*
X56727600Y-86515588D01*
X56727600Y-85471368D01*
X56727599Y-85471368D01*
X56661475Y-85481841D01*
X56459384Y-85547503D01*
X56270042Y-85643979D01*
X56098141Y-85768871D01*
X55959268Y-85907744D01*
X55897945Y-85941228D01*
X55828253Y-85936244D01*
X55772320Y-85894372D01*
X55766048Y-85885158D01*
X55750086Y-85859280D01*
X55670312Y-85729944D01*
X55546256Y-85605888D01*
X55406634Y-85519769D01*
X55396936Y-85513787D01*
X55396931Y-85513785D01*
X55395462Y-85513298D01*
X55230397Y-85458601D01*
X55230395Y-85458600D01*
X55127610Y-85448100D01*
X53827598Y-85448100D01*
X53827581Y-85448101D01*
X53724803Y-85458600D01*
X53724800Y-85458601D01*
X53558268Y-85513785D01*
X53558263Y-85513787D01*
X53408942Y-85605889D01*
X53284889Y-85729942D01*
X53192787Y-85879263D01*
X53192785Y-85879268D01*
X53187780Y-85894372D01*
X53137601Y-86045803D01*
X53137601Y-86045804D01*
X53137600Y-86045804D01*
X53127100Y-86148583D01*
X53127100Y-87748601D01*
X53127101Y-87748618D01*
X53137600Y-87851396D01*
X53137601Y-87851399D01*
X53168832Y-87945647D01*
X53192786Y-88017934D01*
X53284888Y-88167256D01*
X53408944Y-88291312D01*
X53558266Y-88383414D01*
X53724803Y-88438599D01*
X53827591Y-88449100D01*
X54511817Y-88449099D01*
X54578856Y-88468783D01*
X54599498Y-88485418D01*
X55397335Y-89283255D01*
X55397364Y-89283286D01*
X55539817Y-89425739D01*
X55686155Y-89523518D01*
X55703686Y-89535232D01*
X55703688Y-89535233D01*
X55703692Y-89535235D01*
X55759278Y-89558259D01*
X55822539Y-89584462D01*
X55885764Y-89610651D01*
X55968901Y-89627188D01*
X55996440Y-89632666D01*
X56079056Y-89649100D01*
X56079059Y-89649100D01*
X61030542Y-89649100D01*
X61047020Y-89645822D01*
X61106547Y-89633981D01*
X61176137Y-89640208D01*
X61231315Y-89683070D01*
X61254266Y-89744789D01*
X61261824Y-89831177D01*
X61261826Y-89831186D01*
X61318975Y-90044470D01*
X61318980Y-90044484D01*
X61412298Y-90244605D01*
X61412301Y-90244611D01*
X61457658Y-90309387D01*
X61457658Y-90309388D01*
X62128400Y-89638646D01*
X62128400Y-89661360D01*
X62154364Y-89758261D01*
X62204524Y-89845140D01*
X62275460Y-89916076D01*
X62362339Y-89966236D01*
X62459240Y-89992200D01*
X62481951Y-89992200D01*
X61811210Y-90662940D01*
X61875989Y-90708298D01*
X62005181Y-90768542D01*
X62057620Y-90814714D01*
X62076772Y-90881908D01*
X62056556Y-90948789D01*
X62005181Y-90993306D01*
X61875740Y-91053665D01*
X61875738Y-91053666D01*
X61694777Y-91180375D01*
X61538575Y-91336577D01*
X61411866Y-91517538D01*
X61411865Y-91517540D01*
X61318507Y-91717748D01*
X61318504Y-91717754D01*
X61261330Y-91931129D01*
X61261329Y-91931137D01*
X61242077Y-92151197D01*
X61242077Y-92151202D01*
X61261329Y-92371262D01*
X61261330Y-92371270D01*
X61318504Y-92584645D01*
X61318505Y-92584647D01*
X61318506Y-92584650D01*
X61320021Y-92587898D01*
X61411866Y-92784862D01*
X61411868Y-92784866D01*
X61538570Y-92965815D01*
X61538575Y-92965821D01*
X61694778Y-93122024D01*
X61694784Y-93122029D01*
X61875733Y-93248731D01*
X61875735Y-93248732D01*
X61875738Y-93248734D01*
X62075950Y-93342094D01*
X62289332Y-93399270D01*
X62446523Y-93413022D01*
X62509398Y-93418523D01*
X62509400Y-93418523D01*
X62509402Y-93418523D01*
X62564417Y-93413709D01*
X62729468Y-93399270D01*
X62942850Y-93342094D01*
X63143062Y-93248734D01*
X63324020Y-93122026D01*
X63480226Y-92965820D01*
X63606934Y-92784862D01*
X63700294Y-92584650D01*
X63757470Y-92371268D01*
X63758638Y-92357907D01*
X63784087Y-92292842D01*
X63794477Y-92281041D01*
X64609178Y-91466341D01*
X64609182Y-91466339D01*
X64748539Y-91326982D01*
X64858032Y-91163114D01*
X64933451Y-90981035D01*
X64966535Y-90814714D01*
X64971900Y-90787743D01*
X64971900Y-85767656D01*
X64947982Y-85647417D01*
X64947982Y-85647416D01*
X64933451Y-85574364D01*
X64919202Y-85539965D01*
X64910847Y-85519793D01*
X64910835Y-85519766D01*
X64908358Y-85513787D01*
X64861015Y-85399487D01*
X64858035Y-85392293D01*
X64858034Y-85392292D01*
X64858032Y-85392286D01*
X64807963Y-85317352D01*
X64748540Y-85228419D01*
X64699021Y-85178900D01*
X64609182Y-85089061D01*
X64609181Y-85089060D01*
X58686830Y-79166710D01*
X58653346Y-79105388D01*
X58658330Y-79035696D01*
X58700202Y-78979763D01*
X58765666Y-78955346D01*
X58815467Y-78961988D01*
X58901145Y-78991968D01*
X58901150Y-78991969D01*
X59080396Y-79012165D01*
X59080400Y-79012165D01*
X59080404Y-79012165D01*
X59259649Y-78991969D01*
X59259652Y-78991968D01*
X59259655Y-78991968D01*
X59429922Y-78932389D01*
X59582662Y-78836416D01*
X59710216Y-78708862D01*
X59776392Y-78603542D01*
X59828725Y-78557252D01*
X59897778Y-78546603D01*
X59961627Y-78574978D01*
G37*
%TD.AperFunction*%
%TA.AperFunction,Conductor*%
G36*
X73212409Y-100896985D02*
G01*
X73233051Y-100913619D01*
X74241186Y-101921754D01*
X74270658Y-101941445D01*
X74314870Y-101970986D01*
X74364105Y-102003884D01*
X74364106Y-102003884D01*
X74364107Y-102003885D01*
X74364109Y-102003886D01*
X74434735Y-102033140D01*
X74500687Y-102060458D01*
X74500691Y-102060458D01*
X74500692Y-102060459D01*
X74645679Y-102089300D01*
X74645682Y-102089300D01*
X74645683Y-102089300D01*
X74793518Y-102089300D01*
X84157105Y-102089300D01*
X84224144Y-102108985D01*
X84269899Y-102161789D01*
X84279843Y-102230947D01*
X84276883Y-102245374D01*
X84243796Y-102368860D01*
X84222930Y-102446730D01*
X84222929Y-102446737D01*
X84203677Y-102666797D01*
X84203677Y-102666802D01*
X84222929Y-102886862D01*
X84222930Y-102886870D01*
X84280104Y-103100245D01*
X84280105Y-103100247D01*
X84280106Y-103100250D01*
X84341710Y-103232360D01*
X84373466Y-103300462D01*
X84373468Y-103300466D01*
X84500170Y-103481415D01*
X84500175Y-103481421D01*
X84656378Y-103637624D01*
X84656384Y-103637629D01*
X84837333Y-103764331D01*
X84837335Y-103764332D01*
X84837338Y-103764334D01*
X84966226Y-103824435D01*
X84966781Y-103824694D01*
X85019220Y-103870866D01*
X85038372Y-103938060D01*
X85018156Y-104004941D01*
X84966781Y-104049458D01*
X84837590Y-104109701D01*
X84772811Y-104155058D01*
X85443553Y-104825800D01*
X85420840Y-104825800D01*
X85323939Y-104851764D01*
X85237060Y-104901924D01*
X85166124Y-104972860D01*
X85115964Y-105059739D01*
X85090000Y-105156640D01*
X85090000Y-105179353D01*
X84419258Y-104508611D01*
X84373901Y-104573390D01*
X84280579Y-104773520D01*
X84280575Y-104773529D01*
X84223426Y-104986813D01*
X84223424Y-104986823D01*
X84204179Y-105206799D01*
X84204179Y-105206800D01*
X84223424Y-105426776D01*
X84223425Y-105426782D01*
X84246315Y-105512206D01*
X84244652Y-105582056D01*
X84205490Y-105639919D01*
X84141261Y-105667423D01*
X84126540Y-105668300D01*
X74345229Y-105668300D01*
X74278190Y-105648615D01*
X74257548Y-105631981D01*
X71522640Y-102897072D01*
X71489155Y-102835749D01*
X71486793Y-102798586D01*
X71498323Y-102666800D01*
X71497876Y-102661694D01*
X71480705Y-102465420D01*
X71479070Y-102446732D01*
X71421894Y-102233350D01*
X71328534Y-102033139D01*
X71201826Y-101852180D01*
X71045620Y-101695974D01*
X71045616Y-101695971D01*
X71045615Y-101695970D01*
X70864666Y-101569268D01*
X70864658Y-101569264D01*
X70735811Y-101509182D01*
X70683371Y-101463010D01*
X70664219Y-101395817D01*
X70684435Y-101328935D01*
X70735811Y-101284418D01*
X70741802Y-101281624D01*
X70864662Y-101224334D01*
X71045620Y-101097626D01*
X71201826Y-100941420D01*
X71202603Y-100940309D01*
X71209700Y-100930176D01*
X71264277Y-100886551D01*
X71311274Y-100877300D01*
X73145370Y-100877300D01*
X73212409Y-100896985D01*
G37*
%TD.AperFunction*%
%TA.AperFunction,Conductor*%
G36*
X95725904Y-102108985D02*
G01*
X95771247Y-102160896D01*
X95828864Y-102284458D01*
X95828868Y-102284466D01*
X95955570Y-102465415D01*
X95955575Y-102465421D01*
X96111778Y-102621624D01*
X96111784Y-102621629D01*
X96282722Y-102741321D01*
X96326347Y-102795898D01*
X96333541Y-102865396D01*
X96302018Y-102927751D01*
X96299280Y-102930577D01*
X93597878Y-105631981D01*
X93536555Y-105665466D01*
X93510197Y-105668300D01*
X86815460Y-105668300D01*
X86748421Y-105648615D01*
X86702666Y-105595811D01*
X86692722Y-105526653D01*
X86695685Y-105512206D01*
X86718574Y-105426782D01*
X86718575Y-105426776D01*
X86737821Y-105206800D01*
X86737821Y-105206799D01*
X86718575Y-104986823D01*
X86718573Y-104986813D01*
X86661424Y-104773529D01*
X86661420Y-104773520D01*
X86568096Y-104573386D01*
X86522741Y-104508611D01*
X86522740Y-104508610D01*
X85852000Y-105179350D01*
X85852000Y-105156640D01*
X85826036Y-105059739D01*
X85775876Y-104972860D01*
X85704940Y-104901924D01*
X85618061Y-104851764D01*
X85521160Y-104825800D01*
X85498448Y-104825800D01*
X86169188Y-104155059D01*
X86169187Y-104155058D01*
X86104411Y-104109701D01*
X86104405Y-104109698D01*
X85975219Y-104049458D01*
X85922779Y-104003286D01*
X85903627Y-103936093D01*
X85923843Y-103869211D01*
X85975219Y-103824694D01*
X85975774Y-103824435D01*
X86104662Y-103764334D01*
X86285620Y-103637626D01*
X86441826Y-103481420D01*
X86568534Y-103300462D01*
X86661894Y-103100250D01*
X86719070Y-102886868D01*
X86738323Y-102666800D01*
X86737876Y-102661694D01*
X86720705Y-102465420D01*
X86719070Y-102446732D01*
X86665120Y-102245389D01*
X86666783Y-102175544D01*
X86705945Y-102117682D01*
X86770173Y-102090177D01*
X86784895Y-102089300D01*
X95658865Y-102089300D01*
X95725904Y-102108985D01*
G37*
%TD.AperFunction*%
%TA.AperFunction,Conductor*%
G36*
X103766130Y-51301061D02*
G01*
X103796794Y-51304516D01*
X103865692Y-51312280D01*
X103892756Y-51318458D01*
X103980712Y-51349236D01*
X104005727Y-51361282D01*
X104084632Y-51410861D01*
X104106339Y-51428173D01*
X104172226Y-51494060D01*
X104189539Y-51515769D01*
X104239116Y-51594671D01*
X104251163Y-51619687D01*
X104281940Y-51707639D01*
X104288119Y-51734708D01*
X104299339Y-51834267D01*
X104300119Y-51848154D01*
X104300119Y-75151845D01*
X104299339Y-75165732D01*
X104288119Y-75265291D01*
X104281940Y-75292360D01*
X104251163Y-75380312D01*
X104239116Y-75405328D01*
X104189539Y-75484230D01*
X104172226Y-75505939D01*
X104106339Y-75571826D01*
X104084630Y-75589139D01*
X104005728Y-75638716D01*
X103980712Y-75650763D01*
X103892760Y-75681540D01*
X103865688Y-75687719D01*
X103766132Y-75698937D01*
X103752244Y-75699717D01*
X90306857Y-75699292D01*
X90239818Y-75679605D01*
X90194065Y-75626800D01*
X90184124Y-75557641D01*
X90213151Y-75494086D01*
X90219163Y-75487628D01*
X91017235Y-74689558D01*
X91078558Y-74656073D01*
X91104916Y-74653239D01*
X101408659Y-74653239D01*
X101506201Y-74633835D01*
X101553652Y-74624397D01*
X101690234Y-74567823D01*
X101739468Y-74534925D01*
X101740217Y-74534425D01*
X101766300Y-74516997D01*
X101813155Y-74485691D01*
X103579952Y-72718894D01*
X103649298Y-72615108D01*
X103662084Y-72595973D01*
X103718658Y-72459391D01*
X103735100Y-72376732D01*
X103747500Y-72314398D01*
X103747500Y-58941179D01*
X103718659Y-58796192D01*
X103718658Y-58796191D01*
X103718658Y-58796187D01*
X103691640Y-58730960D01*
X103662086Y-58659609D01*
X103662085Y-58659607D01*
X103629186Y-58610370D01*
X103629185Y-58610368D01*
X103579956Y-58536689D01*
X103579952Y-58536684D01*
X102539818Y-57496550D01*
X102506333Y-57435227D01*
X102503499Y-57408869D01*
X102503499Y-56723229D01*
X102503498Y-56723223D01*
X102503497Y-56723216D01*
X102497091Y-56663617D01*
X102446796Y-56528769D01*
X102446795Y-56528768D01*
X102446793Y-56528764D01*
X102360547Y-56413555D01*
X102360544Y-56413552D01*
X102245335Y-56327306D01*
X102245328Y-56327302D01*
X102110482Y-56277008D01*
X102110483Y-56277008D01*
X102050883Y-56270601D01*
X102050881Y-56270600D01*
X102050873Y-56270600D01*
X102050864Y-56270600D01*
X100955129Y-56270600D01*
X100955123Y-56270601D01*
X100895520Y-56277008D01*
X100887974Y-56278792D01*
X100887628Y-56277330D01*
X100826622Y-56281684D01*
X100811600Y-56277272D01*
X100810482Y-56277008D01*
X100750883Y-56270601D01*
X100750881Y-56270600D01*
X100750873Y-56270600D01*
X100750864Y-56270600D01*
X99655129Y-56270600D01*
X99655123Y-56270601D01*
X99595520Y-56277008D01*
X99587974Y-56278792D01*
X99587628Y-56277330D01*
X99526622Y-56281684D01*
X99511600Y-56277272D01*
X99510482Y-56277008D01*
X99450883Y-56270601D01*
X99450881Y-56270600D01*
X99450873Y-56270600D01*
X99450864Y-56270600D01*
X98355129Y-56270600D01*
X98355123Y-56270601D01*
X98295516Y-56277008D01*
X98160671Y-56327302D01*
X98160664Y-56327306D01*
X98045455Y-56413552D01*
X98045452Y-56413555D01*
X97959206Y-56528764D01*
X97959202Y-56528771D01*
X97908908Y-56663617D01*
X97902501Y-56723216D01*
X97902501Y-56723223D01*
X97902500Y-56723235D01*
X97902500Y-58318970D01*
X97902501Y-58318976D01*
X97908908Y-58378583D01*
X97959202Y-58513428D01*
X97959206Y-58513435D01*
X98045451Y-58628643D01*
X98045452Y-58628644D01*
X98045454Y-58628646D01*
X98107412Y-58675028D01*
X98149282Y-58730960D01*
X98157100Y-58774293D01*
X98157100Y-59517028D01*
X98150142Y-59557982D01*
X98122231Y-59637747D01*
X98102035Y-59816996D01*
X98102035Y-59817003D01*
X98122230Y-59996249D01*
X98122231Y-59996254D01*
X98181811Y-60166523D01*
X98277784Y-60319262D01*
X98405338Y-60446816D01*
X98495680Y-60503582D01*
X98554845Y-60540758D01*
X98558078Y-60542789D01*
X98622088Y-60565187D01*
X98728345Y-60602368D01*
X98728350Y-60602369D01*
X98907596Y-60622565D01*
X98907600Y-60622565D01*
X98907604Y-60622565D01*
X99086849Y-60602369D01*
X99086852Y-60602368D01*
X99086855Y-60602368D01*
X99257122Y-60542789D01*
X99262525Y-60539393D01*
X99329761Y-60520392D01*
X99396597Y-60540758D01*
X99441812Y-60594024D01*
X99452500Y-60644386D01*
X99452500Y-69716063D01*
X99432815Y-69783102D01*
X99409031Y-69810354D01*
X99367800Y-69845568D01*
X99367800Y-70893654D01*
X99301143Y-70855170D01*
X99180335Y-70822800D01*
X99055265Y-70822800D01*
X98934457Y-70855170D01*
X98867800Y-70893654D01*
X98867800Y-69845568D01*
X98867799Y-69845568D01*
X98801675Y-69856041D01*
X98599584Y-69921703D01*
X98410242Y-70018179D01*
X98238340Y-70143072D01*
X98238335Y-70143076D01*
X98088076Y-70293335D01*
X98088072Y-70293340D01*
X97968427Y-70458018D01*
X97913097Y-70500684D01*
X97843484Y-70506663D01*
X97781689Y-70474057D01*
X97767791Y-70458018D01*
X97647909Y-70293014D01*
X97647905Y-70293009D01*
X97497586Y-70142690D01*
X97325620Y-70017751D01*
X97136214Y-69921244D01*
X97136213Y-69921243D01*
X97136212Y-69921243D01*
X96934043Y-69855554D01*
X96934041Y-69855553D01*
X96934040Y-69855553D01*
X96772757Y-69830008D01*
X96724087Y-69822300D01*
X96511513Y-69822300D01*
X96462842Y-69830008D01*
X96301560Y-69855553D01*
X96099385Y-69921244D01*
X95909979Y-70017751D01*
X95738013Y-70142690D01*
X95587694Y-70293009D01*
X95587690Y-70293014D01*
X95468118Y-70457593D01*
X95412789Y-70500259D01*
X95343175Y-70506238D01*
X95281380Y-70473633D01*
X95267482Y-70457593D01*
X95147909Y-70293014D01*
X95147905Y-70293009D01*
X94997586Y-70142690D01*
X94825620Y-70017751D01*
X94636214Y-69921244D01*
X94636213Y-69921243D01*
X94636212Y-69921243D01*
X94434043Y-69855554D01*
X94434041Y-69855553D01*
X94434040Y-69855553D01*
X94272757Y-69830008D01*
X94224087Y-69822300D01*
X94011513Y-69822300D01*
X93962842Y-69830008D01*
X93801560Y-69855553D01*
X93599385Y-69921244D01*
X93409979Y-70017751D01*
X93238013Y-70142690D01*
X93087694Y-70293009D01*
X93087690Y-70293014D01*
X92968118Y-70457593D01*
X92912789Y-70500259D01*
X92843175Y-70506238D01*
X92781380Y-70473633D01*
X92767482Y-70457593D01*
X92647909Y-70293014D01*
X92647905Y-70293009D01*
X92497586Y-70142690D01*
X92325620Y-70017751D01*
X92136214Y-69921244D01*
X92136213Y-69921243D01*
X92136212Y-69921243D01*
X91934043Y-69855554D01*
X91934041Y-69855553D01*
X91934040Y-69855553D01*
X91772757Y-69830008D01*
X91724087Y-69822300D01*
X91511513Y-69822300D01*
X91462842Y-69830008D01*
X91301560Y-69855553D01*
X91099385Y-69921244D01*
X90909979Y-70017751D01*
X90738013Y-70142690D01*
X90587690Y-70293013D01*
X90462751Y-70464979D01*
X90366244Y-70654385D01*
X90300553Y-70856560D01*
X90267300Y-71066513D01*
X90267300Y-71533959D01*
X90265314Y-71533959D01*
X90252651Y-71594137D01*
X90231098Y-71623133D01*
X86285048Y-75569183D01*
X86275706Y-75583165D01*
X86247428Y-75625488D01*
X86202919Y-75692099D01*
X86202912Y-75692111D01*
X86146343Y-75828682D01*
X86146340Y-75828692D01*
X86117500Y-75973679D01*
X86117500Y-86034628D01*
X86110542Y-86075582D01*
X86082631Y-86155347D01*
X86062435Y-86334596D01*
X86062435Y-86334603D01*
X86082630Y-86513849D01*
X86082631Y-86513854D01*
X86142211Y-86684123D01*
X86238184Y-86836862D01*
X86365738Y-86964416D01*
X86518478Y-87060389D01*
X86559091Y-87074600D01*
X86688745Y-87119968D01*
X86688750Y-87119969D01*
X86867996Y-87140165D01*
X86868000Y-87140165D01*
X86868004Y-87140165D01*
X87047249Y-87119969D01*
X87047252Y-87119968D01*
X87047255Y-87119968D01*
X87217522Y-87060389D01*
X87370262Y-86964416D01*
X87497816Y-86836862D01*
X87555204Y-86745528D01*
X87607537Y-86699239D01*
X87676591Y-86688590D01*
X87740439Y-86716965D01*
X87747878Y-86723821D01*
X88190558Y-87166500D01*
X88625131Y-87601073D01*
X88625132Y-87601074D01*
X88729667Y-87705609D01*
X88729668Y-87705610D01*
X88852581Y-87787738D01*
X88852594Y-87787745D01*
X88989165Y-87844314D01*
X88989170Y-87844316D01*
X88989174Y-87844316D01*
X88989175Y-87844317D01*
X89134162Y-87873158D01*
X89134165Y-87873158D01*
X95919233Y-87873158D01*
X95986272Y-87892843D01*
X96032027Y-87945647D01*
X96041971Y-88014805D01*
X96012946Y-88078361D01*
X96006914Y-88084839D01*
X95955575Y-88136177D01*
X95828866Y-88317138D01*
X95828865Y-88317140D01*
X95735507Y-88517348D01*
X95735504Y-88517354D01*
X95678330Y-88730729D01*
X95678329Y-88730737D01*
X95659077Y-88950797D01*
X95659077Y-88950802D01*
X95678329Y-89170862D01*
X95678330Y-89170870D01*
X95735504Y-89384245D01*
X95735505Y-89384247D01*
X95735506Y-89384250D01*
X95828866Y-89584461D01*
X95828866Y-89584462D01*
X95955570Y-89765415D01*
X95955575Y-89765421D01*
X96111778Y-89921624D01*
X96111784Y-89921629D01*
X96292733Y-90048331D01*
X96292735Y-90048332D01*
X96292738Y-90048334D01*
X96422181Y-90108694D01*
X96474620Y-90154866D01*
X96493772Y-90222060D01*
X96473556Y-90288941D01*
X96422181Y-90333458D01*
X96292990Y-90393701D01*
X96228211Y-90439058D01*
X96898953Y-91109800D01*
X96876240Y-91109800D01*
X96779339Y-91135764D01*
X96692460Y-91185924D01*
X96621524Y-91256860D01*
X96571364Y-91343739D01*
X96545400Y-91440640D01*
X96545400Y-91463353D01*
X95874658Y-90792611D01*
X95829301Y-90857390D01*
X95735979Y-91057520D01*
X95735975Y-91057529D01*
X95678826Y-91270813D01*
X95678824Y-91270823D01*
X95659579Y-91490799D01*
X95659579Y-91490800D01*
X95678824Y-91710776D01*
X95678826Y-91710786D01*
X95735975Y-91924070D01*
X95735980Y-91924084D01*
X95829298Y-92124205D01*
X95829301Y-92124211D01*
X95874658Y-92188987D01*
X95874659Y-92188988D01*
X96545400Y-91518247D01*
X96545400Y-91540960D01*
X96571364Y-91637861D01*
X96621524Y-91724740D01*
X96692460Y-91795676D01*
X96779339Y-91845836D01*
X96876240Y-91871800D01*
X96898953Y-91871800D01*
X96228210Y-92542540D01*
X96292989Y-92587898D01*
X96422181Y-92648142D01*
X96474620Y-92694314D01*
X96493772Y-92761508D01*
X96473556Y-92828389D01*
X96422181Y-92872906D01*
X96292740Y-92933265D01*
X96292738Y-92933266D01*
X96111777Y-93059975D01*
X95955575Y-93216177D01*
X95828866Y-93397138D01*
X95828865Y-93397140D01*
X95735507Y-93597348D01*
X95735504Y-93597354D01*
X95678330Y-93810729D01*
X95678329Y-93810737D01*
X95659077Y-94030797D01*
X95659077Y-94030802D01*
X95678329Y-94250862D01*
X95678330Y-94250870D01*
X95735504Y-94464245D01*
X95735505Y-94464247D01*
X95735506Y-94464250D01*
X95737861Y-94469300D01*
X95828866Y-94664462D01*
X95828868Y-94664466D01*
X95955570Y-94845415D01*
X95955575Y-94845421D01*
X96111778Y-95001624D01*
X96111784Y-95001629D01*
X96292733Y-95128331D01*
X96292735Y-95128332D01*
X96292738Y-95128334D01*
X96412148Y-95184015D01*
X96421589Y-95188418D01*
X96474028Y-95234590D01*
X96493180Y-95301784D01*
X96472964Y-95368665D01*
X96421589Y-95413182D01*
X96292740Y-95473265D01*
X96292738Y-95473266D01*
X96111777Y-95599975D01*
X95955575Y-95756177D01*
X95828866Y-95937138D01*
X95828865Y-95937140D01*
X95735507Y-96137348D01*
X95735504Y-96137354D01*
X95678330Y-96350729D01*
X95678329Y-96350737D01*
X95659077Y-96570797D01*
X95659077Y-96570802D01*
X95678329Y-96790862D01*
X95678330Y-96790870D01*
X95735504Y-97004245D01*
X95735505Y-97004247D01*
X95735506Y-97004250D01*
X95810447Y-97164962D01*
X95828866Y-97204462D01*
X95828868Y-97204466D01*
X95955570Y-97385415D01*
X95955575Y-97385421D01*
X96111778Y-97541624D01*
X96111784Y-97541629D01*
X96292733Y-97668331D01*
X96292735Y-97668332D01*
X96292738Y-97668334D01*
X96352493Y-97696198D01*
X96421589Y-97728418D01*
X96474028Y-97774590D01*
X96493180Y-97841784D01*
X96472964Y-97908665D01*
X96421589Y-97953182D01*
X96292740Y-98013265D01*
X96292738Y-98013266D01*
X96111777Y-98139975D01*
X95955575Y-98296177D01*
X95828866Y-98477138D01*
X95828865Y-98477140D01*
X95735507Y-98677348D01*
X95735504Y-98677354D01*
X95678330Y-98890729D01*
X95678329Y-98890737D01*
X95659077Y-99110797D01*
X95659077Y-99110802D01*
X95678329Y-99330862D01*
X95678330Y-99330870D01*
X95735504Y-99544245D01*
X95735505Y-99544247D01*
X95735506Y-99544250D01*
X95752130Y-99579900D01*
X95828866Y-99744462D01*
X95828868Y-99744466D01*
X95955570Y-99925415D01*
X95955575Y-99925421D01*
X96111778Y-100081624D01*
X96111784Y-100081629D01*
X96292733Y-100208331D01*
X96292735Y-100208332D01*
X96292738Y-100208334D01*
X96412148Y-100264015D01*
X96421589Y-100268418D01*
X96474028Y-100314590D01*
X96493180Y-100381784D01*
X96472964Y-100448665D01*
X96421589Y-100493182D01*
X96292740Y-100553265D01*
X96292738Y-100553266D01*
X96283237Y-100559919D01*
X96274730Y-100565875D01*
X96208526Y-100588202D01*
X96203609Y-100588300D01*
X93132866Y-100588300D01*
X93065827Y-100568615D01*
X93020072Y-100515811D01*
X93010128Y-100446653D01*
X93039153Y-100383097D01*
X93045185Y-100376619D01*
X93215260Y-100206543D01*
X93215265Y-100206538D01*
X93362936Y-100014089D01*
X93484224Y-99804012D01*
X93577054Y-99579900D01*
X93639838Y-99345589D01*
X93671500Y-99105088D01*
X93671500Y-98862512D01*
X93671100Y-98859477D01*
X93639838Y-98622014D01*
X93639838Y-98622011D01*
X93577054Y-98387700D01*
X93484224Y-98163588D01*
X93362936Y-97953511D01*
X93250409Y-97806862D01*
X93215266Y-97761063D01*
X93215260Y-97761056D01*
X93043743Y-97589539D01*
X93043736Y-97589533D01*
X92851293Y-97441867D01*
X92851292Y-97441866D01*
X92851289Y-97441864D01*
X92641212Y-97320576D01*
X92641205Y-97320573D01*
X92417104Y-97227747D01*
X92182785Y-97164961D01*
X91942289Y-97133300D01*
X91942288Y-97133300D01*
X91699712Y-97133300D01*
X91699711Y-97133300D01*
X91459214Y-97164961D01*
X91224895Y-97227747D01*
X91000794Y-97320573D01*
X91000785Y-97320577D01*
X90790706Y-97441867D01*
X90598263Y-97589533D01*
X90598256Y-97589539D01*
X90426739Y-97761056D01*
X90426733Y-97761063D01*
X90279067Y-97953506D01*
X90157777Y-98163585D01*
X90157773Y-98163594D01*
X90064947Y-98387695D01*
X90002161Y-98622014D01*
X89970500Y-98862511D01*
X89970500Y-99105088D01*
X90002161Y-99345585D01*
X90064947Y-99579904D01*
X90133111Y-99744466D01*
X90157776Y-99804012D01*
X90279064Y-100014089D01*
X90279066Y-100014092D01*
X90279067Y-100014093D01*
X90426733Y-100206536D01*
X90426739Y-100206543D01*
X90596815Y-100376619D01*
X90630300Y-100437942D01*
X90625316Y-100507634D01*
X90583444Y-100563567D01*
X90517980Y-100587984D01*
X90509134Y-100588300D01*
X86815978Y-100588300D01*
X86748939Y-100568615D01*
X86703184Y-100515811D01*
X86693240Y-100446653D01*
X86696201Y-100432214D01*
X86719070Y-100346868D01*
X86738323Y-100126800D01*
X86719070Y-99906732D01*
X86661894Y-99693350D01*
X86568534Y-99493139D01*
X86454913Y-99330870D01*
X86441827Y-99312181D01*
X86441826Y-99312180D01*
X86285620Y-99155974D01*
X86285616Y-99155971D01*
X86285615Y-99155970D01*
X86104666Y-99029268D01*
X86104658Y-99029264D01*
X85975811Y-98969182D01*
X85923371Y-98923010D01*
X85904219Y-98855817D01*
X85924435Y-98788935D01*
X85975811Y-98744418D01*
X85981802Y-98741624D01*
X86104662Y-98684334D01*
X86285620Y-98557626D01*
X86441826Y-98401420D01*
X86568534Y-98220462D01*
X86661894Y-98020250D01*
X86719070Y-97806868D01*
X86733509Y-97641817D01*
X86738323Y-97586802D01*
X86738323Y-97586799D01*
X86726793Y-97455015D01*
X86740559Y-97386515D01*
X86762637Y-97356530D01*
X87367552Y-96751616D01*
X87438976Y-96644720D01*
X87438978Y-96644718D01*
X87449681Y-96628699D01*
X87449684Y-96628695D01*
X87506258Y-96492113D01*
X87525395Y-96395906D01*
X87535100Y-96347120D01*
X87535100Y-94572452D01*
X87506259Y-94427465D01*
X87506258Y-94427464D01*
X87506258Y-94427460D01*
X87474582Y-94350987D01*
X87449687Y-94290884D01*
X87449680Y-94290871D01*
X87367552Y-94167958D01*
X87367551Y-94167957D01*
X87263016Y-94063422D01*
X87010323Y-93810729D01*
X86548011Y-93348416D01*
X86514526Y-93287093D01*
X86519510Y-93217401D01*
X86534114Y-93189616D01*
X86568534Y-93140462D01*
X86661894Y-92940250D01*
X86719070Y-92726868D01*
X86738323Y-92506800D01*
X86719070Y-92286732D01*
X86661894Y-92073350D01*
X86568534Y-91873139D01*
X86441826Y-91692180D01*
X86285620Y-91535974D01*
X86285616Y-91535971D01*
X86285615Y-91535970D01*
X86104666Y-91409268D01*
X86104662Y-91409266D01*
X85975218Y-91348905D01*
X85922779Y-91302732D01*
X85903627Y-91235539D01*
X85923843Y-91168658D01*
X85975219Y-91124140D01*
X86104416Y-91063895D01*
X86104417Y-91063894D01*
X86169188Y-91018541D01*
X85498448Y-90347800D01*
X85521160Y-90347800D01*
X85618061Y-90321836D01*
X85704940Y-90271676D01*
X85775876Y-90200740D01*
X85826036Y-90113861D01*
X85852000Y-90016960D01*
X85852000Y-89994247D01*
X86522741Y-90664988D01*
X86568094Y-90600217D01*
X86568100Y-90600207D01*
X86661419Y-90400084D01*
X86661424Y-90400070D01*
X86718573Y-90186786D01*
X86718575Y-90186776D01*
X86737821Y-89966800D01*
X86737821Y-89966799D01*
X86718575Y-89746823D01*
X86718573Y-89746813D01*
X86661424Y-89533529D01*
X86661420Y-89533520D01*
X86568096Y-89333386D01*
X86522741Y-89268611D01*
X86522740Y-89268610D01*
X85852000Y-89939351D01*
X85852000Y-89916640D01*
X85826036Y-89819739D01*
X85775876Y-89732860D01*
X85704940Y-89661924D01*
X85618061Y-89611764D01*
X85521160Y-89585800D01*
X85498448Y-89585800D01*
X86169188Y-88915059D01*
X86169187Y-88915058D01*
X86104411Y-88869701D01*
X86104405Y-88869698D01*
X85904284Y-88776380D01*
X85904270Y-88776375D01*
X85690986Y-88719226D01*
X85690976Y-88719224D01*
X85471001Y-88699979D01*
X85470999Y-88699979D01*
X85251023Y-88719224D01*
X85251013Y-88719226D01*
X85037729Y-88776375D01*
X85037720Y-88776379D01*
X84837590Y-88869701D01*
X84772811Y-88915058D01*
X85443553Y-89585800D01*
X85420840Y-89585800D01*
X85323939Y-89611764D01*
X85237060Y-89661924D01*
X85166124Y-89732860D01*
X85115964Y-89819739D01*
X85090000Y-89916640D01*
X85090000Y-89939353D01*
X84419258Y-89268611D01*
X84373901Y-89333390D01*
X84280579Y-89533520D01*
X84280575Y-89533529D01*
X84223426Y-89746813D01*
X84223424Y-89746823D01*
X84204179Y-89966799D01*
X84204179Y-89966800D01*
X84223424Y-90186776D01*
X84223426Y-90186786D01*
X84280575Y-90400070D01*
X84280580Y-90400084D01*
X84373898Y-90600205D01*
X84373901Y-90600211D01*
X84419258Y-90664987D01*
X84419259Y-90664988D01*
X85090000Y-89994247D01*
X85090000Y-90016960D01*
X85115964Y-90113861D01*
X85166124Y-90200740D01*
X85237060Y-90271676D01*
X85323939Y-90321836D01*
X85420840Y-90347800D01*
X85443553Y-90347800D01*
X84772810Y-91018540D01*
X84837589Y-91063898D01*
X84966781Y-91124142D01*
X85019220Y-91170314D01*
X85038372Y-91237508D01*
X85018156Y-91304389D01*
X84966781Y-91348906D01*
X84837340Y-91409265D01*
X84837338Y-91409266D01*
X84656377Y-91535975D01*
X84500175Y-91692177D01*
X84373466Y-91873138D01*
X84373465Y-91873140D01*
X84280107Y-92073348D01*
X84280104Y-92073354D01*
X84222930Y-92286729D01*
X84222929Y-92286737D01*
X84203677Y-92506797D01*
X84203677Y-92506802D01*
X84222929Y-92726862D01*
X84222930Y-92726869D01*
X84230280Y-92754298D01*
X84245796Y-92812207D01*
X84244134Y-92882056D01*
X84204972Y-92939919D01*
X84140744Y-92967423D01*
X84126022Y-92968300D01*
X81406429Y-92968300D01*
X81339390Y-92948615D01*
X81318748Y-92931981D01*
X81198973Y-92812206D01*
X81047216Y-92660448D01*
X79071819Y-90685051D01*
X79038334Y-90623728D01*
X79035500Y-90597370D01*
X79035500Y-85983480D01*
X79027095Y-85941228D01*
X79018908Y-85900070D01*
X79014976Y-85880304D01*
X79006660Y-85838495D01*
X79006659Y-85838488D01*
X78957297Y-85719319D01*
X78950084Y-85701905D01*
X78913676Y-85647417D01*
X78867954Y-85578988D01*
X78867953Y-85578987D01*
X78867951Y-85578984D01*
X78763416Y-85474449D01*
X77588305Y-84299337D01*
X77565656Y-84263264D01*
X77563812Y-84264153D01*
X77560792Y-84257883D01*
X77464815Y-84105137D01*
X77337262Y-83977584D01*
X77184523Y-83881611D01*
X77014254Y-83822031D01*
X77014249Y-83822030D01*
X76835004Y-83801835D01*
X76834996Y-83801835D01*
X76655750Y-83822030D01*
X76655745Y-83822031D01*
X76485476Y-83881611D01*
X76332737Y-83977584D01*
X76205184Y-84105137D01*
X76109211Y-84257876D01*
X76049631Y-84428145D01*
X76049630Y-84428150D01*
X76029435Y-84607396D01*
X76029435Y-84607403D01*
X76049630Y-84786649D01*
X76049631Y-84786654D01*
X76109211Y-84956923D01*
X76207236Y-85112928D01*
X76226236Y-85180165D01*
X76207236Y-85244872D01*
X76109211Y-85400876D01*
X76049631Y-85571145D01*
X76049630Y-85571150D01*
X76029435Y-85750396D01*
X76029435Y-85750403D01*
X76049630Y-85929649D01*
X76049631Y-85929654D01*
X76109211Y-86099923D01*
X76205184Y-86252662D01*
X76212141Y-86259619D01*
X76245626Y-86320942D01*
X76240642Y-86390634D01*
X76212141Y-86434981D01*
X76205184Y-86441937D01*
X76109211Y-86594676D01*
X76049631Y-86764945D01*
X76049630Y-86764950D01*
X76029435Y-86944196D01*
X76029435Y-86944203D01*
X76049630Y-87123449D01*
X76049631Y-87123454D01*
X76077542Y-87203217D01*
X76084500Y-87244172D01*
X76084500Y-91640918D01*
X76084500Y-91640920D01*
X76084499Y-91640920D01*
X76113340Y-91785907D01*
X76113343Y-91785917D01*
X76169914Y-91922492D01*
X76202812Y-91971727D01*
X76202813Y-91971730D01*
X76252046Y-92045414D01*
X76252052Y-92045421D01*
X84173228Y-99966595D01*
X84206713Y-100027918D01*
X84209075Y-100065081D01*
X84203677Y-100126795D01*
X84203677Y-100126802D01*
X84218977Y-100301694D01*
X84222930Y-100346868D01*
X84245796Y-100432207D01*
X84244134Y-100502056D01*
X84204972Y-100559919D01*
X84140744Y-100587423D01*
X84126022Y-100588300D01*
X75081830Y-100588300D01*
X75014791Y-100568615D01*
X74994149Y-100551981D01*
X74656648Y-100214480D01*
X74623163Y-100153157D01*
X74628147Y-100083465D01*
X74656648Y-100039118D01*
X75538348Y-99157419D01*
X75538348Y-99157418D01*
X75538351Y-99157416D01*
X75620484Y-99034495D01*
X75677058Y-98897913D01*
X75705900Y-98752918D01*
X75705900Y-98605083D01*
X75705900Y-83791482D01*
X75705900Y-83791479D01*
X75677059Y-83646492D01*
X75677058Y-83646491D01*
X75677058Y-83646487D01*
X75675281Y-83642196D01*
X75620487Y-83509911D01*
X75620480Y-83509898D01*
X75538352Y-83386985D01*
X75538351Y-83386984D01*
X75433816Y-83282449D01*
X75242948Y-83091581D01*
X75209463Y-83030258D01*
X75214447Y-82960566D01*
X75256319Y-82904633D01*
X75321783Y-82880216D01*
X75330629Y-82879900D01*
X76545988Y-82879900D01*
X76643530Y-82860496D01*
X76690981Y-82851058D01*
X76827563Y-82794484D01*
X76876797Y-82761586D01*
X76950484Y-82712352D01*
X77451617Y-82211217D01*
X77512940Y-82177733D01*
X77539298Y-82174899D01*
X77581471Y-82174899D01*
X77581472Y-82174899D01*
X77629321Y-82169755D01*
X77641075Y-82168492D01*
X77641076Y-82168491D01*
X77641083Y-82168491D01*
X77641089Y-82168488D01*
X77642078Y-82168255D01*
X77644136Y-82168162D01*
X77648797Y-82167662D01*
X77648828Y-82167953D01*
X77688251Y-82166191D01*
X77783600Y-82179900D01*
X77783603Y-82179900D01*
X78405486Y-82179900D01*
X78405489Y-82179900D01*
X78547904Y-82159424D01*
X78685859Y-82118917D01*
X78816737Y-82059147D01*
X78932077Y-81985022D01*
X78933515Y-81984204D01*
X78937698Y-81981411D01*
X79031767Y-81899898D01*
X79046432Y-81887191D01*
X79140586Y-81778530D01*
X79170578Y-81731861D01*
X79223382Y-81686106D01*
X79274894Y-81674900D01*
X79713248Y-81674900D01*
X79780287Y-81694585D01*
X79800929Y-81711219D01*
X79834450Y-81744740D01*
X79981284Y-81835308D01*
X80145047Y-81889574D01*
X80246123Y-81899900D01*
X80844476Y-81899899D01*
X80844484Y-81899898D01*
X80844487Y-81899898D01*
X80899830Y-81894244D01*
X80945553Y-81889574D01*
X81109316Y-81835308D01*
X81256150Y-81744740D01*
X81370475Y-81630414D01*
X81431794Y-81596932D01*
X81501486Y-81601916D01*
X81545834Y-81630417D01*
X81659761Y-81744344D01*
X81659765Y-81744347D01*
X81709102Y-81774779D01*
X81755827Y-81826727D01*
X81767048Y-81895689D01*
X81739205Y-81959771D01*
X81731686Y-81967998D01*
X80893483Y-82806201D01*
X80832160Y-82839686D01*
X80791920Y-82841741D01*
X80771238Y-82839411D01*
X80746600Y-82836635D01*
X80746598Y-82836635D01*
X80746597Y-82836635D01*
X80746596Y-82836635D01*
X80567350Y-82856830D01*
X80567345Y-82856831D01*
X80397076Y-82916411D01*
X80244337Y-83012384D01*
X80116784Y-83139937D01*
X80020811Y-83292676D01*
X79961231Y-83462945D01*
X79961230Y-83462950D01*
X79941035Y-83642196D01*
X79941035Y-83642203D01*
X79961230Y-83821449D01*
X79961231Y-83821454D01*
X80020811Y-83991723D01*
X80090176Y-84102116D01*
X80109176Y-84169353D01*
X80090176Y-84234060D01*
X79995411Y-84384876D01*
X79935831Y-84555145D01*
X79935830Y-84555150D01*
X79915635Y-84734396D01*
X79915635Y-84734403D01*
X79935830Y-84913649D01*
X79935831Y-84913654D01*
X79995411Y-85083923D01*
X80086204Y-85228418D01*
X80091384Y-85236662D01*
X80218938Y-85364216D01*
X80277282Y-85400876D01*
X80369150Y-85458601D01*
X80371678Y-85460189D01*
X80524852Y-85513787D01*
X80541945Y-85519768D01*
X80541950Y-85519769D01*
X80721196Y-85539965D01*
X80721200Y-85539965D01*
X80721204Y-85539965D01*
X80900449Y-85519769D01*
X80900452Y-85519768D01*
X80900455Y-85519768D01*
X80980217Y-85491857D01*
X81021172Y-85484900D01*
X81099920Y-85484900D01*
X81197462Y-85465496D01*
X81244913Y-85456058D01*
X81378130Y-85400878D01*
X81381488Y-85399487D01*
X81381488Y-85399486D01*
X81381495Y-85399484D01*
X81434277Y-85364216D01*
X81504416Y-85317352D01*
X82779155Y-84042612D01*
X82791290Y-84024449D01*
X82806707Y-84005663D01*
X84476007Y-82336362D01*
X84476012Y-82336359D01*
X84486215Y-82326155D01*
X84486217Y-82326155D01*
X84579420Y-82232952D01*
X84888552Y-81923820D01*
X84937786Y-81850133D01*
X84970684Y-81800899D01*
X85027258Y-81664317D01*
X85028616Y-81657494D01*
X85035527Y-81622750D01*
X85038889Y-81605848D01*
X85038889Y-81605845D01*
X85056100Y-81519322D01*
X85056100Y-55555511D01*
X89970500Y-55555511D01*
X89970500Y-55798088D01*
X90002161Y-56038585D01*
X90064947Y-56272904D01*
X90123207Y-56413555D01*
X90157776Y-56497012D01*
X90279064Y-56707089D01*
X90279066Y-56707092D01*
X90279067Y-56707093D01*
X90426733Y-56899536D01*
X90426739Y-56899543D01*
X90598256Y-57071060D01*
X90598262Y-57071065D01*
X90790711Y-57218736D01*
X91000788Y-57340024D01*
X91224900Y-57432854D01*
X91459211Y-57495638D01*
X91605888Y-57514948D01*
X91699711Y-57527300D01*
X91699712Y-57527300D01*
X91942289Y-57527300D01*
X91990388Y-57520967D01*
X92182789Y-57495638D01*
X92417100Y-57432854D01*
X92641212Y-57340024D01*
X92851289Y-57218736D01*
X93043738Y-57071065D01*
X93215265Y-56899538D01*
X93362936Y-56707089D01*
X93484224Y-56497012D01*
X93577054Y-56272900D01*
X93639838Y-56038589D01*
X93671500Y-55798088D01*
X93671500Y-55555512D01*
X93639838Y-55315011D01*
X93577054Y-55080700D01*
X93484224Y-54856588D01*
X93362936Y-54646511D01*
X93215265Y-54454062D01*
X93215260Y-54454056D01*
X93043743Y-54282539D01*
X93043736Y-54282533D01*
X92851293Y-54134867D01*
X92851292Y-54134866D01*
X92851289Y-54134864D01*
X92679661Y-54035774D01*
X92641214Y-54013577D01*
X92641205Y-54013573D01*
X92417104Y-53920747D01*
X92182785Y-53857961D01*
X91942289Y-53826300D01*
X91942288Y-53826300D01*
X91699712Y-53826300D01*
X91699711Y-53826300D01*
X91459214Y-53857961D01*
X91224895Y-53920747D01*
X91000794Y-54013573D01*
X91000785Y-54013577D01*
X90790706Y-54134867D01*
X90598263Y-54282533D01*
X90598256Y-54282539D01*
X90426739Y-54454056D01*
X90426733Y-54454063D01*
X90279067Y-54646506D01*
X90157777Y-54856585D01*
X90157773Y-54856594D01*
X90064947Y-55080695D01*
X90002161Y-55315014D01*
X89970500Y-55555511D01*
X85056100Y-55555511D01*
X85056100Y-55326482D01*
X85056100Y-55326479D01*
X85027259Y-55181492D01*
X85027258Y-55181491D01*
X85027258Y-55181487D01*
X84985509Y-55080695D01*
X84970687Y-55044911D01*
X84970680Y-55044898D01*
X84888552Y-54921985D01*
X84888551Y-54921984D01*
X84784016Y-54817449D01*
X82952640Y-52986072D01*
X82919155Y-52924749D01*
X82916793Y-52887586D01*
X82928323Y-52755800D01*
X82909070Y-52535732D01*
X82851894Y-52322350D01*
X82758534Y-52122139D01*
X82631826Y-51941180D01*
X82475620Y-51784974D01*
X82475616Y-51784971D01*
X82475615Y-51784970D01*
X82294666Y-51658268D01*
X82294662Y-51658266D01*
X82294660Y-51658265D01*
X82094450Y-51564906D01*
X82094447Y-51564905D01*
X82094445Y-51564904D01*
X82016637Y-51544056D01*
X81956977Y-51507691D01*
X81926448Y-51444844D01*
X81934743Y-51375468D01*
X81979228Y-51321591D01*
X82045780Y-51300316D01*
X82048731Y-51300281D01*
X103752245Y-51300281D01*
X103766130Y-51301061D01*
G37*
%TD.AperFunction*%
%TA.AperFunction,Conductor*%
G36*
X97987183Y-92198030D02*
G01*
X98021593Y-92204946D01*
X98071776Y-92253561D01*
X98087900Y-92314707D01*
X98087900Y-93107491D01*
X98068215Y-93174530D01*
X98015411Y-93220285D01*
X97946253Y-93230229D01*
X97882697Y-93201204D01*
X97876219Y-93195173D01*
X97821506Y-93140460D01*
X97741020Y-93059974D01*
X97741016Y-93059971D01*
X97741015Y-93059970D01*
X97560066Y-92933268D01*
X97560062Y-92933266D01*
X97430618Y-92872905D01*
X97378179Y-92826732D01*
X97359027Y-92759539D01*
X97379243Y-92692658D01*
X97430619Y-92648140D01*
X97559816Y-92587895D01*
X97559817Y-92587894D01*
X97624588Y-92542541D01*
X96953848Y-91871800D01*
X96976560Y-91871800D01*
X97073461Y-91845836D01*
X97160340Y-91795676D01*
X97231276Y-91724740D01*
X97281436Y-91637861D01*
X97307400Y-91540960D01*
X97307400Y-91518247D01*
X97987183Y-92198030D01*
G37*
%TD.AperFunction*%
%TA.AperFunction,Conductor*%
G36*
X98007234Y-89757926D02*
G01*
X98063167Y-89799798D01*
X98087584Y-89865262D01*
X98087900Y-89874108D01*
X98087900Y-90666891D01*
X98068215Y-90733930D01*
X98015411Y-90779685D01*
X97986000Y-90784750D01*
X97307400Y-91463351D01*
X97307400Y-91440640D01*
X97281436Y-91343739D01*
X97231276Y-91256860D01*
X97160340Y-91185924D01*
X97073461Y-91135764D01*
X96976560Y-91109800D01*
X96953848Y-91109800D01*
X97624588Y-90439059D01*
X97624587Y-90439058D01*
X97559811Y-90393701D01*
X97559805Y-90393698D01*
X97430619Y-90333458D01*
X97378179Y-90287286D01*
X97359027Y-90220093D01*
X97379243Y-90153211D01*
X97430619Y-90108694D01*
X97560062Y-90048334D01*
X97741020Y-89921626D01*
X97876219Y-89786427D01*
X97937542Y-89752942D01*
X98007234Y-89757926D01*
G37*
%TD.AperFunction*%
%TA.AperFunction,Conductor*%
G36*
X82815927Y-61174383D02*
G01*
X82851359Y-61234602D01*
X82855100Y-61264829D01*
X82855100Y-66013453D01*
X82835415Y-66080492D01*
X82782611Y-66126247D01*
X82718497Y-66136811D01*
X82669454Y-66131800D01*
X82620300Y-66131800D01*
X82620300Y-68081799D01*
X82669440Y-68081799D01*
X82669454Y-68081798D01*
X82718498Y-68076788D01*
X82787191Y-68089557D01*
X82838075Y-68137438D01*
X82855100Y-68200146D01*
X82855100Y-70610853D01*
X82835415Y-70677892D01*
X82782611Y-70723647D01*
X82718497Y-70734211D01*
X82669454Y-70729200D01*
X82620300Y-70729200D01*
X82620300Y-72679199D01*
X82669440Y-72679199D01*
X82669454Y-72679198D01*
X82718498Y-72674188D01*
X82787191Y-72686957D01*
X82838075Y-72734838D01*
X82855100Y-72797546D01*
X82855100Y-75208253D01*
X82835415Y-75275292D01*
X82782611Y-75321047D01*
X82718497Y-75331611D01*
X82669454Y-75326600D01*
X82620300Y-75326600D01*
X82620300Y-77276599D01*
X82669440Y-77276599D01*
X82669454Y-77276598D01*
X82718498Y-77271588D01*
X82787191Y-77284357D01*
X82838075Y-77332238D01*
X82855100Y-77394946D01*
X82855100Y-79831053D01*
X82835415Y-79898092D01*
X82782611Y-79943847D01*
X82718497Y-79954411D01*
X82669454Y-79949400D01*
X82620300Y-79949400D01*
X82620300Y-81028022D01*
X82600615Y-81095061D01*
X82583983Y-81115701D01*
X82561606Y-81138079D01*
X82500284Y-81171566D01*
X82473923Y-81174400D01*
X82244300Y-81174400D01*
X82177261Y-81154715D01*
X82131506Y-81101911D01*
X82120300Y-81050400D01*
X82120300Y-79949400D01*
X82120299Y-79949399D01*
X82071161Y-79949400D01*
X82071143Y-79949401D01*
X81970147Y-79959719D01*
X81806499Y-80013946D01*
X81806488Y-80013951D01*
X81659765Y-80104452D01*
X81545834Y-80218383D01*
X81484511Y-80251867D01*
X81414819Y-80246883D01*
X81370472Y-80218382D01*
X81256151Y-80104061D01*
X81256150Y-80104060D01*
X81135130Y-80029414D01*
X81109318Y-80013493D01*
X81109313Y-80013491D01*
X81107869Y-80013012D01*
X80945553Y-79959226D01*
X80945551Y-79959225D01*
X80844478Y-79948900D01*
X80246130Y-79948900D01*
X80246112Y-79948901D01*
X80145047Y-79959225D01*
X79981284Y-80013492D01*
X79981281Y-80013493D01*
X79834448Y-80104061D01*
X79800929Y-80137581D01*
X79739606Y-80171066D01*
X79713248Y-80173900D01*
X79274894Y-80173900D01*
X79207855Y-80154215D01*
X79170578Y-80116939D01*
X79140584Y-80070267D01*
X79140581Y-80070263D01*
X79046447Y-79961626D01*
X79046430Y-79961607D01*
X79046429Y-79961606D01*
X78937691Y-79867385D01*
X78881157Y-79831053D01*
X78816742Y-79789655D01*
X78816736Y-79789652D01*
X78745628Y-79757178D01*
X78685859Y-79729883D01*
X78599330Y-79704476D01*
X78547908Y-79689377D01*
X78547896Y-79689374D01*
X78405489Y-79668900D01*
X77783600Y-79668900D01*
X77783597Y-79668900D01*
X77711657Y-79674045D01*
X77699867Y-79677507D01*
X77649039Y-79678868D01*
X77648796Y-79681138D01*
X77581483Y-79673901D01*
X77581481Y-79673900D01*
X77581473Y-79673900D01*
X77581465Y-79673900D01*
X76617300Y-79673900D01*
X76550261Y-79654215D01*
X76504506Y-79601411D01*
X76493300Y-79549900D01*
X76493300Y-77676099D01*
X76512985Y-77609060D01*
X76565789Y-77563305D01*
X76617295Y-77552099D01*
X77590672Y-77552099D01*
X77638521Y-77546955D01*
X77650275Y-77545692D01*
X77650276Y-77545691D01*
X77650283Y-77545691D01*
X77650289Y-77545688D01*
X77651278Y-77545455D01*
X77653336Y-77545362D01*
X77657997Y-77544862D01*
X77658028Y-77545153D01*
X77697451Y-77543391D01*
X77792800Y-77557100D01*
X77792803Y-77557100D01*
X78414686Y-77557100D01*
X78414689Y-77557100D01*
X78557104Y-77536624D01*
X78695059Y-77496117D01*
X78825937Y-77436347D01*
X78861532Y-77413472D01*
X78941275Y-77362224D01*
X78942715Y-77361404D01*
X78946898Y-77358611D01*
X79024940Y-77290986D01*
X79055632Y-77264391D01*
X79149786Y-77155730D01*
X79179778Y-77109061D01*
X79232582Y-77063306D01*
X79284094Y-77052100D01*
X79713248Y-77052100D01*
X79780287Y-77071785D01*
X79800929Y-77088419D01*
X79834450Y-77121940D01*
X79981284Y-77212508D01*
X80145047Y-77266774D01*
X80246123Y-77277100D01*
X80844476Y-77277099D01*
X80844484Y-77277098D01*
X80844487Y-77277098D01*
X80918181Y-77269570D01*
X80945553Y-77266774D01*
X81109316Y-77212508D01*
X81256150Y-77121940D01*
X81370475Y-77007614D01*
X81431794Y-76974132D01*
X81501486Y-76979116D01*
X81545834Y-77007617D01*
X81659761Y-77121544D01*
X81659765Y-77121547D01*
X81806488Y-77212048D01*
X81806499Y-77212053D01*
X81970147Y-77266280D01*
X82071151Y-77276599D01*
X82120299Y-77276598D01*
X82120300Y-77276598D01*
X82120300Y-75326600D01*
X82120299Y-75326599D01*
X82071161Y-75326600D01*
X82071143Y-75326601D01*
X81970147Y-75336919D01*
X81806499Y-75391146D01*
X81806488Y-75391151D01*
X81659765Y-75481652D01*
X81545834Y-75595583D01*
X81484511Y-75629067D01*
X81414819Y-75624083D01*
X81370472Y-75595582D01*
X81256151Y-75481261D01*
X81256150Y-75481260D01*
X81122487Y-75398816D01*
X81109318Y-75390693D01*
X81109313Y-75390691D01*
X81077991Y-75380312D01*
X80945553Y-75336426D01*
X80945551Y-75336425D01*
X80844478Y-75326100D01*
X80246130Y-75326100D01*
X80246112Y-75326101D01*
X80145047Y-75336425D01*
X79981284Y-75390692D01*
X79981281Y-75390693D01*
X79834448Y-75481261D01*
X79800929Y-75514781D01*
X79739606Y-75548266D01*
X79713248Y-75551100D01*
X79284094Y-75551100D01*
X79217055Y-75531415D01*
X79179778Y-75494139D01*
X79149784Y-75447467D01*
X79149781Y-75447463D01*
X79055647Y-75338826D01*
X79055630Y-75338807D01*
X79055629Y-75338806D01*
X78946891Y-75244585D01*
X78890357Y-75208253D01*
X78825942Y-75166855D01*
X78825936Y-75166852D01*
X78737239Y-75126346D01*
X78695059Y-75107083D01*
X78608530Y-75081676D01*
X78557108Y-75066577D01*
X78557096Y-75066574D01*
X78414689Y-75046100D01*
X77792800Y-75046100D01*
X77792797Y-75046100D01*
X77720857Y-75051245D01*
X77709067Y-75054707D01*
X77658239Y-75056068D01*
X77657996Y-75058338D01*
X77590683Y-75051101D01*
X77590681Y-75051100D01*
X77590673Y-75051100D01*
X77590665Y-75051100D01*
X77548497Y-75051100D01*
X77481458Y-75031415D01*
X77460816Y-75014781D01*
X76317418Y-73871381D01*
X76283933Y-73810058D01*
X76288917Y-73740366D01*
X76330789Y-73684433D01*
X76396253Y-73660016D01*
X76405099Y-73659700D01*
X76994120Y-73659700D01*
X77091662Y-73640296D01*
X77139113Y-73630858D01*
X77207404Y-73602571D01*
X77275691Y-73574286D01*
X77275692Y-73574285D01*
X77275695Y-73574284D01*
X77331345Y-73537100D01*
X77398616Y-73492152D01*
X77625752Y-73265015D01*
X77681834Y-73181081D01*
X77707884Y-73142095D01*
X77735247Y-73076035D01*
X77741723Y-73060400D01*
X77751728Y-73036247D01*
X77795570Y-72981843D01*
X77861864Y-72959779D01*
X77866289Y-72959700D01*
X78414686Y-72959700D01*
X78414689Y-72959700D01*
X78557104Y-72939224D01*
X78695059Y-72898717D01*
X78825937Y-72838947D01*
X78941277Y-72764822D01*
X78942715Y-72764004D01*
X78946898Y-72761211D01*
X79008753Y-72707612D01*
X79055632Y-72666991D01*
X79149786Y-72558330D01*
X79179778Y-72511661D01*
X79232582Y-72465906D01*
X79284094Y-72454700D01*
X79713248Y-72454700D01*
X79780287Y-72474385D01*
X79800929Y-72491019D01*
X79834450Y-72524540D01*
X79981284Y-72615108D01*
X80145047Y-72669374D01*
X80246123Y-72679700D01*
X80844476Y-72679699D01*
X80844484Y-72679698D01*
X80844487Y-72679698D01*
X80901294Y-72673895D01*
X80945553Y-72669374D01*
X81109316Y-72615108D01*
X81256150Y-72524540D01*
X81370475Y-72410214D01*
X81431794Y-72376732D01*
X81501486Y-72381716D01*
X81545834Y-72410217D01*
X81659761Y-72524144D01*
X81659765Y-72524147D01*
X81806488Y-72614648D01*
X81806499Y-72614653D01*
X81970147Y-72668880D01*
X82071151Y-72679199D01*
X82120299Y-72679198D01*
X82120300Y-72679198D01*
X82120300Y-70729200D01*
X82120299Y-70729199D01*
X82071161Y-70729200D01*
X82071143Y-70729201D01*
X81970147Y-70739519D01*
X81806499Y-70793746D01*
X81806488Y-70793751D01*
X81659765Y-70884252D01*
X81545834Y-70998183D01*
X81484511Y-71031667D01*
X81414819Y-71026683D01*
X81370472Y-70998182D01*
X81256151Y-70883861D01*
X81256150Y-70883860D01*
X81157156Y-70822800D01*
X81109318Y-70793293D01*
X81109313Y-70793291D01*
X81107869Y-70792812D01*
X80945553Y-70739026D01*
X80945551Y-70739025D01*
X80844478Y-70728700D01*
X80246130Y-70728700D01*
X80246112Y-70728701D01*
X80145047Y-70739025D01*
X79981284Y-70793292D01*
X79981281Y-70793293D01*
X79834448Y-70883861D01*
X79800929Y-70917381D01*
X79739606Y-70950866D01*
X79713248Y-70953700D01*
X79284094Y-70953700D01*
X79217055Y-70934015D01*
X79179778Y-70896739D01*
X79153955Y-70856557D01*
X79149786Y-70850070D01*
X79149785Y-70850069D01*
X79149784Y-70850067D01*
X79149781Y-70850063D01*
X79055647Y-70741426D01*
X79055630Y-70741407D01*
X79055629Y-70741406D01*
X78946891Y-70647185D01*
X78890357Y-70610853D01*
X78825942Y-70569455D01*
X78825936Y-70569452D01*
X78754828Y-70536978D01*
X78695059Y-70509683D01*
X78584224Y-70477139D01*
X78557108Y-70469177D01*
X78557096Y-70469174D01*
X78414689Y-70448700D01*
X77792800Y-70448700D01*
X77792797Y-70448700D01*
X77720857Y-70453845D01*
X77709067Y-70457307D01*
X77658239Y-70458668D01*
X77657996Y-70460938D01*
X77590683Y-70453701D01*
X77590681Y-70453700D01*
X77590673Y-70453700D01*
X77590664Y-70453700D01*
X76494929Y-70453700D01*
X76494925Y-70453701D01*
X76435311Y-70460109D01*
X76434303Y-70460348D01*
X76432238Y-70460440D01*
X76427607Y-70460938D01*
X76427575Y-70460648D01*
X76388148Y-70462408D01*
X76292800Y-70448700D01*
X75670911Y-70448700D01*
X75670909Y-70448700D01*
X75625471Y-70455233D01*
X75556313Y-70445289D01*
X75520144Y-70420176D01*
X75312549Y-70212581D01*
X75279064Y-70151258D01*
X75284048Y-70081566D01*
X75325920Y-70025633D01*
X75391384Y-70001216D01*
X75400230Y-70000900D01*
X76350120Y-70000900D01*
X76447662Y-69981496D01*
X76495113Y-69972058D01*
X76631695Y-69915484D01*
X76680929Y-69882586D01*
X76683073Y-69881154D01*
X76721388Y-69855553D01*
X76754616Y-69833352D01*
X77752751Y-68835216D01*
X77834884Y-68712295D01*
X77891458Y-68575713D01*
X77914056Y-68462109D01*
X77946441Y-68400198D01*
X78007157Y-68365623D01*
X78035673Y-68362300D01*
X78541686Y-68362300D01*
X78541689Y-68362300D01*
X78684104Y-68341824D01*
X78822059Y-68301317D01*
X78952937Y-68241547D01*
X78980607Y-68223765D01*
X79068275Y-68167424D01*
X79069715Y-68166604D01*
X79073898Y-68163811D01*
X79155785Y-68092854D01*
X79182632Y-68069591D01*
X79276786Y-67960930D01*
X79306778Y-67914261D01*
X79359582Y-67868506D01*
X79411094Y-67857300D01*
X79713248Y-67857300D01*
X79780287Y-67876985D01*
X79800928Y-67893618D01*
X79834450Y-67927140D01*
X79981284Y-68017708D01*
X80145047Y-68071974D01*
X80246123Y-68082300D01*
X80844476Y-68082299D01*
X80844484Y-68082298D01*
X80844487Y-68082298D01*
X80910027Y-68075603D01*
X80945553Y-68071974D01*
X81109316Y-68017708D01*
X81256150Y-67927140D01*
X81370475Y-67812814D01*
X81431794Y-67779332D01*
X81501486Y-67784316D01*
X81545834Y-67812817D01*
X81659761Y-67926744D01*
X81659765Y-67926747D01*
X81806488Y-68017248D01*
X81806499Y-68017253D01*
X81970147Y-68071480D01*
X82071151Y-68081799D01*
X82120299Y-68081798D01*
X82120300Y-68081798D01*
X82120300Y-66131800D01*
X82120299Y-66131799D01*
X82071161Y-66131800D01*
X82071143Y-66131801D01*
X81970147Y-66142119D01*
X81806499Y-66196346D01*
X81806488Y-66196351D01*
X81659765Y-66286852D01*
X81545834Y-66400783D01*
X81484511Y-66434267D01*
X81414819Y-66429283D01*
X81370472Y-66400782D01*
X81256151Y-66286461D01*
X81256150Y-66286460D01*
X81164929Y-66230195D01*
X81109318Y-66195893D01*
X81109313Y-66195891D01*
X81107869Y-66195412D01*
X80945553Y-66141626D01*
X80945551Y-66141625D01*
X80844478Y-66131300D01*
X80246130Y-66131300D01*
X80246112Y-66131301D01*
X80145047Y-66141625D01*
X79981284Y-66195892D01*
X79981281Y-66195893D01*
X79834448Y-66286461D01*
X79800929Y-66319981D01*
X79739606Y-66353466D01*
X79713248Y-66356300D01*
X79411094Y-66356300D01*
X79344055Y-66336615D01*
X79306778Y-66299339D01*
X79276784Y-66252667D01*
X79276781Y-66252663D01*
X79182647Y-66144026D01*
X79182630Y-66144007D01*
X79182629Y-66144006D01*
X79073891Y-66049785D01*
X79017357Y-66013453D01*
X78952942Y-65972055D01*
X78952936Y-65972052D01*
X78881828Y-65939578D01*
X78822059Y-65912283D01*
X78735530Y-65886876D01*
X78684108Y-65871777D01*
X78684096Y-65871774D01*
X78541689Y-65851300D01*
X77919800Y-65851300D01*
X77919797Y-65851300D01*
X77847857Y-65856445D01*
X77836067Y-65859907D01*
X77785239Y-65861268D01*
X77784996Y-65863538D01*
X77717683Y-65856301D01*
X77717681Y-65856300D01*
X77717673Y-65856300D01*
X77717665Y-65856300D01*
X77541229Y-65856300D01*
X77474190Y-65836615D01*
X77428435Y-65783811D01*
X77418491Y-65714653D01*
X77447516Y-65651097D01*
X77453548Y-65644619D01*
X78384698Y-64713469D01*
X81430727Y-61667438D01*
X81492048Y-61633955D01*
X81529211Y-61631593D01*
X81638712Y-61641173D01*
X81660999Y-61643123D01*
X81661000Y-61643123D01*
X81661002Y-61643123D01*
X81731605Y-61636946D01*
X81881068Y-61623870D01*
X82094450Y-61566694D01*
X82294662Y-61473334D01*
X82475620Y-61346626D01*
X82631826Y-61190420D01*
X82631831Y-61190411D01*
X82635310Y-61186268D01*
X82637033Y-61187714D01*
X82684066Y-61150095D01*
X82753562Y-61142880D01*
X82815927Y-61174383D01*
G37*
%TD.AperFunction*%
%TA.AperFunction,Conductor*%
G36*
X74680339Y-76350585D02*
G01*
X74726094Y-76403389D01*
X74737300Y-76454900D01*
X74737300Y-76567169D01*
X74737303Y-76567201D01*
X74737303Y-76623541D01*
X74756039Y-76753851D01*
X74756503Y-76757078D01*
X74756503Y-76757081D01*
X74757764Y-76765855D01*
X74798303Y-76903913D01*
X74858023Y-77034681D01*
X74858027Y-77034687D01*
X74858030Y-77034694D01*
X74935814Y-77155730D01*
X74946748Y-77168349D01*
X74962013Y-77185965D01*
X74991038Y-77249521D01*
X74992300Y-77267168D01*
X74992300Y-79948213D01*
X74972615Y-80015252D01*
X74962014Y-80029414D01*
X74926617Y-80070264D01*
X74926615Y-80070267D01*
X74848831Y-80191305D01*
X74848823Y-80191318D01*
X74799821Y-80298618D01*
X74754066Y-80351422D01*
X74687026Y-80371106D01*
X74619987Y-80351421D01*
X74599346Y-80334787D01*
X72603228Y-78338669D01*
X72569743Y-78277346D01*
X72574727Y-78207654D01*
X72616599Y-78151721D01*
X72682063Y-78127304D01*
X72723003Y-78131213D01*
X72790399Y-78149271D01*
X72790400Y-78149271D01*
X72790400Y-77186086D01*
X72794794Y-77190480D01*
X72886006Y-77243141D01*
X72987739Y-77270400D01*
X73093061Y-77270400D01*
X73194794Y-77243141D01*
X73286006Y-77190480D01*
X73290400Y-77186086D01*
X73290400Y-78149272D01*
X73486717Y-78096669D01*
X73486726Y-78096665D01*
X73692882Y-78000534D01*
X73879220Y-77870057D01*
X74040057Y-77709220D01*
X74170534Y-77522882D01*
X74266665Y-77316726D01*
X74266669Y-77316717D01*
X74319272Y-77120400D01*
X73356086Y-77120400D01*
X73360480Y-77116006D01*
X73413141Y-77024794D01*
X73440400Y-76923061D01*
X73440400Y-76817739D01*
X73413141Y-76716006D01*
X73360480Y-76624794D01*
X73356086Y-76620400D01*
X74319272Y-76620400D01*
X74319271Y-76620399D01*
X74283526Y-76486994D01*
X74285189Y-76417144D01*
X74324351Y-76359281D01*
X74388580Y-76331777D01*
X74403301Y-76330900D01*
X74613300Y-76330900D01*
X74680339Y-76350585D01*
G37*
%TD.AperFunction*%
%TA.AperFunction,Conductor*%
G36*
X69398209Y-72560585D02*
G01*
X69418851Y-72577219D01*
X69683981Y-72842348D01*
X69717466Y-72903671D01*
X69720300Y-72930029D01*
X69720300Y-77269570D01*
X69700615Y-77336609D01*
X69647811Y-77382364D01*
X69578653Y-77392308D01*
X69515097Y-77363283D01*
X69508619Y-77357251D01*
X66747116Y-74595748D01*
X66713631Y-74534425D01*
X66711269Y-74497263D01*
X66725868Y-74330400D01*
X66706035Y-74103708D01*
X66647139Y-73883904D01*
X66550968Y-73677666D01*
X66420447Y-73491261D01*
X66420445Y-73491258D01*
X66259541Y-73330354D01*
X66073134Y-73199832D01*
X66073128Y-73199829D01*
X66032940Y-73181089D01*
X66015124Y-73172781D01*
X65962685Y-73126610D01*
X65943533Y-73059417D01*
X65963748Y-72992535D01*
X66015125Y-72948018D01*
X66031123Y-72940558D01*
X66073134Y-72920968D01*
X66259539Y-72790447D01*
X66420447Y-72629539D01*
X66443951Y-72595972D01*
X66445488Y-72593777D01*
X66500065Y-72550152D01*
X66547063Y-72540900D01*
X69331170Y-72540900D01*
X69398209Y-72560585D01*
G37*
%TD.AperFunction*%
%TA.AperFunction,Conductor*%
G36*
X71426503Y-75546083D02*
G01*
X71432981Y-75552115D01*
X71914331Y-76033465D01*
X71947816Y-76094788D01*
X71942832Y-76164480D01*
X71928225Y-76192269D01*
X71910266Y-76217916D01*
X71910265Y-76217918D01*
X71814134Y-76424073D01*
X71814130Y-76424082D01*
X71761527Y-76620399D01*
X71761528Y-76620400D01*
X72724714Y-76620400D01*
X72720320Y-76624794D01*
X72667659Y-76716006D01*
X72640400Y-76817739D01*
X72640400Y-76923061D01*
X72667659Y-77024794D01*
X72720320Y-77116006D01*
X72724714Y-77120400D01*
X71761527Y-77120400D01*
X71779586Y-77187797D01*
X71777923Y-77257647D01*
X71738760Y-77315509D01*
X71674532Y-77343013D01*
X71605629Y-77331426D01*
X71572130Y-77307571D01*
X71257619Y-76993060D01*
X71224134Y-76931737D01*
X71221300Y-76905379D01*
X71221300Y-75639796D01*
X71240985Y-75572757D01*
X71293789Y-75527002D01*
X71362947Y-75517058D01*
X71426503Y-75546083D01*
G37*
%TD.AperFunction*%
%TA.AperFunction,Conductor*%
G36*
X73720308Y-51319966D02*
G01*
X73766063Y-51372770D01*
X73776007Y-51441928D01*
X73746982Y-51505484D01*
X73688204Y-51543258D01*
X73685363Y-51544056D01*
X73607554Y-51564904D01*
X73607548Y-51564907D01*
X73407340Y-51658265D01*
X73407338Y-51658266D01*
X73226377Y-51784975D01*
X73070175Y-51941177D01*
X72943466Y-52122138D01*
X72943465Y-52122140D01*
X72850107Y-52322348D01*
X72850104Y-52322354D01*
X72792930Y-52535729D01*
X72792929Y-52535737D01*
X72773677Y-52755797D01*
X72773677Y-52755802D01*
X72792929Y-52975862D01*
X72792930Y-52975870D01*
X72850104Y-53189245D01*
X72850105Y-53189247D01*
X72850106Y-53189250D01*
X72883106Y-53260018D01*
X72943466Y-53389462D01*
X72943468Y-53389466D01*
X73070170Y-53570415D01*
X73070175Y-53570421D01*
X73226378Y-53726624D01*
X73226384Y-53726629D01*
X73407333Y-53853331D01*
X73407335Y-53853332D01*
X73407338Y-53853334D01*
X73607550Y-53946694D01*
X73820932Y-54003870D01*
X73970395Y-54016946D01*
X74040998Y-54023123D01*
X74041000Y-54023123D01*
X74041002Y-54023123D01*
X74111605Y-54016946D01*
X74261068Y-54003870D01*
X74474450Y-53946694D01*
X74674662Y-53853334D01*
X74855620Y-53726626D01*
X75011826Y-53570420D01*
X75138534Y-53389462D01*
X75198894Y-53260018D01*
X75245066Y-53207579D01*
X75312259Y-53188427D01*
X75379141Y-53208643D01*
X75423658Y-53260019D01*
X75483898Y-53389205D01*
X75483901Y-53389211D01*
X75529258Y-53453987D01*
X75529259Y-53453988D01*
X76200000Y-52783247D01*
X76200000Y-52805960D01*
X76225964Y-52902861D01*
X76276124Y-52989740D01*
X76347060Y-53060676D01*
X76433939Y-53110836D01*
X76530840Y-53136800D01*
X76553553Y-53136800D01*
X75882810Y-53807540D01*
X75947590Y-53852899D01*
X75947592Y-53852900D01*
X76147715Y-53946219D01*
X76147729Y-53946224D01*
X76361013Y-54003373D01*
X76361023Y-54003375D01*
X76580999Y-54022621D01*
X76581001Y-54022621D01*
X76800976Y-54003375D01*
X76800986Y-54003373D01*
X77014270Y-53946224D01*
X77014284Y-53946219D01*
X77214407Y-53852900D01*
X77214417Y-53852894D01*
X77279188Y-53807541D01*
X76608448Y-53136800D01*
X76631160Y-53136800D01*
X76728061Y-53110836D01*
X76814940Y-53060676D01*
X76885876Y-52989740D01*
X76936036Y-52902861D01*
X76962000Y-52805960D01*
X76962000Y-52783247D01*
X77632741Y-53453988D01*
X77678094Y-53389217D01*
X77678095Y-53389216D01*
X77738340Y-53260019D01*
X77784512Y-53207580D01*
X77851706Y-53188427D01*
X77918587Y-53208642D01*
X77963105Y-53260018D01*
X78023466Y-53389462D01*
X78023468Y-53389466D01*
X78150170Y-53570415D01*
X78150175Y-53570421D01*
X78306378Y-53726624D01*
X78306384Y-53726629D01*
X78487333Y-53853331D01*
X78487335Y-53853332D01*
X78487338Y-53853334D01*
X78687550Y-53946694D01*
X78900932Y-54003870D01*
X79050395Y-54016946D01*
X79120998Y-54023123D01*
X79121000Y-54023123D01*
X79121001Y-54023123D01*
X79138521Y-54021590D01*
X79252784Y-54011593D01*
X79321283Y-54025359D01*
X79351272Y-54047440D01*
X82818781Y-57514948D01*
X82852266Y-57576271D01*
X82855100Y-57602629D01*
X82855100Y-59486770D01*
X82835415Y-59553809D01*
X82782611Y-59599564D01*
X82713453Y-59609508D01*
X82649897Y-59580483D01*
X82635829Y-59564885D01*
X82635305Y-59565325D01*
X82631832Y-59561186D01*
X82557416Y-59486770D01*
X82475620Y-59404974D01*
X82475616Y-59404971D01*
X82475615Y-59404970D01*
X82294666Y-59278268D01*
X82294662Y-59278266D01*
X82294660Y-59278265D01*
X82094450Y-59184906D01*
X82094447Y-59184905D01*
X82094445Y-59184904D01*
X81881070Y-59127730D01*
X81881062Y-59127729D01*
X81661002Y-59108477D01*
X81660998Y-59108477D01*
X81440937Y-59127729D01*
X81440929Y-59127730D01*
X81227554Y-59184904D01*
X81227548Y-59184907D01*
X81027340Y-59278265D01*
X81027338Y-59278266D01*
X80846377Y-59404975D01*
X80690175Y-59561177D01*
X80563466Y-59742138D01*
X80563465Y-59742140D01*
X80503382Y-59870989D01*
X80457209Y-59923428D01*
X80390016Y-59942580D01*
X80323135Y-59922364D01*
X80278618Y-59870989D01*
X80218651Y-59742390D01*
X80218534Y-59742139D01*
X80145437Y-59637745D01*
X80091827Y-59561181D01*
X80017416Y-59486770D01*
X79935620Y-59404974D01*
X79935616Y-59404971D01*
X79935615Y-59404970D01*
X79754666Y-59278268D01*
X79754662Y-59278266D01*
X79754660Y-59278265D01*
X79554450Y-59184906D01*
X79554447Y-59184905D01*
X79554445Y-59184904D01*
X79341070Y-59127730D01*
X79341062Y-59127729D01*
X79121002Y-59108477D01*
X79120998Y-59108477D01*
X78900937Y-59127729D01*
X78900929Y-59127730D01*
X78687554Y-59184904D01*
X78687548Y-59184907D01*
X78487340Y-59278265D01*
X78487338Y-59278266D01*
X78306377Y-59404975D01*
X78150175Y-59561177D01*
X78023467Y-59742137D01*
X77963105Y-59871582D01*
X77916932Y-59924021D01*
X77849738Y-59943172D01*
X77782857Y-59922956D01*
X77738341Y-59871580D01*
X77678098Y-59742389D01*
X77678097Y-59742387D01*
X77632741Y-59677611D01*
X77632740Y-59677610D01*
X76962000Y-60348351D01*
X76962000Y-60325640D01*
X76936036Y-60228739D01*
X76885876Y-60141860D01*
X76814940Y-60070924D01*
X76728061Y-60020764D01*
X76631160Y-59994800D01*
X76608448Y-59994800D01*
X77279188Y-59324059D01*
X77279187Y-59324058D01*
X77214411Y-59278701D01*
X77214405Y-59278698D01*
X77014284Y-59185380D01*
X77014270Y-59185375D01*
X76800986Y-59128226D01*
X76800976Y-59128224D01*
X76581001Y-59108979D01*
X76580999Y-59108979D01*
X76361023Y-59128224D01*
X76361013Y-59128226D01*
X76147729Y-59185375D01*
X76147720Y-59185379D01*
X75947590Y-59278701D01*
X75882811Y-59324058D01*
X76553553Y-59994800D01*
X76530840Y-59994800D01*
X76433939Y-60020764D01*
X76347060Y-60070924D01*
X76276124Y-60141860D01*
X76225964Y-60228739D01*
X76200000Y-60325640D01*
X76200000Y-60348353D01*
X75529258Y-59677611D01*
X75483901Y-59742390D01*
X75423658Y-59871581D01*
X75377485Y-59924020D01*
X75310292Y-59943172D01*
X75243411Y-59922956D01*
X75198894Y-59871581D01*
X75138651Y-59742390D01*
X75138534Y-59742139D01*
X75065437Y-59637745D01*
X75011827Y-59561181D01*
X74937416Y-59486770D01*
X74855620Y-59404974D01*
X74855616Y-59404971D01*
X74855615Y-59404970D01*
X74674666Y-59278268D01*
X74674662Y-59278266D01*
X74674660Y-59278265D01*
X74474450Y-59184906D01*
X74474447Y-59184905D01*
X74474445Y-59184904D01*
X74261070Y-59127730D01*
X74261062Y-59127729D01*
X74041002Y-59108477D01*
X74040998Y-59108477D01*
X73820937Y-59127729D01*
X73820929Y-59127730D01*
X73607554Y-59184904D01*
X73607548Y-59184907D01*
X73407340Y-59278265D01*
X73407338Y-59278266D01*
X73226377Y-59404975D01*
X73070175Y-59561177D01*
X72943466Y-59742138D01*
X72943465Y-59742140D01*
X72850107Y-59942348D01*
X72850104Y-59942354D01*
X72792930Y-60155729D01*
X72792929Y-60155737D01*
X72773677Y-60375797D01*
X72773677Y-60375802D01*
X72792929Y-60595862D01*
X72792930Y-60595870D01*
X72850104Y-60809245D01*
X72850105Y-60809247D01*
X72850106Y-60809250D01*
X72883106Y-60880019D01*
X72943466Y-61009462D01*
X72943468Y-61009466D01*
X73070170Y-61190415D01*
X73070175Y-61190421D01*
X73226378Y-61346624D01*
X73226384Y-61346629D01*
X73407333Y-61473331D01*
X73407335Y-61473332D01*
X73407338Y-61473334D01*
X73607550Y-61566694D01*
X73820932Y-61623870D01*
X73970395Y-61636946D01*
X74040998Y-61643123D01*
X74041000Y-61643123D01*
X74041002Y-61643123D01*
X74111605Y-61636946D01*
X74261068Y-61623870D01*
X74474450Y-61566694D01*
X74674662Y-61473334D01*
X74855620Y-61346626D01*
X75011826Y-61190420D01*
X75138534Y-61009462D01*
X75198894Y-60880018D01*
X75245066Y-60827579D01*
X75312259Y-60808427D01*
X75379141Y-60828643D01*
X75423658Y-60880019D01*
X75483898Y-61009205D01*
X75483901Y-61009211D01*
X75529258Y-61073987D01*
X75529259Y-61073988D01*
X76200000Y-60403247D01*
X76200000Y-60425960D01*
X76225964Y-60522861D01*
X76276124Y-60609740D01*
X76347060Y-60680676D01*
X76433939Y-60730836D01*
X76530840Y-60756800D01*
X76553553Y-60756800D01*
X75882810Y-61427540D01*
X75947590Y-61472899D01*
X75947592Y-61472900D01*
X76147715Y-61566219D01*
X76147729Y-61566224D01*
X76361013Y-61623373D01*
X76361024Y-61623375D01*
X76510863Y-61636484D01*
X76575932Y-61661936D01*
X76616911Y-61718527D01*
X76620789Y-61788289D01*
X76587737Y-61847693D01*
X74020451Y-64414981D01*
X73959128Y-64448466D01*
X73932770Y-64451300D01*
X66637359Y-64451300D01*
X66608525Y-64457034D01*
X66608526Y-64457035D01*
X66492376Y-64480139D01*
X66492366Y-64480142D01*
X66412364Y-64513279D01*
X66412365Y-64513280D01*
X66355789Y-64536715D01*
X66355781Y-64536719D01*
X66314198Y-64564505D01*
X66314197Y-64564505D01*
X66232868Y-64618846D01*
X66232861Y-64618852D01*
X62887448Y-67964266D01*
X62869535Y-67991075D01*
X62851742Y-68017707D01*
X62851741Y-68017708D01*
X62805319Y-68087182D01*
X62805312Y-68087194D01*
X62748743Y-68223765D01*
X62748740Y-68223775D01*
X62719900Y-68368762D01*
X62719900Y-74064660D01*
X62700215Y-74131699D01*
X62647411Y-74177454D01*
X62578253Y-74187398D01*
X62514697Y-74158373D01*
X62508219Y-74152341D01*
X62503662Y-74147784D01*
X62350924Y-74051812D01*
X62350920Y-74051810D01*
X62278043Y-74026309D01*
X62231317Y-73996949D01*
X54092684Y-65858316D01*
X54059199Y-65796993D01*
X54062434Y-65732317D01*
X54076802Y-65688101D01*
X54103900Y-65517011D01*
X54103900Y-65343789D01*
X54076802Y-65172699D01*
X54023273Y-65007955D01*
X53944632Y-64853612D01*
X53842814Y-64713472D01*
X53720328Y-64590986D01*
X53580188Y-64489168D01*
X53425845Y-64410527D01*
X53261101Y-64356998D01*
X53261099Y-64356997D01*
X53261098Y-64356997D01*
X53129671Y-64336181D01*
X53090011Y-64329900D01*
X52116789Y-64329900D01*
X52077128Y-64336181D01*
X51945702Y-64356997D01*
X51780952Y-64410528D01*
X51626611Y-64489168D01*
X51593423Y-64513281D01*
X51497165Y-64583216D01*
X51431360Y-64606696D01*
X51363306Y-64590871D01*
X51314612Y-64540765D01*
X51300281Y-64482898D01*
X51300281Y-55555511D01*
X61979700Y-55555511D01*
X61979700Y-55798088D01*
X62011361Y-56038585D01*
X62074147Y-56272904D01*
X62132407Y-56413555D01*
X62166976Y-56497012D01*
X62288264Y-56707089D01*
X62288266Y-56707092D01*
X62288267Y-56707093D01*
X62435933Y-56899536D01*
X62435939Y-56899543D01*
X62607456Y-57071060D01*
X62607462Y-57071065D01*
X62799911Y-57218736D01*
X63009988Y-57340024D01*
X63234100Y-57432854D01*
X63468411Y-57495638D01*
X63615088Y-57514948D01*
X63708911Y-57527300D01*
X63708912Y-57527300D01*
X63951489Y-57527300D01*
X63999588Y-57520967D01*
X64191989Y-57495638D01*
X64426300Y-57432854D01*
X64650412Y-57340024D01*
X64860489Y-57218736D01*
X65052938Y-57071065D01*
X65224465Y-56899538D01*
X65372136Y-56707089D01*
X65493424Y-56497012D01*
X65586254Y-56272900D01*
X65649038Y-56038589D01*
X65680700Y-55798088D01*
X65680700Y-55555512D01*
X65649038Y-55315011D01*
X65586254Y-55080700D01*
X65493424Y-54856588D01*
X65372136Y-54646511D01*
X65224465Y-54454062D01*
X65224460Y-54454056D01*
X65052943Y-54282539D01*
X65052936Y-54282533D01*
X64860493Y-54134867D01*
X64860492Y-54134866D01*
X64860489Y-54134864D01*
X64688861Y-54035774D01*
X64650414Y-54013577D01*
X64650405Y-54013573D01*
X64426304Y-53920747D01*
X64191985Y-53857961D01*
X63951489Y-53826300D01*
X63951488Y-53826300D01*
X63708912Y-53826300D01*
X63708911Y-53826300D01*
X63468414Y-53857961D01*
X63234095Y-53920747D01*
X63009994Y-54013573D01*
X63009985Y-54013577D01*
X62799906Y-54134867D01*
X62607463Y-54282533D01*
X62607456Y-54282539D01*
X62435939Y-54454056D01*
X62435933Y-54454063D01*
X62288267Y-54646506D01*
X62166977Y-54856585D01*
X62166973Y-54856594D01*
X62074147Y-55080695D01*
X62011361Y-55315014D01*
X61979700Y-55555511D01*
X51300281Y-55555511D01*
X51300281Y-51848154D01*
X51301061Y-51834269D01*
X51306616Y-51784974D01*
X51312280Y-51734705D01*
X51318457Y-51707645D01*
X51349237Y-51619683D01*
X51361280Y-51594675D01*
X51410864Y-51515763D01*
X51428169Y-51494064D01*
X51494064Y-51428169D01*
X51515763Y-51410864D01*
X51594675Y-51361280D01*
X51619683Y-51349237D01*
X51707645Y-51318457D01*
X51734705Y-51312280D01*
X51808847Y-51303925D01*
X51834270Y-51301061D01*
X51848155Y-51300281D01*
X73653269Y-51300281D01*
X73720308Y-51319966D01*
G37*
%TD.AperFunction*%
%TA.AperFunction,Conductor*%
G36*
X99367800Y-72750030D02*
G01*
X99433926Y-72739557D01*
X99433929Y-72739557D01*
X99636017Y-72673895D01*
X99825357Y-72577420D01*
X99997258Y-72452528D01*
X100136130Y-72313656D01*
X100197453Y-72280171D01*
X100267145Y-72285155D01*
X100323079Y-72327026D01*
X100329351Y-72336240D01*
X100332985Y-72342132D01*
X100332986Y-72342134D01*
X100425088Y-72491456D01*
X100549144Y-72615512D01*
X100698466Y-72707614D01*
X100865003Y-72762799D01*
X100967791Y-72773300D01*
X101103448Y-72773299D01*
X101170486Y-72792983D01*
X101216241Y-72845787D01*
X101226185Y-72914945D01*
X101197161Y-72978501D01*
X101191129Y-72984980D01*
X101146918Y-73029190D01*
X101060188Y-73115921D01*
X100998868Y-73149405D01*
X100972509Y-73152239D01*
X91124090Y-73152239D01*
X91057051Y-73132554D01*
X91011296Y-73079750D01*
X91001352Y-73010592D01*
X91030377Y-72947036D01*
X91036401Y-72940565D01*
X91201083Y-72775882D01*
X91262405Y-72742399D01*
X91308161Y-72741092D01*
X91511513Y-72773300D01*
X91511514Y-72773300D01*
X91724086Y-72773300D01*
X91724087Y-72773300D01*
X91934043Y-72740046D01*
X92136212Y-72674357D01*
X92325616Y-72577851D01*
X92399538Y-72524144D01*
X92497586Y-72452909D01*
X92497588Y-72452906D01*
X92497592Y-72452904D01*
X92647904Y-72302592D01*
X92767483Y-72138004D01*
X92822811Y-72095340D01*
X92892424Y-72089361D01*
X92954220Y-72121966D01*
X92968113Y-72137999D01*
X93032555Y-72226696D01*
X93087696Y-72302592D01*
X93238013Y-72452909D01*
X93409979Y-72577848D01*
X93409981Y-72577849D01*
X93409984Y-72577851D01*
X93599388Y-72674357D01*
X93801557Y-72740046D01*
X94011513Y-72773300D01*
X94011514Y-72773300D01*
X94224086Y-72773300D01*
X94224087Y-72773300D01*
X94434043Y-72740046D01*
X94636212Y-72674357D01*
X94825616Y-72577851D01*
X94899538Y-72524144D01*
X94997586Y-72452909D01*
X94997588Y-72452906D01*
X94997592Y-72452904D01*
X95147904Y-72302592D01*
X95267483Y-72138004D01*
X95322811Y-72095340D01*
X95392424Y-72089361D01*
X95454220Y-72121966D01*
X95468113Y-72137999D01*
X95532555Y-72226696D01*
X95587696Y-72302592D01*
X95738013Y-72452909D01*
X95909979Y-72577848D01*
X95909981Y-72577849D01*
X95909984Y-72577851D01*
X96099388Y-72674357D01*
X96301557Y-72740046D01*
X96511513Y-72773300D01*
X96511514Y-72773300D01*
X96724086Y-72773300D01*
X96724087Y-72773300D01*
X96934043Y-72740046D01*
X97136212Y-72674357D01*
X97325616Y-72577851D01*
X97399538Y-72524144D01*
X97497586Y-72452909D01*
X97497588Y-72452906D01*
X97497592Y-72452904D01*
X97647904Y-72302592D01*
X97767791Y-72137579D01*
X97823120Y-72094915D01*
X97892733Y-72088936D01*
X97954529Y-72121541D01*
X97968427Y-72137581D01*
X98088072Y-72302259D01*
X98088076Y-72302264D01*
X98238335Y-72452523D01*
X98238340Y-72452527D01*
X98410242Y-72577420D01*
X98599582Y-72673895D01*
X98801671Y-72739557D01*
X98867800Y-72750031D01*
X98867800Y-71701945D01*
X98934457Y-71740430D01*
X99055265Y-71772800D01*
X99180335Y-71772800D01*
X99301143Y-71740430D01*
X99367800Y-71701945D01*
X99367800Y-72750030D01*
G37*
%TD.AperFunction*%
%TA.AperFunction,Conductor*%
G36*
X76262242Y-51319966D02*
G01*
X76307997Y-51372770D01*
X76317941Y-51441928D01*
X76288916Y-51505484D01*
X76230138Y-51543258D01*
X76227296Y-51544056D01*
X76147729Y-51565375D01*
X76147720Y-51565379D01*
X75947590Y-51658701D01*
X75882811Y-51704058D01*
X76553553Y-52374800D01*
X76530840Y-52374800D01*
X76433939Y-52400764D01*
X76347060Y-52450924D01*
X76276124Y-52521860D01*
X76225964Y-52608739D01*
X76200000Y-52705640D01*
X76200000Y-52728353D01*
X75529258Y-52057611D01*
X75483901Y-52122390D01*
X75423658Y-52251581D01*
X75377485Y-52304020D01*
X75310292Y-52323172D01*
X75243411Y-52302956D01*
X75198894Y-52251581D01*
X75138651Y-52122390D01*
X75138534Y-52122139D01*
X75011826Y-51941180D01*
X74855620Y-51784974D01*
X74855616Y-51784971D01*
X74855615Y-51784970D01*
X74674666Y-51658268D01*
X74674662Y-51658266D01*
X74674660Y-51658265D01*
X74474450Y-51564906D01*
X74474447Y-51564905D01*
X74474445Y-51564904D01*
X74396637Y-51544056D01*
X74336977Y-51507691D01*
X74306448Y-51444844D01*
X74314743Y-51375468D01*
X74359228Y-51321591D01*
X74425780Y-51300316D01*
X74428731Y-51300281D01*
X76195203Y-51300281D01*
X76262242Y-51319966D01*
G37*
%TD.AperFunction*%
%TA.AperFunction,Conductor*%
G36*
X78800308Y-51319966D02*
G01*
X78846063Y-51372770D01*
X78856007Y-51441928D01*
X78826982Y-51505484D01*
X78768204Y-51543258D01*
X78765363Y-51544056D01*
X78687554Y-51564904D01*
X78687548Y-51564907D01*
X78487340Y-51658265D01*
X78487338Y-51658266D01*
X78306377Y-51784975D01*
X78150175Y-51941177D01*
X78023467Y-52122137D01*
X77963105Y-52251582D01*
X77916932Y-52304021D01*
X77849738Y-52323172D01*
X77782857Y-52302956D01*
X77738341Y-52251580D01*
X77678098Y-52122389D01*
X77678097Y-52122387D01*
X77632741Y-52057611D01*
X77632740Y-52057610D01*
X76962000Y-52728351D01*
X76962000Y-52705640D01*
X76936036Y-52608739D01*
X76885876Y-52521860D01*
X76814940Y-52450924D01*
X76728061Y-52400764D01*
X76631160Y-52374800D01*
X76608448Y-52374800D01*
X77279188Y-51704059D01*
X77279187Y-51704058D01*
X77214411Y-51658701D01*
X77214405Y-51658698D01*
X77014284Y-51565380D01*
X77014270Y-51565375D01*
X76934704Y-51544056D01*
X76875043Y-51507691D01*
X76844514Y-51444844D01*
X76852809Y-51375469D01*
X76897294Y-51321591D01*
X76963846Y-51300316D01*
X76966797Y-51300281D01*
X78733269Y-51300281D01*
X78800308Y-51319966D01*
G37*
%TD.AperFunction*%
%TD*%
M02*
